<svg xmlns:xlink="http://www.w3.org/1999/xlink" xmlns="http://www.w3.org/2000/svg" width="120" height="136" fill="none" viewBox="0 0 120 136"><ellipse cx="56.4406" cy="55.4075" fill="#fff" rx="51.3559" ry="50.3704"/><path fill="url(#a)" d="M46.0209 87.124c.4756.4781.7416 1.1192.7416 1.7867s-.266 1.3087-.7416 1.7868c-.4853.4618-1.133.7237-1.8096.7316-.3362.002-.6694-.0616-.9801-.1872s-.5928-.3107-.8296-.5444c-.4679-.4854-.7237-1.1307-.713-1.7982.0107-.6676.2872-1.3046.7704-1.7753.2369-.2337.5189-.4188.8296-.5444.3108-.1256.644-.1893.9801-.1872.6766.0079 1.3243.2697 1.8097.7316h-.0575Zm-1.7522-7.5129c1.242.01 2.4693.2643 3.6091.7476 1.1398.4834 2.1689 1.186 3.0264 2.0662 1.7664 1.749 2.7572 4.1099 2.7572 6.5702 0 2.4604-.9908 4.8213-2.7572 6.5703-.8662.8627-1.899 1.5478-3.0382 2.0155-1.1392.4677-2.3621.7086-3.5973.7086-1.2352 0-2.4581-.2409-3.5973-.7086-1.1392-.4677-2.172-1.1528-3.0381-2.0155-1.7665-1.749-2.7573-4.1099-2.7573-6.5703 0-2.4603.9908-4.8212 2.7573-6.5702.8448-.885 1.8623-1.5949 2.9921-2.0879 1.1299-.493 2.3492-.759 3.5859-.7822l.0574.0563Zm36.2221 7.8505c.4549.461.7119 1.0753.7182 1.7164-.0003.6423-.2582 1.2588-.7182 1.7165-.2271.2307-.4993.4144-.8003.54-.301.1257-.6247.1909-.9519.1916-.6528-.0147-1.2738-.2791-1.7301-.7366-.4563-.4575-.7117-1.0718-.7115-1.7115-.003-.3185.059-.6344.1823-.9291.1233-.2948.3054-.5624.5358-.7873.2232-.2261.4912-.4052.7875-.5261.2964-.121.615-.1813.936-.1773.6289-.0062 1.236.2256 1.6948.6471l.0574.0563Zm-1.7522-7.4848c1.2331.0129 2.4509.2686 3.581.752s2.1493 1.1846 2.997 2.0619c1.7455 1.737 2.7238 4.0766 2.7238 6.514 0 2.4373-.9783 4.777-2.7238 6.514-.8588.853-1.8833 1.529-3.0131 1.9881-1.1297.4591-2.3418.692-3.5649.685-1.2221.0008-2.4324-.235-3.5612-.6937-1.1289-.4588-2.1541-1.1314-3.0168-1.9794-1.7319-1.744-2.7009-4.081-2.7009-6.514s.969-4.7701 2.7009-6.514c.8401-.8758 1.8487-1.5802 2.9678-2.0728 1.119-.4926 2.3264-.7635 3.5527-.7973l.0575.0562Zm.2011-25.5776-7.7558 1.0411-.3446-20.1469c.0053-.1781.0768-.3482.201-.4784.1225-.1198.2866-.1901.4596-.1969h6.4631c.173.0069.337.0773.4594.1972.1224.1199.1942.2805.2013.45l.316 19.1339Zm2.8725-19.6967h2.3554c1.0337-.0477 2.065.1351 3.0161.5346.4937.2435.8812.6531 1.0916 1.1537.4536 1.1587.6872 2.3888.6894 3.6298V46.6612c.0822 1.3772-.1946 2.7522-.8043 3.9957-.5402.885-1.3013 1.621-2.2119 2.1384-1.1069.6022-2.3121 1.0115-3.5619 1.21-.0959.0139-.1937.0086-.2875-.0156-.0938-.0242-.1816-.0668-.2582-.1251-.0736-.0568-.1327-.1296-.1726-.2126-.0398-.083-.0594-.174-.0572-.2657l-.316-18.0366c.0071-.1695.0789-.3301.2013-.45.1224-.1199.2864-.1903.4594-.1972h-.1436Zm-21.0841 0h6.7216c.0854-.0038.1707.0094.2507.0388.08.0294.1531.0744.2149.1322.0617.0579.1109.1274.1444.2044.0335.077.0507.1599.0507.2436l.3447 19.95c.0014.158-.0563.311-.1621.4302-.1059.1192-.2525.1964-.4124.217l-6.7217.8723c-.0914.0133-.1847.0076-.2737-.0166-.0891-.0243-.1719-.0665-.2433-.1241-.1269-.1312-.2075-.2989-.2298-.4784l-.3447-20.8222c-.0014-.0848.0158-.1689.0505-.2466.0347-.0777.086-.1471.1506-.2036.0459-.0895.1154-.1654.2012-.2198.0858-.0544.1849-.0854.2871-.0898l-.0287.1126ZM46.1645 58.8451l-2.8725.3939c-.1547.0201-.3116-.014-.443-.0964-.1315-.0824-.2289-.2078-.2751-.3538l-7.0088-23.214c-.0478-.0864-.0728-.1831-.0728-.2814 0-.0983.025-.195.0728-.2814.0556-.0832.1328-.1505.2236-.195.0908-.0444.1921-.0646.2934-.0582H45.5613c.1676 0 .3284.0652.4469.1813s.1851.2735.1851.4377l.3734 22.7638c.0094.1245-.0216.2488-.0886.3549-.0671.1062-.1668.1888-.2848.236l-.0288.1126Zm3.4758-24.0582h7.1237c.0854-.0038.1707.0094.2507.0388.08.0294.1531.0744.2149.1323.0618.0578.1109.1274.1444.2044.0336.077.0508.1598.0507.2435l.3734 21.3288c.0014.158-.0562.311-.1621.4302-.1058.1192-.2525.1964-.4124.217l-7.1237.9848c-.0818.0341-.1697.0516-.2585.0516-.0889 0-.1768-.0175-.2586-.0516-.0736-.0568-.1327-.1296-.1726-.2126-.0398-.083-.0594-.174-.0572-.2657l-.3734-22.2292c-.0037-.0892.0124-.1782.0471-.2607.0347-.0826.0872-.1569.154-.2177.0267-.1199.0863-.2304.1723-.3197.086-.0892.1953-.1538.316-.1867l-.0287.1125Zm38.2041 35.7637c.8636.0771 1.6666.4677 2.2512 1.095.5847.6274.9089 1.4461.9089 2.2956 0 .8495-.3242 1.6682-.9089 2.2956-.5846.6273-1.3876 1.0179-2.2512 1.0951H41.3675c-1.9078.0851-3.8009-.3639-5.4577-1.2944-.8945-.567-1.6274-1.3473-2.1298-2.2676-.5024-.9204-.758-1.9507-.7427-2.9942.1401-2.2673.9045-4.4551 2.2118-6.3311l1.1777-1.8572c.0371-.0844.0563-.1753.0563-.2673 0-.0919-.0192-.1829-.0563-.2673l-9.9101-31.7117c-.1084-.4222-.326-.8098-.6319-1.1256-.5631-.1882-1.1587-.2647-1.7523-.2251h-4.6534c-.9142 0-1.7909-.3557-2.4374-.9889-.6464-.6333-1.0096-1.4921-1.0096-2.3876 0-.8956.3632-1.7544 1.0096-2.3877.6465-.6332 1.5232-.9889 2.4374-.9889h4.6247c1.8919-.1087 3.7734.3422 5.4003 1.2943 1.2567.7341 2.2578 1.8227 2.8725 3.1234.1683.3464.3122.7036.4309 1.0692.056.1259.1485.2329.2659.3079.1173.075.2546.1147.3947.1142h50.7282c2.1252-.056 4.2332.3878 6.1472 1.2943 1.8802.9361 3.3647 2.4899 4.1938 4.3896.8009 1.9321 1.2294 3.9928 1.2639 6.0779.1152 1.9492.1152 3.9034 0 5.8527v1.3225c.127 2.5548-.4907 5.0922-1.781 7.3159-1.1259 1.8393-2.7193 3.3614-4.6247 4.4177-1.9699 1.1205-4.1471 1.8474-6.4056 2.1385l-39.0946 5.2619c-.4815.0602-.943.2255-1.3507.4836-.4076.2581-.751.6024-1.0048 1.0077l-.3159.5346c-1.149 1.8009-1.8959 2.5325.3159 2.5325l46.3046-.2251Zm27.5476-39.8437c-2.729-6.7688-7.057-12.8074-12.63-17.6204-5.5723-4.81295-12.2302-8.26319-19.4274-10.06762-15.2101-4.02517-31.2381-4.02517-46.4482 0-7.1745 1.8456-13.8082 5.31115-19.3699 10.11912-5.5617 4.808-9.89683 10.8249-12.65835 17.5689-6.43438 14.5193-6.52055 38.6619 0 53.1812C14.9119 106.567 36.0247 115.262 59.694 115.262c7.9908.074 15.9485-1.016 23.6119-3.236 2.77-.797 5.4695-1.813 8.0717-3.039-6.587 10.975-15.7683 20.239-26.7716 27.013 14.6078-4.812 27.5068-13.615 37.177-25.37 9.669-11.7559 15.707-25.9744 17.4-40.9799 1.724-12.2682.833-27.5473-3.763-39.0558l-.028.1126Z"/><defs><linearGradient id="a" x1="76.9289" x2="74.1725" y1="109.635" y2="-.107341" gradientUnits="userSpaceOnUse"><stop stop-color="#FF6908"/><stop offset="1" stop-color="#FEB602"/></linearGradient></defs></svg>