<svg xmlns:xlink="http://www.w3.org/1999/xlink" xmlns="http://www.w3.org/2000/svg" class="mainmenu-icon mainmenu-icon-k206" width="32"  height="27" ><defs><symbol id="k206" xmlns="http://www.w3.org/2000/svg" viewBox="0 0 32 27">
    <path d="M16,5.82c-4.75,0-8.6,3.8-8.6,8.49s3.85,8.49,8.6,8.49,8.6-3.8,8.6-8.49c0-4.68-3.85-8.48-8.6-8.49Zm0,14.82c-3.54,0-6.41-2.83-6.41-6.33s2.87-6.33,6.41-6.33,6.41,2.83,6.41,6.33c0,3.49-2.87,6.32-6.41,6.33Z"></path>
    <path d="M28.99,4.11h-4.12l-.48-1.47c-.44-1.49-1.78-2.54-3.35-2.63H10.96c-1.57,.09-2.91,1.14-3.35,2.63l-.48,1.47H3.01c-1.66,0-3.01,1.33-3.01,2.97V24.04c0,1.64,1.35,2.96,3.01,2.96H28.99c1.66,0,3.01-1.32,3.01-2.96V7.08c0-1.64-1.35-2.97-3.01-2.97Zm.35,19.93c0,.18-.15,.33-.33,.33H3.01c-.18,0-.34-.13-.35-.32h0V7.08c0-.18,.15-.33,.33-.33h6.08l1.08-3.3c.11-.38,.41-.67,.8-.76h10.08c.39,.09,.69,.39,.8,.76l1.08,3.3h6.07c.18,0,.34,.13,.35,.32h0V24.04Z"></path>
    <path d="M5.33,7.89c-.74,0-1.33,.59-1.33,1.32s.6,1.32,1.33,1.32,1.33-.59,1.33-1.32-.6-1.32-1.33-1.32Z"></path>
  </symbol></defs><use xlink:href="#k206"></use></svg>