<svg xmlns:xlink="http://www.w3.org/1999/xlink" xmlns="http://www.w3.org/2000/svg" class="mainmenu-icon mainmenu-icon-k695" width="32"  height="24" ><defs><symbol id="k695" xmlns="http://www.w3.org/2000/svg" viewBox="0 0 32 24">
    <path d="M28.44,0H3.56C1.6,0,0,1.57,0,3.49V20.51c0,1.92,1.6,3.49,3.56,3.49H28.44c1.97,0,3.56-1.57,3.56-3.49V3.49c0-1.92-1.6-3.49-3.56-3.49Zm1.25,20.51c0,.67-.56,1.22-1.25,1.22H3.56c-.69,0-1.25-.55-1.25-1.22V3.49c0-.67,.56-1.22,1.25-1.22H15.58V13.65c0,1.34,1.11,2.43,2.48,2.43h11.62v4.44Zm0-6.71h-11.62c-.09,0-.16-.07-.16-.16V2.27h10.53c.69,0,1.25,.55,1.25,1.22V13.8Z"></path>
    <path d="M23.79,3.34c-2.64,0-4.8,2.11-4.8,4.69s2.15,4.7,4.8,4.7,4.8-2.11,4.8-4.7-2.15-4.69-4.8-4.69Zm0,7.57c-1.62,0-2.94-1.29-2.94-2.88s1.32-2.88,2.94-2.88,2.94,1.29,2.94,2.88-1.32,2.88-2.94,2.88Z"></path>
    <path d="M11.24,4.3H6.55c-.81,0-1.47,.64-1.47,1.44v4.59c0,.79,.66,1.44,1.47,1.44h4.69c.81,0,1.47-.64,1.47-1.44V5.74c0-.79-.66-1.44-1.47-1.44Zm-.39,5.65h-3.92v-3.84h3.92v3.84Z"></path>
    <path d="M8.89,13.65c-1.8,0-3.26,1.43-3.26,3.19s1.46,3.19,3.26,3.19,3.26-1.43,3.26-3.19-1.46-3.19-3.26-3.19Zm0,4.56c-.77,0-1.4-.62-1.4-1.37s.63-1.37,1.4-1.37,1.4,.62,1.4,1.37-.63,1.37-1.4,1.37Z"></path>
  </symbol></defs><use xlink:href="#k695"></use></svg>