<svg xmlns:xlink="http://www.w3.org/1999/xlink" xmlns="http://www.w3.org/2000/svg" class="mainmenu-icon mainmenu-icon-k170" width="32"  height="28" ><defs><symbol id="k170" xmlns="http://www.w3.org/2000/svg" viewBox="0 0 32 28">
    <path d="M32,2.16c0-.57-.23-1.12-.64-1.52h0C30.96,.23,30.41,0,29.84,0H7.57c-.58,0-1.13,.23-1.53,.64-.41,.4-.64,.95-.64,1.52v2.12H2.16c-.57,0-1.12,.23-1.52,.64C.23,5.32,0,5.87,0,6.44V25.83c0,.57,.23,1.12,.64,1.52H.64c.4,.41,.95,.64,1.52,.64H10.52c.56-.01,1.09-.24,1.48-.64h0c.41-.4,.64-.95,.64-1.52v-4.89h2.43v4.77h-.24c-.63-.07-1.2,.39-1.26,1.02-.07,.63,.39,1.19,1.02,1.26,.08,0,.16,0,.25,0h8.97c.63,.07,1.2-.39,1.26-1.02,.07-.63-.39-1.19-1.02-1.26-.08,0-.16,0-.25,0h-.2v-4.77h6.24c.57,0,1.12-.24,1.52-.64h0c.41-.4,.64-.96,.64-1.53V2.16ZM10.4,6.56v2.93H2.28v-2.93H10.4Zm0,5.6H2.28v-1.49H10.4v1.49Zm0,1.13v1.53H2.28v-1.49l8.12-.04ZM2.28,25.71V16H10.4v9.76l-8.12-.04Zm19.04,0h-3.99v-4.77h4v4.77Zm8.39-7.05H12.68V6.44c-.01-.58-.26-1.12-.68-1.52h0c-.4-.41-.95-.64-1.52-.64h-2.8v-2H29.72V18.66Z"></path>
  </symbol></defs><use xlink:href="#k170" fill="#2C509A"></use></svg>