<svg xmlns:xlink="http://www.w3.org/1999/xlink" xmlns="http://www.w3.org/2000/svg" class="mainmenu-icon mainmenu-icon-k33" width="32"  height="27" ><defs><symbol id="k33" xmlns="http://www.w3.org/2000/svg" viewBox="0 0 32 27">
    <path d="M29.69,13.38c-1.43-1.44-3.4-2.34-5.58-2.35H14.28c0-2.74,.93-2.89,1.93-3.05,2.15-.34,4.41-.71,4.38-6.82C20.59,.52,20.07,0,19.43,0c-.64,0-1.16,.53-1.15,1.17,.02,4.12-1.24,4.32-2.43,4.51-2.01,.32-3.92,.64-3.88,5.35H7.71c-2.15,.07-4.08,.98-5.47,2.42-1.39,1.44-2.25,3.4-2.25,5.56s.89,4.2,2.33,5.65c1.44,1.45,3.43,2.34,5.62,2.34,1.58,0,3.05-.46,4.29-1.26,1.07-.69,1.97-1.64,2.61-2.75h2.29c.59,1.08,1.35,2.01,2.34,2.7,1.19,.83,2.69,1.32,4.57,1.32,1.99,0,4.05-.95,5.57-2.48,1.42-1.43,2.38-3.37,2.38-5.51s-.88-4.18-2.31-5.63Zm-1.63,9.57c-1.12,1.12-2.61,1.83-4.01,1.83s-2.47-.34-3.31-.92c-.84-.59-1.46-1.44-1.92-2.45l-.3-.65h-5.04l-.3,.65c-.46,1.01-1.2,1.86-2.13,2.46-.89,.57-1.96,.91-3.1,.91-1.59,0-3.02-.65-4.06-1.69-1.04-1.04-1.68-2.49-1.68-4.08s.62-2.98,1.62-4.02c1.01-1.04,2.4-1.71,3.95-1.75H24.09c1.58,0,3.01,.66,4.04,1.7,1.03,1.04,1.66,2.48,1.66,4.07s-.7,2.9-1.74,3.94Z"></path>
    <path d="M10.43,17.96h-1.54v-1.55c0-.43-.35-.78-.77-.78s-.77,.35-.77,.78v1.55h-1.54c-.42,0-.77,.35-.77,.78s.35,.78,.77,.78h1.54v1.55c0,.43,.35,.78,.77,.78s.77-.35,.77-.78v-1.55h1.54c.42,0,.77-.35,.77-.78s-.35-.78-.77-.78Z"></path>
    <path d="M24.11,17.82c.57,0,1.04-.47,1.04-1.04s-.46-1.04-1.04-1.04-1.04,.47-1.04,1.04,.46,1.04,1.04,1.04Z"></path>
    <path d="M24.11,19.65c-.57,0-1.04,.47-1.04,1.04s.46,1.04,1.04,1.04,1.04-.47,1.04-1.04-.46-1.04-1.04-1.04Z"></path>
    <path d="M26.06,17.69c-.57,0-1.04,.47-1.04,1.04s.46,1.04,1.04,1.04,1.04-.47,1.04-1.04-.46-1.04-1.04-1.04Z"></path>
    <path d="M22.15,17.69c-.57,0-1.04,.47-1.04,1.04s.46,1.04,1.04,1.04,1.04-.47,1.04-1.04-.46-1.04-1.04-1.04Z"></path>
  </symbol></defs><use xlink:href="#k33"></use></svg>