<svg xmlns:xlink="http://www.w3.org/1999/xlink" xmlns="http://www.w3.org/2000/svg" class="mainmenu-icon mainmenu-icon-k173" width="32"  height="32" ><defs><symbol id="k173" xmlns="http://www.w3.org/2000/svg" viewBox="0 0 32 32">
    <path d="M23.06,6.21H8.94c-.75,0-1.43,.31-1.93,.8-.49,.49-.8,1.18-.8,1.93v14.13c0,.75,.31,1.43,.8,1.93,.49,.49,1.18,.8,1.93,.8h14.13c.75,0,1.43-.31,1.93-.8,.49-.49,.8-1.18,.8-1.93V8.94c0-.75-.31-1.43-.8-1.93-.49-.49-1.18-.8-1.93-.8Zm.29,16.86c0,.08-.03,.15-.09,.2-.05,.05-.12,.09-.2,.09H8.94c-.08,0-.15-.03-.2-.09-.05-.05-.09-.12-.09-.2V8.94c0-.08,.03-.15,.09-.2,.05-.05,.12-.09,.2-.09h14.13c.08,0,.15,.03,.2,.09,.05,.05,.09,.12,.09,.2v14.13Z"></path>
    <path d="M30.78,18.96h-2.74c-.67,0-1.22,.55-1.22,1.22s.55,1.22,1.22,1.22h2.74c.67,0,1.22-.55,1.22-1.22s-.55-1.22-1.22-1.22Z"></path>
    <path d="M3.96,10.6H1.22c-.67,0-1.22,.55-1.22,1.22s.55,1.22,1.22,1.22H3.96c.67,0,1.22-.55,1.22-1.22s-.55-1.22-1.22-1.22Z"></path>
    <path d="M3.96,18.96H1.22c-.67,0-1.22,.55-1.22,1.22s.55,1.22,1.22,1.22H3.96c.67,0,1.22-.55,1.22-1.22s-.55-1.22-1.22-1.22Z"></path>
    <path d="M28.04,13.04h2.74c.67,0,1.22-.55,1.22-1.22s-.55-1.22-1.22-1.22h-2.74c-.67,0-1.22,.55-1.22,1.22s.55,1.22,1.22,1.22Z"></path>
    <path d="M20.46,10.74H11.54c-.44,0-.8,.36-.8,.8v8.92c0,.44,.36,.8,.8,.8h8.92c.44,0,.8-.36,.8-.8V11.54c0-.44-.36-.8-.8-.8Zm-.8,8.92h-7.32v-7.32h7.32v7.32Z"></path>
    <path d="M20.18,5.18c.67,0,1.22-.55,1.22-1.22V1.22c0-.67-.55-1.22-1.22-1.22s-1.22,.55-1.22,1.22V3.96c0,.67,.55,1.22,1.22,1.22Z"></path>
    <path d="M11.82,26.82c-.67,0-1.22,.55-1.22,1.22v2.74c0,.67,.55,1.22,1.22,1.22s1.22-.55,1.22-1.22v-2.74c0-.67-.55-1.22-1.22-1.22Z"></path>
    <path d="M20.18,26.82c-.67,0-1.22,.55-1.22,1.22v2.74c0,.67,.55,1.22,1.22,1.22s1.22-.55,1.22-1.22v-2.74c0-.67-.55-1.22-1.22-1.22Z"></path>
    <path d="M11.82,5.18c.67,0,1.22-.55,1.22-1.22V1.22c0-.67-.55-1.22-1.22-1.22s-1.22,.55-1.22,1.22V3.96c0,.67,.55,1.22,1.22,1.22Z"></path>
  </symbol></defs><use xlink:href="#k173"></use></svg>