<svg xmlns:xlink="http://www.w3.org/1999/xlink" xmlns="http://www.w3.org/2000/svg" class="mainmenu-icon mainmenu-icon-k398" width="24"  height="32" ><defs><symbol id="k398" xmlns="http://www.w3.org/2000/svg" viewBox="0 0 24 32">
    <path d="M23.99,7.1h0L16.97,.02v-.02H3.58C1.6,0,0,1.62,0,3.61V28.39c0,1.99,1.6,3.61,3.58,3.61H20.42c1.97,0,3.58-1.62,3.58-3.61V7.1h0Zm-2.8,0h-4.23V2.84l4.23,4.26Zm.35,21.29c0,.63-.51,1.14-1.13,1.14H3.58c-.62,0-1.13-.51-1.13-1.14V3.61c0-.63,.51-1.14,1.13-1.14H14.52V7.71c0,1.02,.88,1.86,1.95,1.86h5.07V28.39Z"></path>
  </symbol></defs><use xlink:href="#k398" fill="#2C509A"></use></svg>