<svg xmlns:xlink="http://www.w3.org/1999/xlink" xmlns="http://www.w3.org/2000/svg" class="mainmenu-icon mainmenu-icon-k239" width="27"  height="32" ><defs><symbol id="k239" xmlns="http://www.w3.org/2000/svg" viewBox="0 0 27 32">
    <path d="M17.54,32h4.78c.88,0,1.69-.2,2.35-.58,1.44-.83,2.34-2.36,2.34-3.98V12.3c0-3.36-1.42-6.47-3.99-8.78C20.47,1.25,17.1,0,13.5,0S6.53,1.25,3.99,3.52C1.42,5.82,0,8.94,0,12.3v15.15c0,1.62,.89,3.15,2.34,3.98,.65,.38,1.47,.58,2.35,.58h4.78c.48,0,.87-.38,.87-.85v-9.33c0-1.21-.48-2.36-1.35-3.23-.85-.85-2.04-1.34-3.26-1.35H2.43v-4.7c0-.06,0-.12,0-.18C2.69,6.7,7.66,2.28,13.5,2.52h.07c.1,0,.19,0,.29,0,2.73,0,5.31,1,7.3,2.83,2.06,1.9,3.23,4.46,3.31,7.21v4.7h-3.13c-1.22,0-2.41,.49-3.26,1.35-.9,.86-1.4,2.01-1.41,3.23v9.33c0,.47,.39,.85,.87,.85ZM2.69,19.92h3.05c.51,.02,.99,.24,1.34,.6,.35,.35,.56,.81,.56,1.31v7.49h-3.05c-.51,0-1-.21-1.35-.56-.35-.35-.55-.82-.55-1.31v-7.52Zm16.66,1.87c0-.49,.21-.96,.57-1.31,.36-.35,.84-.55,1.35-.56h3.04v7.51c0,.49-.2,.96-.55,1.31-.35,.35-.84,.56-1.35,.56h-3.05v-7.51Z"></path>
  </symbol></defs><use xlink:href="#k239"></use></svg>