<svg xmlns:xlink="http://www.w3.org/1999/xlink" xmlns="http://www.w3.org/2000/svg" class="mainmenu-icon mainmenu-icon-k304" width="32"  height="28" ><defs><symbol id="k304" xmlns="http://www.w3.org/2000/svg" viewBox="0 0 32 28">
    <path d="M31.41,8.45h0l-.08-.08c-.43-.43-1-.66-1.6-.66H11.57c.14-.78,.52-.98,.96-1.2,1.28-.66,2.73-1.41,2.71-5.2,0-.72-.59-1.3-1.31-1.3h0c-.35,0-.68,.14-.92,.39-.25,.25-.38,.58-.38,.93,.01,2.19-.65,2.53-1.29,2.86-1.1,.57-2.24,1.16-2.41,3.53H2.27c-.6,0-1.17,.24-1.6,.67-.43,.43-.66,.99-.66,1.59v15.77c0,.6,.24,1.17,.67,1.6l.09,.09h0c.42,.37,.95,.58,1.51,.58H29.73c.56,0,1.09-.21,1.51-.58h0l.09-.08c.43-.43,.67-1,.67-1.6V9.97c0-.56-.21-1.1-.59-1.52Zm-1.92,1.76v15.28H2.51V10.22H29.49Z"></path>
    <path d="M23,15.32h1.07c.23,0,.41,.18,.41,.41v1.06c0,.23-.18,.41-.41,.41h-1.07c-.23,0-.41-.18-.41-.41v-1.06c0-.23,.18-.41,.41-.41Z"></path>
    <path d="M24.39,18.49h1.07c.23,0,.41,.18,.41,.41v1.06c0,.23-.18,.41-.41,.41h-1.07c-.23,0-.41-.18-.41-.41v-1.06c0-.23,.18-.41,.41-.41Z"></path>
    <path d="M21.08,18.49h1.07c.23,0,.41,.18,.41,.41v1.06c0,.23-.18,.41-.41,.41h-1.07c-.23,0-.41-.18-.41-.41v-1.06c0-.23,.18-.41,.41-.41Z"></path>
    <path d="M26.35,15.32h1.07c.23,0,.41,.18,.41,.41v1.06c0,.23-.18,.41-.41,.41h-1.07c-.23,0-.41-.18-.41-.41v-1.06c0-.23,.18-.41,.41-.41Z"></path>
    <rect x="23.98" y="12.15" width="1.89" height="1.88" rx=".41" ry=".41"></rect>
    <path d="M14.47,18.49h1.07c.23,0,.41,.18,.41,.41v1.06c0,.23-.18,.41-.41,.41h-1.07c-.23,0-.41-.18-.41-.41v-1.06c0-.23,.18-.41,.41-.41Z"></path>
    <path d="M17.78,18.49h1.07c.23,0,.41,.18,.41,.41v1.06c0,.23-.18,.41-.41,.41h-1.07c-.23,0-.41-.18-.41-.41v-1.06c0-.23,.18-.41,.41-.41Z"></path>
    <path d="M7.85,18.49h1.07c.23,0,.41,.18,.41,.41v1.06c0,.23-.18,.41-.41,.41h-1.07c-.23,0-.41-.18-.41-.41v-1.06c0-.23,.18-.41,.41-.41Z"></path>
    <path d="M7.98,21.66h12.55c.23,0,.41,.18,.41,.41v1.06c0,.23-.18,.41-.41,.41H7.98c-.23,0-.41-.18-.41-.41v-1.06c0-.23,.18-.41,.41-.41Z"></path>
    <path d="M11.16,18.49h1.07c.23,0,.41,.18,.41,.41v1.06c0,.23-.18,.41-.41,.41h-1.07c-.23,0-.41-.18-.41-.41v-1.06c0-.23,.18-.41,.41-.41Z"></path>
    <path d="M22.87,21.66h1.07c.23,0,.41,.18,.41,.41v1.06c0,.23-.18,.41-.41,.41h-1.07c-.23,0-.41-.18-.41-.41v-1.06c0-.23,.18-.41,.41-.41Z"></path>
    <path d="M26.05,21.66h1.07c.23,0,.41,.18,.41,.41v1.06c0,.23-.18,.41-.41,.41h-1.07c-.23,0-.41-.18-.41-.41v-1.06c0-.23,.18-.41,.41-.41Z"></path>
    <rect x="7.5" y="12.15" width="1.89" height="1.88" rx=".41" ry=".41"></rect>
    <path d="M6.22,15.32h1.07c.23,0,.41,.18,.41,.41v1.06c0,.23-.18,.41-.41,.41h-1.07c-.23,0-.41-.18-.41-.41v-1.06c0-.23,.18-.41,.41-.41Z"></path>
    <rect x="10.8" y="12.15" width="1.89" height="1.88" rx=".41" ry=".41"></rect>
    <path d="M9.57,15.32h1.07c.23,0,.41,.18,.41,.41v1.06c0,.23-.18,.41-.41,.41h-1.07c-.23,0-.41-.18-.41-.41v-1.06c0-.23,.18-.41,.41-.41Z"></path>
    <rect x="4.17" y="21.66" width="1.89" height="1.88" rx=".41" ry=".41"></rect>
    <rect x="4.21" y="12.15" width="1.89" height="1.88" rx=".41" ry=".41"></rect>
    <rect x="14.1" y="12.15" width="1.89" height="1.88" rx=".41" ry=".41"></rect>
    <rect x="17.39" y="12.15" width="1.89" height="1.88" rx=".41" ry=".41"></rect>
    <path d="M19.64,15.32h1.07c.23,0,.41,.18,.41,.41v1.06c0,.23-.18,.41-.41,.41h-1.07c-.23,0-.41-.18-.41-.41v-1.06c0-.23,.18-.41,.41-.41Z"></path>
    <rect x="20.69" y="12.15" width="1.89" height="1.88" rx=".41" ry=".41"></rect>
    <path d="M12.93,15.32h1.07c.23,0,.41,.18,.41,.41v1.06c0,.23-.18,.41-.41,.41h-1.07c-.23,0-.41-.18-.41-.41v-1.06c0-.23,.18-.41,.41-.41Z"></path>
    <path d="M16.29,15.32h1.07c.23,0,.41,.18,.41,.41v1.06c0,.23-.18,.41-.41,.41h-1.07c-.23,0-.41-.18-.41-.41v-1.06c0-.23,.18-.41,.41-.41Z"></path>
  </symbol></defs><use xlink:href="#k304"></use></svg>