<svg xmlns:xlink="http://www.w3.org/1999/xlink" xmlns="http://www.w3.org/2000/svg" class="mainmenu-icon mainmenu-icon-k265" width="32"  height="32" ><defs><symbol id="k265" xmlns="http://www.w3.org/2000/svg" viewBox="0 0 32 32">
    <path d="M16,0C7.18,0,0,7.18,0,16s7.18,16,16,16,16-7.18,16-16S24.82,0,16,0Zm11.99,9.83l-13.51,.28,4.21-7.34c4.06,.82,7.45,3.48,9.3,7.06Zm-9.85,2.46l2.14,3.71-2.14,3.71h-4.29l-2.14-3.71,2.14-3.71h4.29ZM16,2.5c.29,0,.58,.03,.86,.04l-6.76,11.79L5.9,7.08c2.48-2.8,6.08-4.58,10.1-4.58ZM4.77,8.52l6.81,11.73H3.19c-.44-1.34-.69-2.77-.69-4.25,0-2.76,.84-5.33,2.27-7.48Zm-.87,13.42h13.59l-4.17,7.29c-4.15-.84-7.6-3.59-9.42-7.29Zm12.1,7.56c-.29,0-.57-.03-.86-.04l6.75-11.78,4.21,7.24c-2.48,2.8-6.08,4.57-10.1,4.57Zm11.23-6.02l-6.85-11.79,8.34-.18c.5,1.41,.78,2.91,.78,4.49,0,2.77-.84,5.34-2.27,7.48Z"></path>
  </symbol></defs><use xlink:href="#k265" fill="#2C509A"></use></svg>