<svg xmlns:xlink="http://www.w3.org/1999/xlink" xmlns="http://www.w3.org/2000/svg" class="mainmenu-icon mainmenu-icon-k157" width="32"  height="29" ><defs><symbol id="k157" xmlns="http://www.w3.org/2000/svg" viewBox="0 0 32 29">
    <path d="M2.16,0H29.84c.6,0,1.14,.24,1.53,.62s.63,.92,.63,1.5V19.76c0,.58-.24,1.11-.64,1.5h0c-.39,.39-.93,.63-1.53,.63h-9.6v4.86h.61c.63,0,1.14,.5,1.14,1.13s-.51,1.13-1.14,1.13H11.15c-.63,0-1.14-.5-1.14-1.13s.51-1.13,1.14-1.13h.61v-4.86H2.16c-.59,0-1.14-.24-1.53-.62H.63c-.39-.39-.63-.92-.63-1.5V2.13C0,1.54,.24,1.01,.63,.63H.63c.39-.39,.93-.63,1.53-.63h0Zm.13,18.07H29.71V2.25H2.29v15.82h0Zm15.66,8.67v-4.66h-3.9v4.66h3.9Z"></path>
  </symbol></defs><use xlink:href="#k157" fill="#2C509A"></use></svg>