<svg xmlns:xlink="http://www.w3.org/1999/xlink" xmlns="http://www.w3.org/2000/svg" class="mainmenu-icon mainmenu-icon-k298" width="32"  height="22" ><defs><symbol id="k298" xmlns="http://www.w3.org/2000/svg" viewBox="0 0 32 22">
    <path d="M30.77,19.53h-1.75V2.08c0-1.14-.93-2.08-2.07-2.08H5.05c-1.14,0-2.07,.93-2.07,2.08V19.53H1.23c-.68,0-1.23,.55-1.23,1.23s.55,1.23,1.23,1.23H30.77c.68,0,1.23-.55,1.23-1.23s-.55-1.23-1.23-1.23Zm-11.38,1.7h-6.78c-.21,0-.39-.18-.39-.39s.17-.39,.39-.39h6.78c.21,0,.39,.18,.39,.39s-.17,.39-.39,.39Zm7.17-2.62H5.45V2.47H26.55V18.61Z"></path>
  </symbol></defs><use xlink:href="#k298"></use></svg>