<svg xmlns:xlink="http://www.w3.org/1999/xlink" xmlns="http://www.w3.org/2000/svg" class="mainmenu-icon mainmenu-icon-k447" width="19"  height="32" ><defs><symbol id="k447" xmlns="http://www.w3.org/2000/svg" viewBox="0 0 19 32">
    <path d="M15.19,0H3.81C1.71,0,0,1.69,0,3.77V28.23c0,2.08,1.71,3.77,3.81,3.77H15.19c2.1,0,3.81-1.69,3.81-3.77V3.77c0-2.08-1.71-3.77-3.81-3.77Zm1.32,28.23c0,.72-.59,1.3-1.32,1.3H3.81c-.73,0-1.32-.59-1.32-1.3V3.77c0-.72,.59-1.3,1.32-1.3H15.19c.73,0,1.32,.59,1.32,1.3V28.23Z"></path>
    <path d="M8.77,4.27h-3.34c-.63,0-1.14,.51-1.14,1.13v3.3c0,.62,.51,1.13,1.14,1.13h3.34c.63,0,1.14-.51,1.14-1.13v-3.3c0-.62-.51-1.13-1.14-1.13Zm-.37,4.07h-2.59v-2.57h2.59v2.57Z"></path>
    <path d="M13.04,13.01c-.56,0-1.01,.45-1.01,1v12.65c0,.55,.45,1,1.01,1s1.01-.45,1.01-1V14.01c0-.55-.45-1-1.01-1Z"></path>
    <path d="M5.96,13.01c-.56,0-1.01,.45-1.01,1v12.65c0,.55,.45,1,1.01,1s1.01-.45,1.01-1V14.01c0-.55-.45-1-1.01-1Z"></path>
  </symbol></defs><use xlink:href="#k447" fill="#2C509A"></use></svg>