<svg xmlns:xlink="http://www.w3.org/1999/xlink" xmlns="http://www.w3.org/2000/svg" class="mainmenu-icon mainmenu-icon-k527" width="32"  height="32" ><defs><symbol id="k527" xmlns="http://www.w3.org/2000/svg" viewBox="0 0 32 32">
    <path d="M27.95,6.98h-3.45v-2.94c0-2.23-1.82-4.04-4.05-4.04H11.55c-2.23,0-4.05,1.81-4.05,4.04v2.94h-3.45C1.82,6.98,0,8.79,0,11.02v9.54c0,2.23,1.82,4.04,4.05,4.04h2.23v7.39H25.72v-7.39h2.23c2.23,0,4.05-1.81,4.05-4.04V11.02c0-2.23-1.82-4.04-4.05-4.04ZM9.96,4.04c0-.88,.71-1.59,1.59-1.59h8.89c.88,0,1.59,.71,1.59,1.59v2.94H9.96v-2.94Zm13.26,25.46H8.78v-11.85h14.44v11.85Zm6.32-8.94c0,.88-.71,1.59-1.59,1.59h-2.23v-6.99H6.28v6.99h-2.23c-.88,0-1.59-.71-1.59-1.59V11.02c0-.88,.71-1.59,1.59-1.59H27.95c.88,0,1.59,.71,1.59,1.59v9.54Z"></path>
    <path d="M12.45,22.51h7.1c.51,0,.93-.41,.93-.93s-.42-.93-.93-.93h-7.1c-.51,0-.93,.41-.93,.93s.42,.93,.93,.93Z"></path>
    <path d="M12.45,26.5h7.1c.51,0,.93-.41,.93-.93s-.42-.93-.93-.93h-7.1c-.51,0-.93,.41-.93,.93s.42,.93,.93,.93Z"></path>
  </symbol></defs><use xlink:href="#k527" fill="#2C509A"></use></svg>