<svg xmlns:xlink="http://www.w3.org/1999/xlink" xmlns="http://www.w3.org/2000/svg" class="mainmenu-icon mainmenu-icon-k214" width="32"  height="21" ><defs><symbol id="k214" xmlns="http://www.w3.org/2000/svg" viewBox="0 0 32 21">
    <path d="M29.9,5.22h-2.95c-.57-2.97-3.2-5.22-6.35-5.22s-5.79,2.25-6.35,5.22H2.1c-1.16,0-2.1,.93-2.1,2.08V15.53c0,1.15,.94,2.08,2.1,2.08h1.45c-.02,.09-.03,.18-.03,.28v1.67c0,.79,.65,1.43,1.45,1.43h2.9c.8,0,1.45-.64,1.45-1.43v-1.67c0-.1-.01-.19-.03-.28h13.42c-.02,.09-.03,.18-.03,.28v1.67c0,.79,.65,1.43,1.45,1.43h2.9c.8,0,1.45-.64,1.45-1.43v-1.67c0-.1-.01-.19-.03-.28h1.45c1.16,0,2.1-.93,2.1-2.08V7.3c0-1.15-.94-2.08-2.1-2.08ZM7.32,19.02h-1.79v-.58h1.79v.58Zm19.16,0h-1.79v-.58h1.79v.58ZM20.59,2.48c2.19,0,3.96,1.76,3.97,3.92h0c0,.12-.02,.23-.03,.34-.01,.16-.02,.32-.05,.48-.01,.07-.04,.13-.06,.19-.05,.19-.1,.37-.18,.55,0,0,0,.01-.01,.02-.51,1.15-1.57,2.02-2.84,2.28-.26,.05-.52,.08-.79,.08s-.54-.03-.8-.08c-1.23-.25-2.25-1.08-2.78-2.18-.02-.04-.05-.08-.07-.12-.06-.15-.1-.3-.15-.46-.03-.09-.07-.18-.09-.28-.03-.13-.03-.27-.05-.41-.01-.13-.04-.26-.04-.4h0c0-2.17,1.78-3.93,3.97-3.93Zm8.91,12.66H2.5V7.69H14.26c.07,.34,.18,.68,.3,1,.01,.03,.02,.06,.03,.09,.13,.31,.28,.61,.45,.9,.02,.03,.03,.05,.05,.08,.18,.29,.38,.57,.61,.82l.02,.03c.46,.53,1.01,.98,1.63,1.33,.02,.01,.03,.02,.05,.03,.29,.16,.59,.3,.91,.42,.04,.02,.09,.03,.13,.05,.31,.11,.63,.2,.96,.26,.05,0,.1,.01,.15,.02,.34,.05,.68,.09,1.03,.09h.03c.35,0,.7-.04,1.04-.09,.05,0,.09-.01,.14-.02,.33-.06,.65-.15,.96-.26,.04-.01,.08-.03,.12-.05,.32-.12,.63-.26,.92-.43l.04-.02c.62-.36,1.17-.81,1.64-1.34h.01c.23-.27,.43-.55,.62-.85l.04-.07c.18-.29,.33-.59,.46-.91,0-.02,.02-.05,.03-.07,.13-.33,.23-.66,.31-1.01h2.57v7.44Z"></path>
    <path d="M4.61,9.67v1.05h7.87v-1.05H4.61Z"></path>
    <path d="M4.61,12.11v1.05h7.87v-1.05H4.61Z"></path>
    <path d="M20.59,9.25c1.58,0,2.87-1.28,2.87-2.85s-1.29-2.85-2.87-2.85-2.87,1.28-2.87,2.85,1.29,2.85,2.87,2.85Zm0-4.51c.92,0,1.67,.74,1.67,1.66s-.75,1.66-1.67,1.66-1.67-.74-1.67-1.66,.75-1.66,1.67-1.66Z"></path>
  </symbol></defs><use xlink:href="#k214" fill="#2C509A"></use></svg>