<svg xmlns:xlink="http://www.w3.org/1999/xlink" xmlns="http://www.w3.org/2000/svg" class="mainmenu-icon mainmenu-icon-k943" width="32"  height="32" ><defs><symbol id="k943" xmlns="http://www.w3.org/2000/svg" viewBox="0 0 32 32">
    <path d="M13.02,23.73c-.56,.02-1,.49-.98,1.05,.03,.69-.1,1.38-.35,2.02-.25,.63-.63,1.21-1.12,1.71-.98,.98-2.26,1.47-3.54,1.47s-2.56-.49-3.54-1.47c-.98-.98-1.47-2.26-1.47-3.54s.49-2.56,1.47-3.54c.55-.55,1.2-.95,1.91-1.2,.71-.24,1.48-.33,2.25-.23,.56,.07,1.06-.33,1.13-.88,.07-.56-.33-1.06-.88-1.13-1.08-.13-2.15-.02-3.15,.33-1,.34-1.93,.91-2.69,1.68-1.37,1.37-2.06,3.18-2.06,4.98s.69,3.6,2.06,4.98c1.37,1.37,3.18,2.06,4.98,2.06s3.6-.69,4.98-2.06c.69-.69,1.22-1.51,1.57-2.4,.35-.89,.52-1.85,.48-2.83-.02-.56-.49-1-1.05-.98Z"></path>
    <path d="M18.98,8.27c.56-.02,1-.49,.98-1.05-.03-.69,.1-1.38,.35-2.02,.25-.63,.63-1.21,1.12-1.71,.98-.98,2.26-1.47,3.54-1.47s2.56,.49,3.54,1.47c.98,.98,1.47,2.26,1.47,3.54s-.49,2.56-1.47,3.54c-.55,.55-1.2,.95-1.91,1.2-.71,.24-1.48,.33-2.25,.23-.56-.07-1.06,.33-1.13,.88-.07,.56,.33,1.06,.88,1.13,1.08,.13,2.15,.02,3.15-.33,1-.34,1.93-.91,2.69-1.68,1.37-1.37,2.06-3.18,2.06-4.98s-.69-3.6-2.06-4.98c-1.37-1.37-3.18-2.06-4.98-2.06s-3.6,.69-4.98,2.06c-.69,.69-1.22,1.51-1.57,2.4-.35,.89-.52,1.85-.48,2.83,.02,.56,.49,1,1.05,.98Z"></path>
    <path d="M27.25,18.3c-1-.34-2.08-.46-3.15-.33-.56,.07-.95,.57-.88,1.13,.07,.56,.57,.95,1.13,.88,.77-.1,1.54-.01,2.25,.23,.71,.24,1.37,.65,1.91,1.2,.98,.98,1.47,2.26,1.47,3.54s-.49,2.56-1.47,3.54c-.98,.98-2.26,1.47-3.54,1.47s-2.56-.49-3.54-1.47c-.49-.49-.87-1.08-1.12-1.71-.25-.64-.37-1.32-.35-2.02,.02-.56-.42-1.03-.98-1.05-.56-.02-1.03,.42-1.05,.98-.04,.98,.13,1.94,.48,2.83,.35,.89,.88,1.72,1.57,2.4,1.37,1.37,3.18,2.06,4.98,2.06s3.6-.69,4.98-2.06c1.37-1.37,2.06-3.18,2.06-4.98s-.69-3.6-2.06-4.98c-.77-.77-1.69-1.34-2.69-1.68Z"></path>
    <path d="M4.75,13.7c1,.34,2.08,.46,3.15,.33,.56-.07,.95-.57,.88-1.13-.07-.56-.57-.95-1.13-.88-.77,.1-1.54,.01-2.25-.23-.71-.24-1.37-.65-1.91-1.2-.98-.98-1.47-2.26-1.47-3.54s.49-2.56,1.47-3.54c.98-.98,2.26-1.47,3.54-1.47s2.56,.49,3.54,1.47c.49,.49,.87,1.08,1.12,1.71,.25,.64,.37,1.32,.35,2.02-.02,.56,.42,1.03,.98,1.05,.56,.02,1.03-.42,1.05-.98,.04-.98-.13-1.94-.48-2.83-.35-.89-.88-1.72-1.57-2.4C10.64,.69,8.84,0,7.04,0S3.44,.69,2.06,2.06C.69,3.44,0,5.24,0,7.04s.69,3.6,2.06,4.98c.77,.77,1.69,1.34,2.69,1.68Z"></path>
    <path d="M25.67,6.33c-.49-.49-1.28-.49-1.77,0l-3.95,3.95c-.35-.14-.73-.22-1.12-.22h-5.66c-.35,0-.68,.07-.99,.18l-4.08-4.08c-.49-.49-1.28-.49-1.77,0s-.49,1.28,0,1.77l4,4c-.17,.38-.27,.8-.27,1.25v5.66c0,.4,.08,.77,.22,1.12l-3.95,3.95c-.49,.49-.49,1.28,0,1.77,.24,.24,.56,.37,.88,.37s.64-.12,.88-.37l3.95-3.95c.35,.14,.73,.22,1.12,.22h5.66c.4,0,.78-.08,1.13-.22,0,0,.01,.02,.02,.03l4.1,4.1c.24,.24,.56,.37,.88,.37s.64-.12,.88-.37c.49-.49,.49-1.28,0-1.77l-4.1-4.1s-.02-.01-.03-.02c.14-.35,.22-.73,.22-1.13v-5.66c0-.4-.08-.77-.22-1.12l3.95-3.95c.49-.49,.49-1.28,0-1.77Zm-6.23,12.5c0,.34-.27,.61-.61,.61h-5.66c-.34,0-.61-.27-.61-.61v-5.66c0-.34,.27-.61,.61-.61h5.66c.34,0,.61,.27,.61,.61v5.66Z"></path>
  </symbol></defs><use xlink:href="#k943"></use></svg>