<svg xmlns:xlink="http://www.w3.org/1999/xlink" xmlns="http://www.w3.org/2000/svg" class="mainmenu-icon mainmenu-icon-k248" width="32"  height="32" ><defs><symbol id="k248" xmlns="http://www.w3.org/2000/svg" viewBox="0 0 32 32">
    <path d="M20.74,26.46c.81,0,1.47-.66,1.47-1.47s-.66-1.47-1.47-1.47-1.47,.66-1.47,1.47,.66,1.47,1.47,1.47Z"></path>
    <path d="M25.53,26.46c.81,0,1.47-.66,1.47-1.47s-.66-1.47-1.47-1.47-1.47,.66-1.47,1.47,.66,1.47,1.47,1.47Z"></path>
    <path d="M31.36,19l-.04-.04c-.44-.44-1.02-.68-1.64-.68h-5.33V9.51c0-.69-.56-1.25-1.25-1.25s-1.25,.56-1.25,1.25v8.77H2.32c-.6,0-1.16,.23-1.6,.64l-.04,.04c-.44,.44-.68,1.02-.68,1.64v9.09c0,.62,.24,1.2,.68,1.63,.44,.44,1.02,.68,1.64,.68H29.68c.61,0,1.19-.24,1.64-.68,.44-.44,.68-1.02,.68-1.63v-9.09c0-.6-.23-1.16-.64-1.59Zm-1.86,10.5H2.5v-8.73H29.5v8.73Z"></path>
    <path d="M16.01,26.46c.81,0,1.47-.66,1.47-1.47s-.66-1.47-1.47-1.47-1.47,.66-1.47,1.47,.66,1.47,1.47,1.47Z"></path>
    <path d="M19.71,5.44c-.44,.42-.79,.91-1.05,1.45-.23,.48-.02,1.05,.46,1.28,.48,.23,1.05,.02,1.28-.46,.16-.33,.37-.63,.64-.89,1.19-1.14,3.09-1.1,4.24,.09,.23,.24,.41,.51,.55,.81,.16,.35,.51,.56,.87,.56,.14,0,.27-.03,.4-.09,.48-.22,.69-.79,.47-1.28-.23-.49-.53-.94-.91-1.33-1.88-1.96-5-2.02-6.96-.15Z"></path>
    <path d="M15.11,6.64c.48,.23,1.05,.02,1.28-.46,.39-.83,.92-1.56,1.58-2.19,2.96-2.83,7.67-2.73,10.51,.22,.57,.59,1.03,1.27,1.37,2.01,.16,.35,.51,.56,.87,.56,.14,0,.27-.03,.4-.09,.48-.22,.69-.79,.47-1.28-.43-.93-1.02-1.78-1.73-2.53-3.57-3.72-9.5-3.85-13.23-.28-.83,.79-1.5,1.72-1.99,2.76-.23,.48-.02,1.05,.46,1.28Z"></path>
  </symbol></defs><use xlink:href="#k248" fill="#2C509A"></use></svg>