<svg xmlns:xlink="http://www.w3.org/1999/xlink" xmlns="http://www.w3.org/2000/svg" class="mainmenu-icon mainmenu-icon-k32" width="24"  height="32" ><defs><symbol id="k32" xmlns="http://www.w3.org/2000/svg" viewBox="0 0 24 32">
    <path d="M21.02,0H11.07c-1.16,0-2.26,.45-3.08,1.26L1.24,7.9c-.8,.79-1.24,1.83-1.24,2.95V29.07c0,1.62,1.34,2.93,2.98,2.93H21.02c1.64,0,2.98-1.32,2.98-2.93V2.93c0-1.62-1.34-2.93-2.98-2.93Zm.43,29.07c0,.24-.19,.43-.43,.43H2.98c-.24,0-.43-.19-.43-.43V10.85c0-.44,.18-.86,.49-1.17L9.79,3.03c.34-.33,.8-.52,1.28-.52h9.95c.24,0,.43,.19,.43,.43V29.07Z"></path>
    <rect x="17.24" y="4.69" width="1.85" height="6.42" rx=".7" ry=".7"></rect>
    <rect x="14.23" y="4.69" width="1.85" height="6.42" rx=".7" ry=".7"></rect>
    <rect x="11.22" y="4.69" width="1.85" height="6.42" rx=".7" ry=".7"></rect>
  </symbol></defs><use xlink:href="#k32"></use></svg>