<svg xmlns:xlink="http://www.w3.org/1999/xlink" xmlns="http://www.w3.org/2000/svg" class="mainmenu-icon mainmenu-icon-k264" width="32"  height="28" ><defs><symbol id="k264" xmlns="http://www.w3.org/2000/svg" viewBox="0 0 32 28">
    <path d="M30.06,8.27h-4.36V1.92c0-1.06-.87-1.92-1.94-1.92h-2.31c-1.07,0-1.94,.86-1.94,1.92v6.36h-7V1.92c0-1.06-.87-1.92-1.94-1.92h-2.31c-1.07,0-1.94,.86-1.94,1.92v6.36H1.94c-1.07,0-1.94,.86-1.94,1.92v7.62c0,1.06,.87,1.92,1.94,1.92H6.31v6.36c0,1.06,.87,1.92,1.94,1.92h2.31c1.07,0,1.94-.86,1.94-1.92v-6.36h7v6.36c0,1.06,.87,1.92,1.94,1.92h2.31c1.07,0,1.94-.86,1.94-1.92v-6.36h4.36c1.07,0,1.94-.86,1.94-1.92v-7.62c0-1.06-.87-1.92-1.94-1.92ZM2.5,17.26v-6.52h3.81v6.52H2.5Zm7.5,8.27h-1.19V2.47h1.19V25.53Zm2.5-8.27v-6.52h7v6.52h-7Zm10.7,8.27h-1.19V2.47h1.19V25.53Zm6.31-8.27h-3.81v-6.52h3.81v6.52Z"></path>
  </symbol></defs><use xlink:href="#k264" fill="#2C509A"></use></svg>