<svg xmlns:xlink="http://www.w3.org/1999/xlink" xmlns="http://www.w3.org/2000/svg" class="mainmenu-icon mainmenu-icon-k41" width="32"  height="26" ><defs><symbol id="k41" xmlns="http://www.w3.org/2000/svg" viewBox="0 0 32 26">
    <path d="M25.95,6.27c-.59-3.53-4.51-6.27-9.25-6.27h-1.4C10.56,0,6.65,2.74,6.05,6.27,2.52,7.62,0,11.07,0,15.12v1.42c0,5.22,4.19,9.46,9.33,9.46h13.33c5.15,0,9.33-4.25,9.33-9.46v-1.42c0-4.05-2.52-7.5-6.05-8.85ZM15.3,2.53h1.4c2.93,0,5.49,1.34,6.44,3.14-.16,0-.31-.02-.47-.02H9.33c-.16,0-.31,.02-.47,.02,.95-1.81,3.51-3.14,6.44-3.14Zm14.2,14c0,3.82-3.07,6.93-6.83,6.93H9.33c-3.77,0-6.83-3.11-6.83-6.93v-1.42c0-3.82,3.07-6.93,6.83-6.93h13.33c3.77,0,6.83,3.11,6.83,6.93v1.42Z"></path>
    <path d="M21.99,10.86c-2.7,0-4.9,2.23-4.9,4.97s2.2,4.97,4.9,4.97,4.9-2.23,4.9-4.97-2.2-4.97-4.9-4.97Zm0,7.91c-1.6,0-2.9-1.32-2.9-2.94s1.3-2.94,2.9-2.94,2.9,1.32,2.9,2.94-1.3,2.94-2.9,2.94Z"></path>
    <ellipse cx="21.99" cy="15.83" rx="1.14" ry="1.15"></ellipse>
    <path d="M10.01,10.86c-2.7,0-4.9,2.23-4.9,4.97s2.2,4.97,4.9,4.97,4.9-2.23,4.9-4.97-2.2-4.97-4.9-4.97Zm0,7.91c-1.6,0-2.9-1.32-2.9-2.94s1.3-2.94,2.9-2.94,2.9,1.32,2.9,2.94-1.3,2.94-2.9,2.94Z"></path>
    <ellipse cx="10.01" cy="15.83" rx="1.14" ry="1.15"></ellipse>
  </symbol></defs><use xlink:href="#k41"></use></svg>