<svg xmlns:xlink="http://www.w3.org/1999/xlink" xmlns="http://www.w3.org/2000/svg" class="mainmenu-icon mainmenu-icon-k287" width="21"  height="32" ><defs><symbol id="k287" xmlns="http://www.w3.org/2000/svg" viewBox="0 0 21 32">
    <path d="M21,3.91c0-1.56-1.25-2.84-2.78-2.84h-3.24c-.09-.6-.57-1.07-1.19-1.07H7.2c-.61,0-1.1,.47-1.19,1.07H2.78C1.25,1.07,0,2.35,0,3.91V29.16c0,1.56,1.25,2.84,2.78,2.84h15.44c1.53,0,2.78-1.27,2.78-2.84V3.91Zm-2.78,25.59H2.78c-.18,0-.33-.16-.33-.34V3.91c0-.18,.15-.34,.33-.34h15.44c.18,0,.33,.15,.33,.34V29.16c0,.18-.15,.34-.33,.34Z"></path>
    <path d="M13.25,19.22H7.74c-1.32,0-2.39,1.09-2.39,2.44v2.43c0,1.34,1.07,2.44,2.39,2.44h5.51c1.32,0,2.39-1.09,2.39-2.44v-2.43c0-1.34-1.07-2.44-2.39-2.44Zm.72,4.87c0,.4-.33,.74-.72,.74H7.74c-.39,0-.72-.34-.72-.74v-2.43c0-.41,.32-.74,.72-.74h5.51c.39,0,.72,.34,.72,.74v2.43Z"></path>
  </symbol></defs><use xlink:href="#k287"></use></svg>