<svg xmlns:xlink="http://www.w3.org/1999/xlink" xmlns="http://www.w3.org/2000/svg" class="mainmenu-icon mainmenu-icon-k5" width="32"  height="14" ><defs><symbol id="k5" xmlns="http://www.w3.org/2000/svg" viewBox="0 0 32 14">
    <path d="M28.23,0H3.77C1.69,0,0,1.66,0,3.71v6.59c0,2.04,1.69,3.71,3.77,3.71H28.23c2.08,0,3.77-1.66,3.77-3.71V3.71c0-2.04-1.69-3.71-3.77-3.71Zm1.27,10.29c0,.69-.57,1.25-1.27,1.25H3.77c-.7,0-1.27-.56-1.27-1.25V3.71c0-.69,.57-1.25,1.27-1.25H28.23c.7,0,1.27,.56,1.27,1.25v6.59Z"></path>
    <path d="M7.16,3.47c-1.99,0-3.6,1.59-3.6,3.53s1.62,3.53,3.6,3.53,3.6-1.59,3.6-3.53-1.62-3.53-3.6-3.53Zm0,5.11c-.88,0-1.6-.7-1.6-1.57s.72-1.57,1.6-1.57,1.6,.7,1.6,1.57-.72,1.57-1.6,1.57Z"></path>
    <rect x="12.85" y="5.8" width="2.24" height="4.16"></rect>
    <rect x="16.02" y="7.61" width="2.24" height="2.35"></rect>
    <rect x="19.19" y="3.36" width="2.24" height="6.6"></rect>
    <rect x="22.36" y="5.22" width="2.24" height="4.74"></rect>
    <rect x="25.53" y="7.3" width="2.24" height="2.66"></rect>
  </symbol></defs><use xlink:href="#k5"></use></svg>