<svg xmlns:xlink="http://www.w3.org/1999/xlink" xmlns="http://www.w3.org/2000/svg" class="mainmenu-icon mainmenu-icon-k223" width="30"  height="32" ><defs><symbol id="k223" xmlns="http://www.w3.org/2000/svg" viewBox="0 0 30 32">
    <path d="M26.58,0H3.42C1.53,0,0,1.57,0,3.49V28.51c0,1.93,1.53,3.49,3.42,3.49H26.58c1.89,0,3.42-1.57,3.42-3.49V3.49c0-1.93-1.53-3.49-3.42-3.49ZM3.42,2.5H26.58c.54,0,.97,.45,.97,.99v6.34H2.45V3.49c0-.55,.44-.99,.97-.99ZM21.19,15.76v3.91h-1.77v-1.66h-1.76v1.66h-1.77v-3.67h-1.76v3.67h-1.77v-4.24h-1.76v4.24h-1.77v-5.79h-1.76v5.79H2.45v-7.33H27.55v7.33h-4.6v-3.91h-1.76Zm5.39,13.74H3.42c-.54,0-.97-.45-.97-.99v-6.34H27.55v6.34c0,.55-.44,.99-.97,.99Z"></path>
    <ellipse cx="23.11" cy="25.8" rx="1.71" ry="1.75"></ellipse>
    <path d="M6.89,24.05c-.94,0-1.71,.79-1.71,1.75s.77,1.75,1.71,1.75,1.71-.79,1.71-1.75-.77-1.75-1.71-1.75Z"></path>
    <ellipse cx="23.11" cy="6.2" rx="1.71" ry="1.75"></ellipse>
    <rect x="7.11" y="5.3" width="11.09" height="1.8"></rect>
    <rect x="10.45" y="24.9" width="9.11" height="1.8"></rect>
  </symbol></defs><use xlink:href="#k223"></use></svg>