<svg xmlns:xlink="http://www.w3.org/1999/xlink" xmlns="http://www.w3.org/2000/svg" class="footer-links-app-icon google-play" width="179"  height="57" ><defs><symbol xmlns="http://www.w3.org/2000/svg" viewBox="0 0 179 57" id="google_play">
    <path d="M170.137 57H8.21831C3.67201 57 0 53.4794 0 49.2044V7.79559C0 3.52059 3.67201 0 8.21831 0H170.137C174.683 0 178.355 3.52059 178.355 7.79559V49.2044C178.355 53.4794 174.683 57 170.137 57ZM8.21831 1.67647C4.63373 1.67647 1.74858 4.44265 1.74858 7.79559V49.2044C1.74858 52.5574 4.63373 55.3235 8.21831 55.3235H170.137C173.721 55.3235 176.606 52.5574 176.606 49.2044V7.79559C176.606 4.35882 173.721 1.67647 170.137 1.67647H8.21831Z"></path>
    <path d="M39.2556 24.4763L27.8898 18.6924C27.3652 18.441 26.6658 18.3572 26.1412 18.6086L35.8458 27.8292L39.2556 24.4763ZM43.5396 26.6557L40.2173 24.9792L36.5453 28.4998L40.2173 32.0204L43.5396 30.3439C44.5887 29.841 45.0259 28.5836 44.5013 27.5777C44.239 27.1586 43.8893 26.8233 43.5396 26.6557ZM25.1795 19.1116C24.8298 19.5307 24.5675 20.0336 24.6549 20.5366V36.463C24.6549 36.966 24.8298 37.4689 25.1795 37.888L35.059 28.4998L25.1795 19.1116ZM26.0538 38.391C26.6658 38.5586 27.2778 38.5586 27.8024 38.3072L39.1681 32.5233L35.671 29.2542L26.0538 38.391ZM67.5825 22.2969C67.1454 21.9616 66.5333 21.7939 65.9213 21.7101C65.4842 21.6263 64.7848 21.6263 63.9105 21.6263H58.7522V34.6189H60.763V29.338H64.0853C66.0088 29.338 67.3202 28.9189 68.1071 28.1645C68.8065 27.4101 69.2436 26.488 69.2436 25.3145C69.2436 24.6439 69.0688 24.0572 68.8065 23.5542C68.3694 22.9674 68.0196 22.5483 67.5825 22.2969ZM63.9979 27.5777H60.6756V23.2189H63.9979C64.7848 23.2189 65.3093 23.2189 65.5716 23.3027C66.0088 23.3866 66.3585 23.638 66.6208 23.9733C66.8831 24.3086 67.0579 24.8116 67.0579 25.3145C67.0579 25.9851 66.7956 26.5719 66.3585 26.991C65.9213 27.4101 65.1345 27.5777 63.9979 27.5777ZM70.9048 21.5424H72.7408V34.5351H70.9048V21.5424ZM83.1448 33.2777C83.0574 32.8586 83.0574 31.9366 83.0574 30.5116V28.416C83.0574 27.7454 83.0574 27.2424 82.97 26.991C82.8825 26.5719 82.7077 26.1527 82.4454 25.9013C82.1831 25.566 81.8334 25.3983 81.3088 25.1469C80.7842 24.9792 80.0848 24.8954 79.298 24.8954C78.4237 24.8954 77.7242 24.9792 77.1122 25.2307C76.5002 25.4822 75.9757 25.8174 75.6259 26.2366C75.2762 26.6557 75.0139 27.1586 74.9265 27.8292V27.913L76.7625 28.1645V28.0807C76.9374 27.4939 77.1997 26.991 77.5494 26.7395C77.8991 26.488 78.4237 26.4042 79.2105 26.4042C79.9974 26.4042 80.6094 26.5719 80.9591 26.9072C81.2214 27.1586 81.3962 27.5777 81.3962 28.1645V28.4998C80.7842 28.6674 79.8225 28.8351 78.5985 29.0027C77.9865 29.0866 77.4619 29.1704 77.1122 29.2542C76.6751 29.338 76.238 29.5895 75.8882 29.7572C75.5385 30.0086 75.1888 30.3439 75.0139 30.6792C74.7517 31.0983 74.6642 31.5174 74.6642 31.9366C74.6642 32.7748 74.9265 33.3616 75.5385 33.9483C76.1505 34.4513 76.9374 34.7027 78.074 34.7027C78.686 34.7027 79.3854 34.6189 79.91 34.3674C80.4345 34.1998 80.9591 33.8645 81.5711 33.4454C81.6585 33.7807 81.746 34.116 81.9208 34.4513V34.5351H83.8443L83.582 34.3674C83.4071 33.9483 83.2323 33.613 83.1448 33.2777ZM81.2214 29.9248V30.3439C81.2214 31.0145 81.134 31.5174 80.9591 31.8527C80.6968 32.2719 80.4345 32.6072 79.91 32.8586C79.4728 33.1101 78.8608 33.2777 78.2488 33.2777C77.6368 33.2777 77.1997 33.1101 76.85 32.8586C76.5002 32.6072 76.4128 32.2719 76.4128 31.8527C76.4128 31.6013 76.5002 31.3498 76.5877 31.1822C76.7625 31.0145 76.9374 30.8469 77.1997 30.6792C77.462 30.5954 77.8991 30.4277 78.5985 30.3439C79.7351 30.2601 80.6094 30.0924 81.2214 29.9248ZM89.6146 30.5116C89.4397 31.0983 89.1774 31.6851 89.0026 32.2719C88.8277 31.6851 88.6528 31.0983 88.3906 30.5116L86.3797 25.1469V25.063H84.3688L88.0408 34.4513C87.9534 34.6189 87.9534 34.7027 87.866 34.7866C87.6037 35.3733 87.5163 35.7924 87.3414 35.9601C87.254 36.1277 87.0791 36.2954 86.8168 36.3792C86.4671 36.5469 85.9426 36.6307 85.0683 36.3792H84.8934L85.0683 38.0557H85.1557C85.5928 38.2233 85.9425 38.2233 86.2048 38.2233C86.7294 38.2233 87.254 38.0557 87.6037 37.8042C87.9534 37.5527 88.3031 37.1336 88.6528 36.6307C88.9151 36.2116 89.1774 35.541 89.6146 34.5351L93.2866 25.1469L93.374 24.9792H91.538L89.6146 30.5116ZM107.1 30.4277C106.838 31.0983 106.663 31.6851 106.488 32.188C106.401 31.7689 106.139 31.266 105.964 30.5954L102.816 21.5424V21.4586H100.019V34.4513H101.942V24.141L105.614 34.3674V34.4513H107.363L111.035 24.3086V34.4513H112.958V21.5424H110.423L107.1 30.4277ZM123.45 33.2777C123.362 32.8586 123.362 31.9366 123.362 30.5116V28.416C123.362 27.7454 123.362 27.2424 123.275 26.991C123.187 26.5719 123.012 26.1527 122.75 25.9013C122.488 25.566 122.138 25.3983 121.614 25.1469C121.089 24.9792 120.39 24.8954 119.603 24.8954C118.728 24.8954 118.029 24.9792 117.417 25.2307C116.805 25.4822 116.28 25.8174 115.931 26.2366C115.581 26.6557 115.319 27.1586 115.231 27.8292V27.913L117.067 28.1645V28.0807C117.242 27.4939 117.504 26.991 117.854 26.7395C118.204 26.488 118.728 26.4042 119.515 26.4042C120.302 26.4042 120.914 26.5719 121.264 26.9072C121.526 27.1586 121.701 27.5777 121.701 28.1645V28.4998C121.089 28.6674 120.127 28.8351 118.903 29.0027C118.291 29.0866 117.767 29.1704 117.417 29.2542C116.98 29.338 116.543 29.5895 116.193 29.7572C115.843 30.0086 115.493 30.3439 115.319 30.6792C115.056 31.0983 114.969 31.5174 114.969 31.9366C114.969 32.7748 115.231 33.3616 115.843 33.9483C116.455 34.4513 117.242 34.7027 118.379 34.7027C118.991 34.7027 119.69 34.6189 120.215 34.3674C120.739 34.1998 121.264 33.8645 121.876 33.4454C121.963 33.7807 122.051 34.116 122.226 34.4513V34.5351H124.149L124.062 34.3674C123.624 33.9483 123.45 33.613 123.45 33.2777ZM121.439 29.9248V30.3439C121.439 31.0145 121.351 31.5174 121.176 31.8527C121.002 32.2719 120.652 32.6072 120.127 32.8586C119.69 33.1101 119.078 33.2777 118.466 33.2777C117.854 33.2777 117.417 33.1101 117.067 32.8586C116.717 32.6072 116.63 32.2719 116.63 31.8527C116.63 31.6013 116.718 31.3498 116.805 31.1822C116.98 31.0145 117.155 30.8469 117.417 30.6792C117.679 30.5954 118.116 30.4277 118.816 30.3439C120.04 30.2601 120.827 30.0924 121.439 29.9248ZM129.307 24.8116C128.87 24.8116 128.52 24.8954 128.171 25.1469C127.908 25.3145 127.646 25.6498 127.296 26.1527V25.063H125.635V34.5351H127.471V29.5895C127.471 28.9189 127.559 28.3322 127.734 27.8292C127.821 27.4939 127.996 27.2424 128.346 26.991C128.87 26.5719 129.657 26.6557 130.356 26.991L130.444 27.0748L131.056 25.3983L130.968 25.3145C130.444 24.9792 129.832 24.8116 129.307 24.8116ZM139.799 25.063H137.351L133.679 28.6674V21.5424H131.843V34.4513H133.679V30.763L134.728 29.841L137.788 34.4513H140.148L136.039 28.5836L139.799 25.063ZM145.132 24.8116C143.82 24.8116 142.684 25.2307 141.81 26.1527C140.935 26.991 140.498 28.2483 140.498 29.841C140.498 31.3498 140.935 32.6072 141.81 33.4454C142.684 34.2836 143.82 34.7027 145.219 34.7027C146.356 34.7027 147.318 34.4513 148.017 33.8645C148.716 33.3616 149.241 32.6072 149.503 31.6013V31.5174L147.58 31.266V31.3498C147.318 32.0204 147.055 32.4395 146.618 32.7748C146.181 33.0263 145.744 33.1939 145.132 33.1939C144.345 33.1939 143.733 32.9424 143.208 32.4395C142.684 31.9366 142.422 31.1822 142.334 30.2601H149.503V29.7572C149.503 28.2483 149.066 26.991 148.279 26.1527C147.58 25.2307 146.443 24.8116 145.132 24.8116ZM142.596 28.7513C142.684 27.9969 142.946 27.4101 143.383 26.991C143.908 26.5719 144.52 26.3204 145.219 26.3204C146.006 26.3204 146.618 26.5719 147.143 27.1586C147.405 27.4939 147.667 28.0807 147.755 28.7513H142.596ZM155.186 32.8586H155.099C154.487 32.9424 154.137 32.9424 153.875 32.8586L153.612 32.6072C153.612 32.5233 153.525 32.3557 153.525 31.7689V26.488H155.186V25.063H153.525V21.7939L151.689 22.8836V25.1469H150.465V26.5719H151.689V31.7689C151.689 32.691 151.776 33.3616 151.864 33.6969C152.039 34.0322 152.214 34.2836 152.563 34.4513C152.913 34.6189 153.35 34.7027 153.962 34.7027C154.312 34.7027 154.749 34.6189 155.186 34.5351H155.274L155.186 32.8586Z"></path>
  </symbol></defs><use xlink:href="#google_play" fill="#2D519B"></use></svg>