<svg xmlns:xlink="http://www.w3.org/1999/xlink" xmlns="http://www.w3.org/2000/svg" class="mainmenu-icon mainmenu-icon-k12" width="32"  height="30" ><defs><symbol id="k12" xmlns="http://www.w3.org/2000/svg" viewBox="0 0 32 30">
    <path d="M29.81,0h-9.8c-1.21,0-2.19,.99-2.19,2.21V21.51c0,1.22,.98,2.21,2.19,2.21h3.65v3.77h-1.53c-.69,0-1.25,.56-1.25,1.26s.56,1.26,1.25,1.26h5.56c.69,0,1.25-.56,1.25-1.26s-.56-1.26-1.25-1.26h-1.53v-3.77h3.65c1.21,0,2.19-.99,2.19-2.21V2.21c0-1.22-.98-2.21-2.19-2.21Zm-.31,21.2h-9.18V2.52h9.18V21.2Z"></path>
    <path d="M11.99,0H2.19C.98,0,0,.99,0,2.21V21.51c0,1.22,.98,2.21,2.19,2.21h3.65v3.77h-1.53c-.69,0-1.25,.56-1.25,1.26s.56,1.26,1.25,1.26h5.56c.69,0,1.25-.56,1.25-1.26s-.56-1.26-1.25-1.26h-1.53v-3.77h3.65c1.21,0,2.19-.99,2.19-2.21V2.21c0-1.22-.98-2.21-2.19-2.21Zm-.31,21.2H2.5V2.52H11.68V21.2Z"></path>
    <path d="M7.09,10.05c1.44,0,2.62-1.18,2.62-2.63s-1.17-2.63-2.62-2.63-2.62,1.18-2.62,2.63,1.17,2.63,2.62,2.63Zm0-3.46c.45,0,.82,.37,.82,.82s-.37,.82-.82,.82-.82-.37-.82-.82,.37-.82,.82-.82Z"></path>
    <path d="M7.09,18.94c2.08,0,3.78-1.71,3.78-3.8s-1.7-3.8-3.78-3.8-3.78,1.71-3.78,3.8,1.7,3.8,3.78,3.8Zm0-5.8c1.09,0,1.98,.89,1.98,1.99s-.89,1.99-1.98,1.99-1.98-.89-1.98-1.99,.89-1.99,1.98-1.99Z"></path>
    <path d="M24.91,10.05c1.44,0,2.62-1.18,2.62-2.63s-1.17-2.63-2.62-2.63-2.62,1.18-2.62,2.63,1.17,2.63,2.62,2.63Zm0-3.46c.45,0,.82,.37,.82,.82s-.37,.82-.82,.82-.82-.37-.82-.82,.37-.82,.82-.82Z"></path>
    <path d="M24.91,18.94c2.08,0,3.78-1.71,3.78-3.8s-1.7-3.8-3.78-3.8-3.78,1.71-3.78,3.8,1.7,3.8,3.78,3.8Zm0-5.8c1.09,0,1.98,.89,1.98,1.99s-.89,1.99-1.98,1.99-1.98-.89-1.98-1.99,.89-1.99,1.98-1.99Z"></path>
  </symbol></defs><use xlink:href="#k12"></use></svg>