<svg xmlns:xlink="http://www.w3.org/1999/xlink" xmlns="http://www.w3.org/2000/svg" class="mainmenu-icon mainmenu-icon-k129" width="30"  height="32" ><defs><symbol id="k129" xmlns="http://www.w3.org/2000/svg" viewBox="0 0 30 32">
    <path d="M22.61,22.54c-.84,0-1.62,.25-2.3,.65l-.74-.64,1.32-1.13c.52-.45,.58-1.23,.14-1.76-.05-.07-.13-.1-.19-.15,5.09-.24,9.16-4.51,9.16-9.74S25.69,0,20.4,0h-1.13c-.68,0-1.23,.56-1.23,1.25v7.02H7.36L1.85,5c-.59-.35-1.34-.15-1.68,.45-.34,.6-.14,1.36,.44,1.71l5.3,3.15c.26,4.79,3.93,8.68,8.58,9.17-.07,.06-.15,.1-.22,.17-.44,.53-.37,1.32,.14,1.76l1.33,1.14-.74,.64c-.68-.4-1.46-.65-2.31-.65-2.57,0-4.65,2.12-4.65,4.73s2.09,4.73,4.65,4.73,4.65-2.12,4.65-4.73c0-.84-.23-1.61-.61-2.3l.91-.79,.91,.78c-.38,.68-.61,1.46-.61,2.3,0,2.61,2.09,4.73,4.65,4.73s4.65-2.12,4.65-4.73-2.09-4.73-4.65-4.73Zm-9.9,6.96c-1.21,0-2.19-1-2.19-2.23s.98-2.23,2.19-2.23,2.19,1,2.19,2.23-.98,2.23-2.19,2.23ZM8.42,10.77h10.85c.68,0,1.23-.56,1.23-1.25V2.5c3.89,.06,7.04,3.29,7.04,7.26s-3.21,7.26-7.15,7.26h-4.9c-3.6,0-6.59-2.73-7.08-6.26Zm7.63,8.76h3.23l-1.61,1.39-1.61-1.39Zm6.56,9.98c-1.21,0-2.19-1-2.19-2.23s.98-2.23,2.19-2.23,2.19,1,2.19,2.23-.98,2.23-2.19,2.23Z"></path>
  </symbol></defs><use xlink:href="#k129"></use></svg>