<svg xmlns:xlink="http://www.w3.org/1999/xlink" xmlns="http://www.w3.org/2000/svg" class="mainmenu-icon mainmenu-icon-k349" width="32"  height="25" ><defs><symbol id="k349" xmlns="http://www.w3.org/2000/svg" viewBox="0 0 32 25">
    <path d="M31.88,2.3c-.13-1.09-.95-1.95-2.01-2.13-.3-.1-.6-.16-.93-.16H3.06C1.37,0,0,1.39,0,3.1v15.15c0,3.73,3,6.76,6.68,6.76H25.32c3.68,0,6.68-3.03,6.68-6.76V3.1c0-.28-.05-.54-.12-.8Zm-2.42,11.21l-26.68,.05V2.65l26.41-.05c.09,.05,.17,.12,.22,.22l.05,10.69Zm-10.03,2.53v6.44h-6.66v-6.44h6.66ZM2.5,18.24v-2.23c.08,0,.15,.02,.23,.02h7.53v6.44h-3.59c-2.31,0-4.18-1.9-4.18-4.23Zm22.82,4.23h-3.39v-6.44h7.53s.03,0,.04,0v2.21c0,2.33-1.88,4.23-4.18,4.23Z"></path>
    <path d="M8.37,5.46c-.85-.14-1.65,.44-1.78,1.3-.14,.86,.44,1.66,1.28,1.8,.85,.14,1.65-.44,1.78-1.3,.14-.86-.44-1.66-1.28-1.8Z"></path>
    <path d="M12.97,5.46c-.85-.14-1.65,.44-1.78,1.3-.14,.86,.44,1.66,1.28,1.8,.85,.14,1.65-.44,1.78-1.3,.14-.86-.44-1.66-1.28-1.8Z"></path>
    <path d="M26.25,8.78h-7.91c-.55,0-1,.45-1,1.01s.45,1.01,1,1.01h7.91c.55,0,1-.45,1-1.01s-.45-1.01-1-1.01Z"></path>
    <path d="M26.25,5.38h-7.91c-.55,0-1,.45-1,1.01s.45,1.01,1,1.01h7.91c.55,0,1-.45,1-1.01s-.45-1.01-1-1.01Z"></path>
  </symbol></defs><use xlink:href="#k349" fill="#2C509A"></use></svg>