<svg xmlns:xlink="http://www.w3.org/1999/xlink" xmlns="http://www.w3.org/2000/svg" class="mainmenu-icon mainmenu-icon-k604" width="32"  height="27" ><defs><symbol id="k604" xmlns="http://www.w3.org/2000/svg" viewBox="0 0 32 27">
    <path d="M23.99,10.09l-.58-5.68c-.24-2.37-2.13-4.16-4.49-4.26L15.5,0c-.68-.03-1.27,.51-1.3,1.21-.03,.7,.51,1.28,1.2,1.31l3.42,.15c1.11,.05,1.99,.89,2.11,2l.11,1.09c-3.28,1.29-6.24,3.15-8.99,5.65-.51-.42-.88-.85-1.12-1.31h1.28c.69,0,1.25-.56,1.25-1.26s-.56-1.26-1.25-1.26H6.95c-.07,0-.13-.06-.13-.14v-1.84c0-.7-.56-1.26-1.25-1.26s-1.25,.56-1.25,1.26v1.84c0,1.47,1.18,2.66,2.63,2.66h1.3c.29,1.14,.95,2.16,1.99,3.08-.79,.83-1.56,1.73-2.32,2.68-.67-.28-1.41-.44-2.18-.44-3.17,0-5.74,2.6-5.74,5.79s2.57,5.79,5.74,5.79,5.74-2.6,5.74-5.79c0-1.5-.57-2.87-1.51-3.89,3.39-4.23,7.08-7.14,11.33-8.94l.2,1.97c-3.61,.95-6.29,4.25-6.29,8.19,0,4.67,3.77,8.47,8.4,8.47s8.4-3.8,8.4-8.47-3.56-8.24-8.01-8.45Zm-15.01,11.12c0,1.8-1.45,3.27-3.24,3.27s-3.24-1.47-3.24-3.27,1.45-3.27,3.24-3.27c.2,0,.39,.02,.58,.06-.55,.78-1.1,1.59-1.63,2.44-.37,.59-.2,1.37,.38,1.74,.21,.13,.44,.2,.67,.2,.41,0,.82-.21,1.06-.58,.53-.85,1.07-1.65,1.62-2.42,.35,.52,.56,1.16,.56,1.84Zm14.63,3.27c-3.25,0-5.9-2.67-5.9-5.94,0-2.63,1.7-4.86,4.05-5.64l.6,5.95c.07,.65,.61,1.13,1.24,1.13,.04,0,.09,0,.13,0,.69-.07,1.19-.69,1.12-1.38l-.6-5.97c2.95,.32,5.26,2.85,5.26,5.91,0,3.28-2.64,5.94-5.9,5.94Z"></path>
  </symbol></defs><use xlink:href="#k604" fill="#2C509A"></use></svg>