<svg xmlns:xlink="http://www.w3.org/1999/xlink" xmlns="http://www.w3.org/2000/svg" class="mainmenu-icon mainmenu-icon-k543" width="32"  height="30" ><defs><symbol id="k543" xmlns="http://www.w3.org/2000/svg" viewBox="0 0 32 30">
    <path d="M31.63,15.25L16.88,.37c-.49-.49-1.28-.49-1.77,0L.37,15.25c-.49,.49-.49,1.29,0,1.78s1.28,.49,1.77,0l1.45-1.46v10.22c0,2.32,1.87,4.21,4.18,4.21H24.24c2.3,0,4.17-1.89,4.17-4.21V15.57l1.45,1.46c.24,.25,.56,.37,.88,.37s.64-.12,.88-.37c.49-.49,.49-1.29,0-1.78Zm-5.72,10.54c0,.93-.75,1.69-1.67,1.69H7.76c-.92,0-1.68-.76-1.68-1.69V13.05L16,3.04l9.92,10v12.74Z"></path>
    <path d="M10.72,17.6c-.38,.32-.43,.89-.12,1.28,.32,.38,.89,.44,1.27,.12,2.41-2.02,5.9-2.02,8.3,0,.17,.14,.37,.21,.58,.21,.26,0,.51-.11,.69-.33,.32-.39,.27-.96-.12-1.28-3.07-2.58-7.53-2.58-10.61,0Z"></path>
    <path d="M8.22,16.5c.33,.38,.9,.41,1.27,.08,3.71-3.3,9.31-3.3,13.02,0,.17,.15,.38,.23,.59,.23,.25,0,.5-.1,.67-.31,.33-.38,.29-.95-.08-1.28-4.39-3.9-11.01-3.9-15.4,0-.37,.33-.41,.91-.08,1.28Z"></path>
    <path d="M13.15,19.97c-.41,.29-.5,.86-.21,1.27,.29,.41,.85,.51,1.25,.21,1.08-.78,2.54-.78,3.62,0,.16,.11,.34,.17,.52,.17,.28,0,.56-.13,.73-.38,.29-.41,.19-.98-.21-1.27-1.71-1.22-4-1.22-5.71,0Z"></path>
    <path d="M16.83,22.99c-.02-.05-.05-.1-.08-.15-.04-.05-.07-.1-.12-.14-.08-.08-.18-.15-.29-.19-.21-.09-.46-.09-.68,0-.11,.04-.22,.11-.3,.19-.08,.09-.15,.19-.19,.29-.02,.06-.04,.12-.05,.17,0,.06-.02,.12-.02,.18,0,.24,.1,.47,.26,.65,.08,.08,.19,.15,.3,.19,.1,.05,.22,.07,.34,.07s.23-.02,.34-.07c.11-.05,.21-.11,.29-.19,.17-.17,.27-.4,.27-.65,0-.06,0-.12-.02-.18,0-.05-.03-.11-.05-.17Z"></path>
  </symbol></defs><use xlink:href="#k543"></use></svg>