<svg xmlns:xlink="http://www.w3.org/1999/xlink" xmlns="http://www.w3.org/2000/svg" class="mainmenu-icon mainmenu-icon-k266" width="23"  height="32" ><defs><symbol id="k266" xmlns="http://www.w3.org/2000/svg" viewBox="0 0 23 32">
    <path d="M15.74,0H1.91C.86,0,0,.86,0,1.92V13.69c0,1.06,.86,1.92,1.91,1.92h7.99v3.41h-3.26v9.55h3.26v3.43h3.01c4,0,7.26-3.28,7.26-7.31V15.61h.92c1.05,0,1.91-.86,1.91-1.92V7.31c0-4.03-3.26-7.31-7.26-7.31ZM2.48,2.5h2.11V13.11H2.48V2.5Zm6.64,23.57v-4.55h.77v4.55h-.77Zm8.56-1.38c0,2.65-2.14,4.81-4.78,4.81h-.53V15.61h5.3v9.08Zm2.83-11.58H5.73V2.5H15.74c2.63,0,4.78,2.16,4.78,4.81v5.8Z"></path>
    <path d="M16.59,8.55c-.95,0-1.72,.78-1.72,1.73s.77,1.73,1.72,1.73,1.72-.78,1.72-1.73-.77-1.73-1.72-1.73Z"></path>
  </symbol></defs><use xlink:href="#k266"></use></svg>