<svg xmlns:xlink="http://www.w3.org/1999/xlink" xmlns="http://www.w3.org/2000/svg" class="mainmenu-icon mainmenu-icon-k229" width="19"  height="32" ><defs><symbol id="k229" xmlns="http://www.w3.org/2000/svg" viewBox="0 0 19 32">
    <path d="M9.5,21.63c-1.51,0-2.74,1.23-2.74,2.75s1.23,2.75,2.74,2.75,2.74-1.23,2.74-2.75-1.23-2.75-2.74-2.75Zm0,3.79c-.57,0-1.03-.47-1.03-1.04s.46-1.04,1.03-1.04,1.03,.47,1.03,1.04-.46,1.04-1.03,1.04Z"></path>
    <path d="M18.97,29.6l-2.02-9.73,1.37-8.45c.06-.63-.15-1.24-.59-1.72-.46-.51-1.12-.8-1.8-.8H3.07c-.69,0-1.34,.29-1.81,.8-.44,.48-.64,1.09-.58,1.81l1.36,8.36L.02,29.65c-.09,.56,.07,1.13,.45,1.58,.41,.49,1.04,.78,1.68,.78h14.7c.64,0,1.27-.29,1.68-.78,.38-.44,.54-1.02,.44-1.63Zm-16.34-.11l1.93-9.33c.03-.15,.04-.31,0-.46l-1.35-8.27,12.56-.02-1.35,8.29c-.03,.15-.02,.31,0,.46l1.93,9.33H2.63Z"></path>
    <path d="M6.98,8.11s.07,0,.1,0c.55-.05,.96-.55,.9-1.1-.14-1.4,.09-1.5,.77-1.77,1.24-.5,2.44-1.25,2.26-4.28-.03-.56-.51-.98-1.07-.94-.55,.03-.98,.51-.94,1.07,.11,1.84-.28,2-1,2.29-1.17,.47-2.29,1.16-2.02,3.84,.05,.52,.49,.91,1,.91Z"></path>
    <path d="M10.51,7.2c.05,.52,.49,.91,1,.91,.03,0,.07,0,.1,0,.55-.06,.96-.55,.9-1.1-.14-1.4,.09-1.5,.77-1.77,1.24-.5,2.44-1.25,2.25-4.28-.03-.56-.5-.98-1.07-.94-.55,.03-.97,.51-.94,1.07,.11,1.84-.28,2-1,2.29-1.17,.47-2.29,1.16-2.02,3.84Z"></path>
  </symbol></defs><use xlink:href="#k229" fill="#2C509A"></use></svg>