<svg xmlns:xlink="http://www.w3.org/1999/xlink" xmlns="http://www.w3.org/2000/svg" class="mainmenu-icon mainmenu-icon-k809" width="32.02"  height="32" ><defs><symbol id="k809" xmlns="http://www.w3.org/2000/svg" viewBox="0 0 32.02 32">
    <path d="M31.27,2.44l-1.71-1.71c-.97-.97-2.67-.97-3.64,0l-3.58,3.58c-.49,.48-.75,1.13-.75,1.82s.26,1.31,.73,1.79l-3.33,3.33c-1.06-.98-2.44-1.61-3.85-1.72-1.63-.13-3.13,.41-4.22,1.51-.77,.77-1.19,1.49-1.52,2.06-.4,.69-.53,.86-.86,.98-.31,.12-.68,.22-1.1,.34-1.37,.39-3.24,.92-4.79,2.2C.42,18.45-.44,21.01,.22,23.81c.86,3.68,4.29,7.11,7.97,7.97,.62,.14,1.22,.22,1.8,.22,2.09,0,3.96-.9,5.4-2.64,1.28-1.55,1.81-3.42,2.2-4.79,.12-.42,.22-.79,.34-1.1,.13-.33,.3-.46,.98-.86,.57-.33,1.28-.75,2.06-1.52,2.12-2.12,2-5.7-.22-8.08l3.33-3.33c.5,.48,1.14,.73,1.79,.73s1.32-.25,1.82-.75l3.58-3.58c1-1,1-2.63,0-3.64Zm-12.07,16.89c-.54,.54-1.06,.84-1.55,1.13-.76,.44-1.61,.94-2.06,2.14-.14,.36-.26,.81-.4,1.3-.34,1.22-.77,2.73-1.72,3.87-1.54,1.86-3.41,1.89-4.7,1.58-2.77-.65-5.46-3.33-6.11-6.11-.3-1.3-.28-3.16,1.58-4.7,1.14-.95,2.66-1.37,3.87-1.72,.5-.14,.94-.27,1.3-.4,1.19-.45,1.69-1.31,2.13-2.06,.29-.49,.59-1,1.13-1.55,.52-.52,1.22-.79,2-.79,.09,0,.17,0,.26,0,.9,.07,1.8,.49,2.45,1.15l1.44,1.44c1.23,1.23,1.67,3.42,.36,4.72Zm6.73-11.44s-.07,.03-.1,0l-.47-.47-.78-.78-.47-.57,3.68-3.58,1.71,1.81-3.58,3.58Z"></path>
    <path d="M7.53,20.63c-.49-.49-1.28-.49-1.77,0s-.49,1.28,0,1.77l3.84,3.84c.24,.24,.56,.37,.88,.37s.64-.12,.88-.37c.49-.49,.49-1.28,0-1.77l-3.84-3.84Z"></path>
    <path d="M12.95,16.3c-.76,.76-.76,1.99,0,2.75,.76,.76,1.99,.76,2.75,0,.76-.76,.76-1.99,0-2.75-.76-.76-1.99-.76-2.75,0Z"></path>
  </symbol></defs><use xlink:href="#k809"></use></svg>