<svg xmlns:xlink="http://www.w3.org/1999/xlink" xmlns="http://www.w3.org/2000/svg" class="mainmenu-icon mainmenu-icon-k557" width="32"  height="25" ><defs><symbol id="k557" xmlns="http://www.w3.org/2000/svg" viewBox="0 0 32 25">
    <path d="M20.49,3.65c-.55,0-1,.46-1,1.02v3.78c0,.56,.45,1.02,1,1.02s1-.46,1-1.02v-3.78c0-.56-.45-1.02-1-1.02Z"></path>
    <path d="M23.69,3.65c-.55,0-1,.46-1,1.02v3.78c0,.56,.45,1.02,1,1.02s1-.46,1-1.02v-3.78c0-.56-.45-1.02-1-1.02Z"></path>
    <path d="M32,6.56c0-3.62-2.89-6.56-6.45-6.56H14.43c-1.35,0-2.51,.84-3.01,2.03h-3.09c-2.02,0-3.71,1.38-4.25,3.26H1.25c-.69,0-1.25,.57-1.25,1.27s.56,1.27,1.25,1.27h2.83c.54,1.88,2.23,3.26,4.25,3.26h3.09c.5,1.19,1.66,2.03,3.01,2.03h2.81l.3,1.41c.21,.97,.94,1.62,1.83,1.62h1.09l1.7,6.76c.31,1.23,1.33,2.1,2.48,2.1h3.03c.71,0,1.39-.33,1.81-.89,.4-.53,.54-1.2,.38-1.84l-2.38-9.46c2.63-.84,4.53-3.35,4.53-6.26Zm-20.84,1.99h-2.83c-1.08,0-1.95-.89-1.95-1.99s.88-1.99,1.95-1.99h2.83v3.97Zm3.95,2.03h-.68c-.42,0-.77-.36-.77-.78V3.32c0-.42,.35-.78,.77-.78h.68V10.57Zm10.73-.01l-1.49,.12,2.96,11.78h-2.62s-.09-.07-.12-.18l-2.95-11.7h-.22v-.04l-1.54,.04h-3.07V2.54h8.74c2.18,0,3.95,1.8,3.95,4.01,0,2.09-1.61,3.85-3.66,4Z"></path>
  </symbol></defs><use xlink:href="#k557" fill="#2C509A"></use></svg>