<svg xmlns:xlink="http://www.w3.org/1999/xlink" xmlns="http://www.w3.org/2000/svg" class="mainmenu-icon mainmenu-icon-k135" width="22"  height="32" ><defs><symbol id="k135" xmlns="http://www.w3.org/2000/svg" viewBox="0 0 22 32">
    <path d="M16.18,12.21H5.82c-.89,0-1.79-.42-2.33-1.09-.46-.57-.63-1.26-.48-1.94l1.49-6.69c.34-1.51,1.44-2.49,2.81-2.49h7.38c1.37,0,2.47,.98,2.81,2.49l1.49,6.69c.15,.68-.02,1.37-.48,1.94-.54,.67-1.43,1.09-2.33,1.09Zm-10.68-2.61c.07,.05,.2,.11,.32,.11h10.36c.13,0,.25-.06,.32-.11l-1.46-6.57s-.12-.53-.35-.53H7.31c-.23,0-.35,.51-.35,.53l-1.46,6.57Z"></path>
    <path d="M12.62,23.6h-3.24c-1.1,0-2-.89-2-1.99v-2.83c0-.13-.11-.23-.24-.23H1.65c-.91,0-1.65-.74-1.65-1.64v-2.35c0-.91,.74-1.64,1.65-1.64H20.35c.91,0,1.65,.74,1.65,1.64v2.35c0,.91-.74,1.64-1.65,1.64h-5.49c-.13,0-.24,.11-.24,.23v2.83c0,1.1-.9,1.99-2,1.99Zm-2.73-2.5h2.22v-2.32c0-1.51,1.23-2.73,2.75-2.73h4.63v-.64H2.51v.64H7.14c1.51,0,2.75,1.23,2.75,2.73v2.32Z"></path>
    <g>
      <path d="M1.85,32c-.09,0-.19-.01-.28-.03-.68-.16-1.1-.83-.94-1.5l2.42-10.4c.16-.67,.83-1.09,1.51-.94,.68,.16,1.1,.83,.94,1.5l-2.42,10.4c-.13,.58-.65,.97-1.22,.97Z"></path>
      <path d="M20.15,32c-.57,0-1.09-.39-1.22-.97l-2.42-10.4c-.16-.67,.27-1.34,.94-1.5,.69-.16,1.35,.26,1.51,.94l2.42,10.4c.16,.67-.27,1.34-.94,1.5-.1,.02-.19,.03-.28,.03Z"></path>
    </g>
  </symbol></defs><use xlink:href="#k135" fill="#2C509A"></use></svg>