<svg xmlns:xlink="http://www.w3.org/1999/xlink" xmlns="http://www.w3.org/2000/svg" class="mainmenu-icon mainmenu-icon-k385" width="32"  height="28" ><defs><symbol id="k385" xmlns="http://www.w3.org/2000/svg" viewBox="0 0 32 28">
    <path d="M29.31,19.36h-.25V9.89h.25c1.48,0,2.69-1.22,2.69-2.72s-1.21-2.72-2.69-2.72h-.25v-1.43c0-1.67-1.35-3.03-3.01-3.03h-.53c-1.66,0-3.01,1.36-3.01,3.03v1.43h-1.63v-1.43c0-1.67-1.35-3.03-3.01-3.03h-.53c-1.66,0-3.01,1.36-3.01,3.03v1.43h-1.63v-1.43c0-1.67-1.35-3.03-3.01-3.03h-.53c-1.66,0-3.01,1.36-3.01,3.03v1.43h-1.34c-.21-.75-.9-1.31-1.71-1.31H1.78c-.98,0-1.78,.8-1.78,1.79v4.46c0,.99,.8,1.79,1.78,1.79h1.32c.81,0,1.5-.55,1.71-1.31h1.34v9.46h-.73c-1.49,0-2.69,1.22-2.69,2.72s1.21,2.71,2.69,2.71h.73v.18c0,1.67,1.35,3.04,3.01,3.04h.53c1.66,0,3.01-1.36,3.01-3.04v-.18h1.63v.18c0,1.67,1.35,3.04,3.01,3.04h.53c1.66,0,3.01-1.36,3.01-3.04v-.18h1.63v.18c0,1.67,1.35,3.04,3.01,3.04h.53c1.66,0,3.01-1.36,3.01-3.04v-.18h.25c1.48,0,2.69-1.22,2.69-2.72s-1.21-2.71-2.69-2.71Zm0-12.84c.36,0,.66,.31,.66,.67s-.3,.67-.66,.67h-.25v-1.33h.25Zm-8.43,3.38h1.63v9.46h-1.63V9.89Zm1.63-3.38v1.33h-1.63v-1.33h1.63Zm-9.81,3.38h1.63v9.46h-1.63V9.89Zm1.63-3.38v1.33h-1.63v-1.33h1.63ZM3.86,7.85c-.56,0-1.02,.46-1.02,1.02v.28h-.81v-3.94h.81v.28c0,.57,.45,1.02,1.02,1.02h2.29v1.33H3.86Zm1.55,14.89c-.36,0-.66-.31-.66-.67s.3-.67,.66-.67h.73v1.33h-.73Zm5.25,2.23c0,.54-.44,.99-.98,.99h-.53c-.54,0-.98-.44-.98-.99V3.03c0-.54,.44-.99,.98-.99h.53c.54,0,.98,.44,.98,.99V24.96Zm2.03-2.23v-1.33h1.63v1.33h-1.63Zm6.15,2.23c0,.54-.44,.99-.98,.99h-.53c-.54,0-.98-.44-.98-.99V3.03c0-.54,.44-.99,.98-.99h.53c.54,0,.98,.44,.98,.99V24.96Zm2.03-2.23v-1.33h1.63v1.33h-1.63Zm5.17,3.21h-.53c-.54,0-.98-.44-.98-.99V3.03c0-.54,.44-.99,.98-.99h.53c.54,0,.98,.44,.98,.99v2.45h0v3.38h0V24.96c0,.54-.44,.99-.98,.99Zm3.26-3.21h-.25v-1.33h.25c.36,0,.66,.31,.66,.67s-.3,.67-.66,.67Z"></path>
  </symbol></defs><use xlink:href="#k385" fill="#2C509A"></use></svg>