<svg xmlns:xlink="http://www.w3.org/1999/xlink" xmlns="http://www.w3.org/2000/svg" class="mainmenu-icon mainmenu-icon-k132" width="32"  height="32" ><defs><symbol id="k132" xmlns="http://www.w3.org/2000/svg" viewBox="0 0 32 32">
    <path d="M22.14,18.39H9.86c-.69,0-1.25,.57-1.25,1.26s.56,1.26,1.25,1.26h12.28c.69,0,1.25-.57,1.25-1.26s-.56-1.26-1.25-1.26Z"></path>
    <path d="M29.11,11h-3.95v-1.57h1.16c2.5,0,4.54-2.06,4.54-4.58V2.09c0-1.15-.93-2.09-2.07-2.09h-1.62c-1.14,0-2.07,.94-2.07,2.09v1.31H6.91v-1.31c0-1.15-.93-2.09-2.07-2.09h-1.62C2.08,0,1.15,.94,1.15,2.09v2.75c0,2.53,2.03,4.58,4.54,4.58h1.16v1.57H2.89c-1.6,0-2.89,1.31-2.89,2.92v15.99c0,1.15,.93,2.09,2.07,2.09h3.25c1.14,0,2.07-.94,2.07-2.09v-1.86H24.61v1.86c0,1.15,.93,2.09,2.07,2.09h3.25c1.14,0,2.07-.94,2.07-2.09V13.92c0-1.61-1.3-2.92-2.89-2.92ZM3.65,4.85V2.53h.76v1.31c0,1.15,.93,2.09,2.07,2.09H25.52c1.14,0,2.07-.94,2.07-2.09v-1.31h.76v2.32c0,1.13-.91,2.06-2.04,2.06H5.69c-1.12,0-2.04-.92-2.04-2.06Zm5.69,4.58h13.31v1.57H9.35v-1.57ZM29.5,29.47h-2.39v-1.86c0-1.15-.93-2.09-2.07-2.09H6.96c-1.14,0-2.07,.94-2.07,2.09v1.86H2.5V13.92c0-.22,.18-.4,.39-.4H29.11c.21,0,.39,.18,.39,.4v15.55Z"></path>
  </symbol></defs><use xlink:href="#k132"></use></svg>