<svg xmlns:xlink="http://www.w3.org/1999/xlink" xmlns="http://www.w3.org/2000/svg" class="mainmenu-icon mainmenu-icon-k94" width="27"  height="32" ><defs><symbol id="k94" xmlns="http://www.w3.org/2000/svg" viewBox="0 0 27 32">
    <path d="M24.79,0H2.21C.99,0,0,1,0,2.22V13.54c0,1.22,.99,2.22,2.21,2.22h2.46v4.43h-.42c-1.67,0-3.02,1.36-3.02,3.04v5.74c0,1.68,1.36,3.04,3.02,3.04h3.33c1.67,0,3.02-1.36,3.02-3.04v-5.74c0-1.68-1.35-3.04-3.02-3.04h-.42v-4.43h5.01c1.13-.01,1.13-.02,2.51,1.46l.37,.39c1.47,1.56,2.07,1.95,3.74,1.95h6.02c1.22,0,2.21-1,2.21-2.22V2.22c0-1.22-.99-2.22-2.21-2.22ZM3.71,28.96v-5.74c0-.29,.25-.54,.54-.54h.42v6.81h-.42c-.29,0-.54-.25-.54-.54Zm3.87-6.28c.29,0,.53,.25,.53,.54v5.74c0,.29-.25,.54-.53,.54h-.42v-6.81h.42Zm16.94-5.63h-5.74q-.83,0-1.94-1.17l-.35-.38c-1.82-1.94-2.22-2.25-4.11-2.25-.08,0-.16,0-.24,0H2.48V2.5H24.52v14.56Z"></path>
    <path d="M5.95,9.43h15.11c1,0,1.81-.82,1.81-1.82v-1.95c0-1-.81-1.82-1.81-1.82H5.95c-1,0-1.81,.82-1.81,1.82v1.95c0,1,.81,1.82,1.81,1.82Zm-.12-3.76c0-.06,.05-.12,.12-.12h15.11c.06,0,.12,.06,.12,.12v1.95c0,.06-.05,.12-.12,.12H5.95c-.06,0-.12-.06-.12-.12v-1.95Z"></path>
  </symbol></defs><use xlink:href="#k94"></use></svg>