<svg xmlns:xlink="http://www.w3.org/1999/xlink" xmlns="http://www.w3.org/2000/svg" class="footer-links-social-icon youtube" width="32"  height="23" ><defs><symbol xmlns="http://www.w3.org/2000/svg" viewBox="0 0 32 23" id="youtube">
    <g clip-path="url(#a)">
      <path fill-rule="evenodd" d="M31.68 4.85189s-.3114-2.2054-1.2714-3.17405C29.5602.820534 28.4061.335239 27.2.328649 22.72 0 16.0086 0 16.0086 0S9.28 0 4.8.328649C3.59389.335239 2.43975.820534 1.59135 1.67784.631351 2.64649.32 4.85189.32 4.85189.120287 6.57463.0134658 8.30686 0 10.0411v2.4216c.0133654 1.7342.120187 3.4665.32 5.1892 0 0 .311351 2.2054 1.27135 3.174.97439.8638 2.22666 1.3487 3.52865 1.3665 2.59459.2508 10.88.32 10.88.32s6.72 0 11.2432-.3286c1.206-.0154 2.358-.5029 3.2087-1.3579.96-.9686 1.2713-3.174 1.2713-3.174.1999-1.7227.3067-3.455.32-5.1892v-2.4216c-.0278-1.73502-.149-3.46726-.3632-5.18921ZM12.653 15.3946V6.40865l8.6486 4.50595-8.6486 4.48Z" clip-rule="evenodd"></path>
    </g>
    <defs>
      <clipPath id="a">
        <path fill="#fff" d="M0 0h32v22.4865H0z"></path>
      </clipPath>
    </defs>
  </symbol></defs><use xlink:href="#youtube" fill="#CF4B4B"></use></svg>