<svg xmlns:xlink="http://www.w3.org/1999/xlink" xmlns="http://www.w3.org/2000/svg" class="mainmenu-icon mainmenu-icon-k759" width="18"  height="32" ><defs><symbol id="k759" xmlns="http://www.w3.org/2000/svg" viewBox="0 0 18 32">
    <path d="M15.18,8.55h-1.27V2.81c0-1.55-1.22-2.81-2.73-2.81H6.82c-1.5,0-2.73,1.26-2.73,2.81v5.75h-1.27c-1.56,0-2.82,1.3-2.82,2.9v15.65c0,1.6,1.27,2.9,2.82,2.9h.5v.97c0,.56,.44,1.02,.99,1.02s.99-.45,.99-1.02v-.97h7.41v.97c0,.56,.44,1.02,.99,1.02s.99-.45,.99-1.02v-.97h.5c1.56,0,2.82-1.3,2.82-2.9V11.46c0-1.6-1.27-2.9-2.82-2.9ZM6.06,2.81c0-.43,.34-.78,.75-.78h4.37c.42,0,.75,.35,.75,.78v5.75H6.06V2.81ZM15.53,27.11c0,.2-.16,.36-.35,.36H2.82c-.19,0-.35-.17-.35-.36V11.46c0-.2,.16-.36,.35-.36H15.18c.19,0,.35,.17,.35,.36v15.65Z"></path>
    <path d="M5.59,12.75c-.41,0-.74,.34-.74,.76v11.54c0,.42,.33,.76,.74,.76s.74-.34,.74-.76V13.51c0-.42-.33-.76-.74-.76Z"></path>
    <path d="M9,12.75c-.41,0-.74,.34-.74,.76v11.54c0,.42,.33,.76,.74,.76s.74-.34,.74-.76V13.51c0-.42-.33-.76-.74-.76Z"></path>
    <path d="M12.41,12.75c-.41,0-.74,.34-.74,.76v11.54c0,.42,.33,.76,.74,.76s.74-.34,.74-.76V13.51c0-.42-.33-.76-.74-.76Z"></path>
  </symbol></defs><use xlink:href="#k759" fill="#2C509A"></use></svg>