<svg xmlns:xlink="http://www.w3.org/1999/xlink" xmlns="http://www.w3.org/2000/svg" viewBox="0 0 20 20" width="20"  height="20" ><path fill="#999" d="M12.5 20h-5c-.44187-.0005-.8655-.1763-1.17795-.4887-.31245-.3125-.48821-.7361-.48872-1.178v-4.1666H1.66667c-.44188-.0005-.865504-.1763-1.177954-.4887C.176265 13.3655.00050728 12.9419 0 12.5v-5c.00044123-.44189.176178-.86556.488643-1.17802.312465-.31247.736127-.48821 1.178027-.48865h4.16666V1.66667c.00044-.4419.17618-.865562.48865-1.178027C6.63444.176178 7.05811.00044123 7.5 0h5c.4419.00050728.8655.176265 1.178.488716.3124.31245.4882.736074.4887 1.177954v4.16666h4.1666c.4419.00051.8655.17627 1.178.48872.3124.31245.4882.73608.4887 1.17795v5c-.0006.4418-.1764.8654-.4888 1.1779-.3124.3124-.736.4882-1.1779.4888h-4.1666v4.1666c-.0006.4419-.1764.8655-.4888 1.1779-.3125.3124-.7361.4882-1.1779.4888ZM1.66667 7.5v5H7.5v5.8333h5V12.5h5.8333v-5H12.5V1.66667h-5V7.5H1.66667Z"/></svg>