<svg xmlns:xlink="http://www.w3.org/1999/xlink" xmlns="http://www.w3.org/2000/svg" class="mainmenu-icon mainmenu-icon-k435" width="32"  height="32" ><defs><symbol id="k435" xmlns="http://www.w3.org/2000/svg" viewBox="0 0 32 32">
    <path d="M24.96,9.56l-.4,.4-2.52-2.52,.4-.4c.39-.39,.39-1.02,0-1.41s-1.02-.39-1.41,0l-2.22,2.22c-.39,.39-.39,1.02,0,1.41,.2,.2,.45,.29,.71,.29s.51-.1,.71-.29l.4-.4,2.52,2.52-.4,.4c-.39,.39-.39,1.02,0,1.41,.2,.2,.45,.29,.71,.29s.51-.1,.71-.29l2.22-2.22c.39-.39,.39-1.02,0-1.41s-1.02-.39-1.41,0Z"></path>
    <path d="M29.91,3.16l-1.06-1.06c-1.35-1.35-3.15-2.1-5.06-2.1s-3.71,.74-5.06,2.1L2.1,18.73c-1.35,1.35-2.1,3.15-2.1,5.06s.74,3.71,2.1,5.06l1.06,1.06c1.35,1.35,3.15,2.1,5.06,2.1s3.71-.74,5.06-2.1L29.91,13.27c2.79-2.79,2.79-7.33,0-10.12Zm-1.77,8.35L11.51,28.14c-.88,.88-2.05,1.36-3.29,1.36s-2.41-.48-3.29-1.36l-1.06-1.06c-.88-.88-1.36-2.05-1.36-3.29s.48-2.41,1.36-3.29L20.5,3.86c.88-.88,2.05-1.36,3.29-1.36s2.41,.48,3.29,1.36l1.06,1.06c1.81,1.81,1.81,4.77,0,6.58Z"></path>
    <path d="M12.46,22.06l-.4,.4-2.52-2.52,.4-.4c.39-.39,.39-1.02,0-1.41s-1.02-.39-1.41,0l-2.22,2.22c-.39,.39-.39,1.02,0,1.41,.2,.2,.45,.29,.71,.29s.51-.1,.71-.29l.4-.4,2.52,2.52-.4,.4c-.39,.39-.39,1.02,0,1.41,.2,.2,.45,.29,.71,.29s.51-.1,.71-.29l2.22-2.22c.39-.39,.39-1.02,0-1.41s-1.02-.39-1.41,0Z"></path>
  </symbol></defs><use xlink:href="#k435"></use></svg>