<svg xmlns:xlink="http://www.w3.org/1999/xlink" xmlns="http://www.w3.org/2000/svg" class="mainmenu-icon mainmenu-icon-k748" width="32"  height="32" ><defs><symbol id="k748" xmlns="http://www.w3.org/2000/svg" viewBox="0 0 32 32">
    <path d="M24.34,0H7.66C3.44,0,0,3.44,0,7.66V24.34c0,4.22,3.44,7.66,7.66,7.66H24.34c4.22,0,7.66-3.44,7.66-7.66V7.66c0-4.22-3.43-7.66-7.66-7.66Zm5.16,24.34c0,2.84-2.31,5.16-5.16,5.16H7.66c-2.84,0-5.16-2.31-5.16-5.16V7.66c0-2.84,2.31-5.16,5.16-5.16H24.34c2.84,0,5.16,2.31,5.16,5.16V24.34Z"></path>
    <path d="M16,5.66c-5.7,0-10.34,4.64-10.34,10.34s4.64,10.34,10.34,10.34,10.34-4.64,10.34-10.34-4.64-10.34-10.34-10.34Zm1.25,18.07v-.81c0-.69-.56-1.25-1.25-1.25s-1.25,.56-1.25,1.25v.81c-3.73-.6-6.59-3.83-6.59-7.73s2.86-7.13,6.59-7.73v.81c0,.69,.56,1.25,1.25,1.25s1.25-.56,1.25-1.25v-.81c3.73,.6,6.59,3.83,6.59,7.73s-2.86,7.13-6.59,7.73Z"></path>
    <path d="M12.68,14c-1.1,0-2,.9-2,2s.9,2,2,2,2-.9,2-2-.9-2-2-2Z"></path>
    <path d="M19.32,14c-1.1,0-2,.9-2,2s.9,2,2,2,2-.9,2-2-.9-2-2-2Z"></path>
  </symbol></defs><use xlink:href="#k748"></use></svg>