<svg xmlns:xlink="http://www.w3.org/1999/xlink" xmlns="http://www.w3.org/2000/svg" class="mainmenu-icon mainmenu-icon-k299" width="32"  height="32" ><defs><symbol id="k299" xmlns="http://www.w3.org/2000/svg" viewBox="0 0 32 32">
    <path d="M27.85,21.49V9.8c0-1.15-.89-2.07-2.04-2.14V3.1c0-1.71-1.39-3.1-3.1-3.1H8.26c-1.75,0-3.18,1.43-3.18,3.18v5.11c-1.27,.21-2.25,1.32-2.25,2.65v5.23c0,1.48,1.21,2.69,2.69,2.69h1.63c1.48,0,2.69-1.21,2.69-2.69v-5.23c0-1.33-.97-2.43-2.25-2.65V3.18c0-.37,.3-.66,.66-.66h14.46c.31,0,.58,.26,.58,.58V7.75c-2.22,.26-3.94,1.01-5.23,2.27-1.95,1.9-2.82,4.76-2.82,9.3v6.88c0,1.18,.94,2.1,2.15,2.1h4.24c.69,2.14,2.68,3.7,5.04,3.7,2.94,0,5.32-2.39,5.32-5.32,0-2.53-1.78-4.64-4.15-5.18ZM7.32,16.17c0,.09-.08,.17-.17,.17h-1.63c-.09,0-.17-.08-.17-.17v-5.23c0-.09,.08-.17,.17-.17h1.63c.09,0,.17,.08,.17,.17v5.23Zm10.44,3.15c0-3.75,.65-6.13,2.05-7.49,1.17-1.14,3.03-1.68,5.51-1.66v11.36c-.2,.05-.39,.13-.58,.2-.11,.04-.21,.09-.31,.14-.2,.1-.4,.2-.59,.32-.12,.08-.23,.16-.35,.25-.12,.09-.24,.19-.36,.3-.11,.1-.22,.2-.32,.31-.13,.14-.25,.29-.37,.45-.12,.15-.22,.31-.32,.47-.1,.16-.19,.33-.27,.5-.05,.11-.1,.23-.14,.35-.08,.2-.14,.4-.19,.61-.02,.09-.05,.18-.07,.28,0,.03-.02,.06-.02,.09h-3.67v-6.46Zm8.91,10.16c-1.55,0-2.8-1.26-2.8-2.8,0-.04,.01-.08,.01-.13,0-.14,.02-.29,.04-.43,.18-.87,.77-1.59,1.55-1.97,.03-.01,.05-.03,.08-.04,.1-.05,.21-.07,.32-.11,.07-.02,.14-.05,.21-.06,.09-.02,.18-.02,.27-.03,.11-.01,.21-.03,.32-.03,1.55,0,2.8,1.26,2.8,2.8s-1.26,2.8-2.8,2.8Z"></path>
    <path d="M9.84,20.79c-.22-.51-.82-.74-1.33-.51-.51,.23-.74,.82-.51,1.33l2.31,5.23c.17,.38,.54,.6,.92,.6,.14,0,.27-.03,.41-.09,.51-.23,.74-.82,.51-1.33l-2.31-5.23Z"></path>
    <path d="M6.12,22.18c-.56,0-1.01,.45-1.01,1.01v5.05c0,.56,.45,1.01,1.01,1.01s1.01-.45,1.01-1.01v-5.05c0-.56-.45-1.01-1.01-1.01Z"></path>
    <path d="M3.73,20.27c-.51-.22-1.1,0-1.33,.51L.09,26.01c-.23,.51,0,1.1,.51,1.33,.13,.06,.27,.09,.41,.09,.39,0,.76-.22,.92-.6l2.31-5.23c.23-.51,0-1.1-.51-1.33Z"></path>
  </symbol></defs><use xlink:href="#k299" fill="#2C509A"></use></svg>