<svg xmlns:xlink="http://www.w3.org/1999/xlink" class="arr-next-icon" xmlns="http://www.w3.org/2000/svg" viewBox="0 0 19 17" width="19"  height="17" >
                            <path d="M10.7601 16.05h.01c.25 0 .5-.1.68-.28l6.67-6.75996c.09-.09.16-.19.2-.31.09-.23.09-.49 0-.72-.05-.12-.12-.22-.2-.31l-6.7-6.719996c-.18-.18-.41-.27-.66-.28-.24 0-.48.099999-.66.269999-.37001.369997-.37001.969997 0 1.329997l5.1 5.13H1.28009c-.520003 0-.940002.42-.940002.94s.419999.94.940002.94H15.1901l-5.1 5.12996c-.36001.37-.36001.96 0 1.33.17.18.42.28.66.28l.01.03Z" fill-opacity="0.25" fill="#000000"></path>
                        </svg>