<svg xmlns:xlink="http://www.w3.org/1999/xlink" xmlns="http://www.w3.org/2000/svg" class="mainmenu-icon mainmenu-icon-k337" width="32"  height="32" ><defs><symbol id="k337" xmlns="http://www.w3.org/2000/svg" viewBox="0 0 32 32">
    <path d="M16,0C7.16,0,0,7.16,0,16s7.16,16,16,16,16-7.16,16-16S24.84,0,16,0Zm10.25,24.51h-.08l-2.6-.69c-.33-.09-.66,.11-.75,.43-.09,.33,.11,.66,.43,.75h0l2.05,.55c-.91,.91-1.96,1.67-3.09,2.27h0l-2.21-1.73c-.27-.21-.66-.15-.87,.12-.21,.27-.15,.66,.12,.87l1.68,1.33c-1.19,.48-2.44,.78-3.72,.91v-.09l-1.33-2.32c-.17-.29-.54-.4-.84-.23h0c-.29,.16-.4,.52-.24,.82l.02,.03,1.04,1.83c-1.28-.01-2.56-.21-3.79-.59v-.09l-.35-2.67c-.05-.34-.36-.57-.69-.53-.33,.05-.57,.36-.53,.69l.28,2.12c-1.18-.51-2.29-1.19-3.28-2.01v-.07l.69-2.6c.09-.33-.11-.66-.43-.75-.33-.09-.66,.11-.75,.43l-.52,2.07c-.9-.92-1.66-1.96-2.25-3.09,.02,0,.04,0,.07,0l1.63-2.24c.21-.27,.16-.65-.11-.86h0c-.27-.21-.66-.15-.87,.11l-1.33,1.68c-.48-1.19-.78-2.45-.91-3.73h.09l2.32-1.33c.29-.17,.4-.54,.23-.84h0c-.16-.29-.52-.4-.81-.25l-.03,.02-1.83,1.05c0-1.28,.21-2.55,.59-3.77h.09l2.67-.35c.34-.04,.58-.35,.53-.69-.04-.34-.35-.58-.69-.53h0l-2.12,.28c.51-1.19,1.19-2.3,2.03-3.29h0l2.67,.69h.16c.34,.02,.63-.24,.65-.57,.02-.31-.19-.58-.49-.64l-2.08-.49c.92-.9,1.98-1.66,3.12-2.25v.07l2.21,1.63c.11,.08,.24,.12,.37,.12,.19,0,.38-.09,.49-.24,.21-.27,.16-.65-.11-.86h0l-1.68-1.34c1.19-.48,2.44-.78,3.72-.91v.09l1.33,2.32c.17,.29,.54,.39,.84,.23,.29-.16,.4-.52,.24-.81l-.02-.03-1.04-1.83c1.49,.02,2.97,.29,4.37,.8l-.89,2.13c-.12,.32,.03,.68,.35,.81,.31,.11,.66-.03,.8-.33l.88-2.08c1.02,.48,1.98,1.08,2.85,1.79v.08l-.69,2.67c-.09,.32,.1,.65,.41,.74h.03c.05,.02,.11,.02,.16,0,.28,0,.51-.19,.59-.45l.52-2.16c.9,.92,1.66,1.96,2.25,3.09h0l-1.69,2.24c-.21,.27-.16,.65,.11,.86h0c.11,.09,.24,.13,.37,.13,.19,0,.37-.09,.49-.24l1.33-1.68c.48,1.18,.79,2.43,.93,3.69h-.09l-2.32,1.33c-.3,.17-.4,.55-.23,.85,.11,.19,.31,.3,.53,.31,.11,0,.21-.03,.31-.08l1.85-1.07c-.02,1.32-.24,2.64-.65,3.89h-.09l-2.67,.35c-.34,.05-.57,.36-.53,.69,.04,.31,.3,.54,.61,.53h.08l2.12-.28c-.51,1.16-1.19,2.24-2,3.21Z"></path>
    <path d="M16,7.21c-4.85,0-8.79,3.93-8.79,8.79s3.93,8.79,8.79,8.79,8.79-3.93,8.79-8.79c0-4.85-3.94-8.78-8.79-8.79Zm0,15.45c-3.68,0-6.67-2.98-6.67-6.67s2.98-6.67,6.67-6.67,6.67,2.98,6.67,6.67-2.98,6.67-6.67,6.67Z"></path>
  </symbol></defs><use xlink:href="#k337"></use></svg>