<svg xmlns:xlink="http://www.w3.org/1999/xlink" xmlns="http://www.w3.org/2000/svg" class="mainmenu-icon mainmenu-icon-k216" width="32"  height="24" ><defs><symbol id="k216" xmlns="http://www.w3.org/2000/svg" viewBox="0 0 32 24">
    <path d="M31.05,18.81c-2.05-.52-4.13-.93-6.23-1.24l-.35-.07c-1.26-.24-2.53-.41-3.81-.54V2c0-1.1-.87-2-1.94-2h-5.44c-1.07,0-1.94,.89-1.94,2v14.99c-.9,.1-1.8,.23-2.69,.38-2.6,.32-5.17,.79-7.7,1.44-.67,.17-1.08,.87-.91,1.55,.17,.69,.84,1.11,1.51,.94,1.63-.42,3.29-.73,4.95-1.01v1.72c0,1.19,1.18,2,2.93,2h13.14c1.72,0,2.93-.82,2.93-2v-1.72c1.66,.27,3.32,.59,4.95,1.01,.1,.03,.2,.04,.3,.04,.56,0,1.07-.39,1.21-.97,.17-.69-.24-1.38-.91-1.55Zm-17.22-2.06V2.57h4.33v14.18h-1.03c-.67-.01-1.33-.01-2,0h-1.29Zm9.16,4.65c-.12,.02-.26,.04-.43,.04H9.43c-.17,0-.31-.02-.43-.04v-1.49c2.32-.28,4.66-.43,7-.43,2.34,0,4.68,.15,7,.43v1.49Z"></path>
  </symbol></defs><use xlink:href="#k216" fill="#2C509A"></use></svg>