<svg xmlns:xlink="http://www.w3.org/1999/xlink" xmlns="http://www.w3.org/2000/svg" class="mainmenu-icon mainmenu-icon-k342" width="32"  height="24" ><defs><symbol id="k342" xmlns="http://www.w3.org/2000/svg" viewBox="0 0 32 24">
    <path d="M30.75,16.99h-.49V5.26c0-.68-.56-1.23-1.25-1.23H2.99c-.69,0-1.25,.55-1.25,1.23v11.73h-.49c-.69,0-1.25,.55-1.25,1.23v4.56c0,.68,.56,1.23,1.25,1.23H30.75c.69,0,1.25-.55,1.25-1.23v-4.56c0-.68-.56-1.23-1.25-1.23Zm-1.25,4.56H2.5v-2.11h.49c.69,0,1.25-.55,1.25-1.23V6.48H27.76v11.73c0,.68,.56,1.23,1.25,1.23h.49v2.11Z"></path>
    <path d="M7.2,2.45h3.55c.69,0,1.25-.55,1.25-1.23s-.56-1.23-1.25-1.23h-3.55c-.69,0-1.25,.55-1.25,1.23s.56,1.23,1.25,1.23Z"></path>
    <path d="M21.25,2.45h3.55c.69,0,1.25-.55,1.25-1.23s-.56-1.23-1.25-1.23h-3.55c-.69,0-1.25,.55-1.25,1.23s.56,1.23,1.25,1.23Z"></path>
    <path d="M23.74,12.79h-1.12v-1.1c0-.68-.56-1.23-1.25-1.23s-1.25,.55-1.25,1.23v1.1h-1.12c-.69,0-1.25,.55-1.25,1.23s.56,1.23,1.25,1.23h1.12v1.1c0,.68,.56,1.23,1.25,1.23s1.25-.55,1.25-1.23v-1.1h1.12c.69,0,1.25-.55,1.25-1.23s-.56-1.23-1.25-1.23Z"></path>
    <path d="M13,12.79h-4.74c-.69,0-1.25,.55-1.25,1.23s.56,1.23,1.25,1.23h4.74c.69,0,1.25-.55,1.25-1.23s-.56-1.23-1.25-1.23Z"></path>
  </symbol></defs><use xlink:href="#k342"></use></svg>