<svg xmlns:xlink="http://www.w3.org/1999/xlink" xmlns="http://www.w3.org/2000/svg" class="mainmenu-icon mainmenu-icon-k558" width="32"  height="32" ><defs><symbol id="k558" xmlns="http://www.w3.org/2000/svg" viewBox="0 0 32 32">
    <path d="M32,13.52c-.04-.78-.55-1.39-1.27-1.51l-2.47-.41-8.43-6.41c-.43-.33-1.01-.34-1.45-.03l-5.53,3.88-.78-.13c-.16-.03-.31-.03-.46-.03l-2.72-5.78c-.14-.3-.4-.54-.7-.65L1.67,.07C1.02-.16,.31,.18,.07,.85c-.23,.66,.1,1.4,.75,1.63l6.02,2.21,2.64,5.62c-.09,.2-.17,.41-.21,.65l-2.21,13.85c-.11,.66,.06,1.36,.46,1.9,.39,.53,.95,.87,1.59,.94,.12,.01,.23,.02,.34,.03,.04,.87,.32,1.71,.83,2.43,.7,.99,1.73,1.64,2.91,1.84,.24,.04,.48,.06,.72,.06,2.15,0,4.05-1.6,4.41-3.83,.08-.53,.06-1.05-.03-1.55,8.1-2.89,13.83-10.58,13.7-13.1Zm-12.95-5.74l3.85,2.93-6.49-1.08,2.64-1.85Zm-3.18,19.97c-.17,1.1-1.19,1.84-2.26,1.66-.52-.09-.97-.37-1.28-.81-.31-.44-.43-.97-.35-1.5,.15-.95,.94-1.64,1.85-1.68,.13,0,.27,0,.41,.02h.01c.14,.03,.27,.07,.39,.12,.04,.02,.08,.04,.13,.06,.08,.04,.16,.08,.23,.13,.05,.03,.09,.07,.13,.11,.06,.05,.12,.1,.18,.16,.04,.04,.08,.09,.12,.14,.05,.06,.1,.13,.14,.2,.25,.4,.37,.89,.29,1.4Zm1.32-3.44s-.09-.08-.14-.13c-.06-.06-.13-.12-.19-.18-.14-.13-.29-.24-.44-.35-.08-.05-.15-.1-.23-.15-.16-.1-.33-.18-.51-.26-.08-.04-.16-.08-.24-.11-.25-.09-.51-.17-.78-.21,0,0-.02,0-.02,0h0c-.31-.05-.62-.07-.93-.05,0,0-.02,0-.03,0-1.62-.09-3.12,.85-3.81,2.28-.1,0-.21-.02-.31-.03l2.18-13.68,17.5,2.91c-1.08,2.2-5.33,7.73-12.04,9.96Z"></path>
  </symbol></defs><use xlink:href="#k558"></use></svg>