<svg xmlns:xlink="http://www.w3.org/1999/xlink" xmlns="http://www.w3.org/2000/svg" class="mainmenu-icon mainmenu-icon-k888" width="20"  height="32" ><defs><symbol id="k888" xmlns="http://www.w3.org/2000/svg" viewBox="0 0 20 32">
    <path d="M14.07,32H5.93c-.43,0-.84-.11-1.19-.33C1.77,29.86,0,26.74,0,23.31c0-3.67,2.04-6.96,5.27-8.66l-.86-3.54c-.09-.37,0-.77,.23-1.07,.23-.3,.59-.48,.97-.48H14.75c.38,0,.74,.18,.97,.48,.24,.3,.32,.7,.23,1.07l-.9,3.73c3.03,1.75,4.94,4.98,4.94,8.48s-1.77,6.55-4.74,8.36c-.35,.22-.76,.33-1.19,.33Zm-8.1-2.5H14.07c2.12-1.32,3.45-3.64,3.45-6.19,0-2.86-1.73-5.48-4.4-6.67-.55-.24-.85-.85-.7-1.44l.76-3.14H7.2l.72,3c.15,.61-.17,1.23-.75,1.46-2.85,1.13-4.69,3.79-4.69,6.79,0,2.52,1.3,4.83,3.49,6.19Z"></path>
    <path d="M12.37,8.64H7.63c-.31,0-.61-.12-.84-.33-.98-.9-1.54-2.19-1.54-3.52C5.26,2.15,7.38,0,10,0s4.74,2.15,4.74,4.78c0,1.34-.56,2.62-1.54,3.52-.23,.21-.53,.33-.84,.33Zm-4.19-2.5h3.65c.29-.39,.44-.86,.44-1.35,0-1.26-1.02-2.28-2.26-2.28s-2.27,1.02-2.27,2.28c0,.5,.15,.96,.44,1.35Z"></path>
  </symbol></defs><use xlink:href="#k888"></use></svg>