<svg xmlns:xlink="http://www.w3.org/1999/xlink" xmlns="http://www.w3.org/2000/svg" class="mainmenu-icon mainmenu-icon-k63" width="32"  height="32" ><defs><symbol id="k63" xmlns="http://www.w3.org/2000/svg" viewBox="0 0 32 32">
    <path d="M29.12,0H2.88C1.29,0,0,1.29,0,2.88V29.12c0,1.59,1.29,2.88,2.88,2.88H29.12c1.59,0,2.88-1.29,2.88-2.88V2.88c0-1.59-1.29-2.88-2.88-2.88Zm.38,29.12c0,.21-.18,.38-.38,.38H2.88c-.21,0-.38-.18-.38-.38V2.88c0-.21,.18-.38,.38-.38H29.12c.21,0,.38,.18,.38,.38V29.12Z"></path>
    <path d="M18.52,4.38h-5.04v1.58h5.04v-1.58Z"></path>
    <path d="M23.9,8.04H8.1c-1.73,0-3.14,1.41-3.14,3.14v12.65c0,1.73,1.41,3.14,3.14,3.14h15.8c1.73,0,3.14-1.41,3.14-3.14V11.18c0-1.73-1.41-3.14-3.14-3.14Zm1.14,15.79c0,.63-.51,1.14-1.14,1.14H8.1c-.63,0-1.14-.51-1.14-1.14V11.18c0-.63,.51-1.14,1.14-1.14h15.8c.63,0,1.14,.51,1.14,1.14v12.65Z"></path>
  </symbol></defs><use xlink:href="#k63" fill="#2C509A"></use></svg>