<svg xmlns:xlink="http://www.w3.org/1999/xlink" xmlns="http://www.w3.org/2000/svg" class="footer-links-app-icon app-store" width="179"  height="57" ><defs><symbol xmlns="http://www.w3.org/2000/svg" viewBox="0 0 179 57" id="app_store">
    <path d="M33.8894 22.6064C31.7946 26.2723 33.1038 31.7712 35.4605 35.0879C36.5951 36.7463 37.8171 38.2301 39.3882 38.2301H39.4755C40.0865 38.2301 40.7847 38.0556 41.3084 37.7064C42.0067 37.3573 42.705 37.1827 43.4905 37.1827C44.1888 37.1827 44.8871 37.3573 45.5853 37.7064C46.1963 38.0556 46.8946 38.1429 47.5928 38.1429C49.4258 38.1429 50.5605 36.4845 51.5206 35.0879C52.3061 34.0405 52.8298 32.8186 53.2662 31.5966C53.2662 31.5093 53.2662 31.422 53.179 31.3348C51.2587 30.5492 50.0368 28.629 50.0368 26.6215C50.0368 24.7885 50.9969 23.1301 52.568 22.17C52.6553 22.17 52.6553 22.0827 52.6553 22.0827V21.9082C51.6079 20.4244 49.8622 19.4642 48.0292 19.377H47.5928C46.5454 19.4642 45.5853 19.6388 44.7125 20.0752C44.2761 20.2498 43.8397 20.4244 43.316 20.5116C42.7923 20.4244 42.2686 20.2498 41.8321 19.9879C41.0466 19.6388 40.1738 19.377 39.3009 19.377H39.2136C36.9443 19.4642 34.9368 20.6862 33.8894 22.6064Z"></path>
    <path d="M47.942 13.4417C46.4582 13.6162 45.1489 14.2272 44.1888 15.3619C43.2287 16.4093 42.705 17.8931 42.8796 19.2896C42.8796 19.3769 42.9669 19.4642 43.0541 19.4642H43.316C44.7125 19.3769 46.0218 18.7659 46.8946 17.6312C47.8547 16.4966 48.2911 15.0128 48.2039 13.6162C48.1166 13.5289 48.0293 13.4417 47.942 13.4417Z"></path>
    <path d="M71.2467 21.2969L66.0097 35.0004H68.1045L69.5883 30.8981H75.0872L76.6583 35.0004H78.9276L73.3415 21.2969H71.2467ZM74.4762 29.3269H70.1993L71.5958 25.4865C71.8577 24.7882 72.0323 24.0027 72.2068 23.3044C72.3814 24.0027 72.7305 24.7882 73.0797 25.7483L74.4762 29.3269ZM86.6086 25.4865C85.9103 25.0501 85.212 24.7882 84.3392 24.7882C83.6409 24.7882 83.1172 24.8755 82.6808 25.1374C82.3317 25.3119 81.9825 25.6611 81.6334 26.0102V24.9628H79.8877V38.7535H81.808V34.1275C82.0698 34.3894 82.3317 34.6512 82.7681 34.8258C83.2045 35.0876 83.7282 35.1749 84.3392 35.1749C85.1247 35.1749 85.823 34.9131 86.5213 34.4767C87.2195 34.0402 87.7432 33.4293 88.0924 32.5564C88.4415 31.7709 88.6161 30.8108 88.6161 29.7634C88.6161 28.8032 88.4415 27.9304 88.0924 27.1449C87.8305 26.5339 87.3068 25.9229 86.6086 25.4865ZM86.6958 29.9379C86.6958 31.2472 86.434 32.2073 85.9103 32.731C85.3866 33.342 84.7756 33.6038 84.0773 33.6038C83.3791 33.6038 82.7681 33.342 82.3317 32.731C81.808 32.12 81.6334 31.2472 81.6334 30.0252C81.6334 28.8033 81.8953 27.8431 82.419 27.2322C82.9427 26.6212 83.5536 26.272 84.2519 26.272C84.9502 26.272 85.5612 26.5339 85.9976 27.1449C86.434 27.8431 86.6958 28.8032 86.6958 29.9379ZM97.1698 25.4865C96.4716 25.0501 95.7733 24.7882 94.9005 24.7882C94.2895 24.7882 93.6785 24.8755 93.2421 25.1374C92.893 25.3119 92.5438 25.6611 92.1947 26.0102V24.9628H90.449V38.7535H92.3693V34.1275C92.6311 34.3894 92.9802 34.6512 93.3294 34.8258C93.7658 35.0876 94.2895 35.1749 94.9005 35.1749C95.686 35.1749 96.3843 34.9131 97.0826 34.4767C97.7808 34.0402 98.3045 33.4293 98.6536 32.5564C99.0028 31.7709 99.1773 30.8108 99.1773 29.7634C99.1773 28.8032 99.0028 27.9304 98.6536 27.1449C98.3045 26.5339 97.7808 25.9229 97.1698 25.4865ZM97.2571 29.9379C97.2571 31.2472 96.9953 32.2073 96.4716 32.731C95.9479 33.342 95.3369 33.6038 94.6386 33.6038C93.9404 33.6038 93.3294 33.342 92.893 32.731C92.3693 32.12 92.1947 31.2472 92.1947 30.0252C92.1947 28.8033 92.4565 27.8431 92.9802 27.2322C93.5039 26.6212 94.1149 26.272 94.8132 26.272C95.5114 26.272 96.0351 26.5339 96.5588 27.1449C96.9953 27.8431 97.2571 28.8032 97.2571 29.9379ZM114.365 27.7558C113.841 27.494 112.794 27.2322 111.31 26.883C109.913 26.5339 108.953 26.272 108.691 25.9229C108.342 25.6611 108.168 25.2246 108.168 24.7882C108.168 24.2645 108.429 23.8281 108.866 23.479C109.302 23.1298 110.088 22.868 111.135 22.868C112.183 22.868 112.881 23.0426 113.405 23.479C113.928 23.9154 114.19 24.5264 114.277 25.3119V25.3992L116.198 25.2246V25.1374C116.198 24.3518 115.936 23.5663 115.499 22.9553C115.063 22.3443 114.452 21.8206 113.666 21.4715C112.881 21.1223 112.008 20.9478 110.961 20.9478C110 20.9478 109.215 21.1223 108.429 21.3842C107.644 21.7333 107.12 22.1697 106.684 22.7807C106.247 23.3917 106.073 24.09 106.073 24.7882C106.073 25.3992 106.247 26.0102 106.596 26.5339C106.946 27.0576 107.382 27.494 108.08 27.8431C108.604 28.105 109.477 28.3668 110.699 28.716C111.921 28.9778 112.706 29.2397 113.055 29.4142C113.579 29.5888 114.016 29.8506 114.19 30.1998C114.452 30.4616 114.539 30.8108 114.539 31.2472C114.539 31.5963 114.452 32.0327 114.19 32.3819C113.928 32.731 113.579 32.9928 113.055 33.1674C112.532 33.342 111.921 33.4293 111.31 33.4293C110.524 33.4293 109.913 33.2547 109.302 33.0801C108.691 32.8183 108.255 32.4691 107.993 32.0327C107.731 31.5963 107.557 31.0726 107.469 30.3743V30.2871L105.549 30.4616V30.5489C105.549 31.509 105.811 32.2946 106.335 33.0801C106.771 33.7784 107.469 34.3894 108.342 34.7385C109.215 35.0876 110.262 35.2622 111.484 35.2622C112.444 35.2622 113.317 35.0876 114.103 34.7385C114.888 34.3894 115.499 33.8657 115.936 33.2547C116.372 32.6437 116.547 31.8582 116.547 31.1599C116.547 30.3743 116.372 29.7634 115.936 29.1524C115.761 28.6287 115.15 28.105 114.365 27.7558ZM122.482 33.342C121.784 33.4293 121.435 33.4293 121.26 33.342L120.998 33.0801C120.998 32.9928 120.911 32.8183 120.911 32.2073V26.6212H122.569V25.1374H120.911V21.646L119.078 22.6934V25.0501H117.856V26.5339H119.078V32.0327C119.078 33.0801 119.165 33.6911 119.252 34.0402C119.427 34.3894 119.689 34.6512 120.038 34.8258C120.387 35.0004 120.911 35.0876 121.522 35.0876C121.871 35.0876 122.307 35.0004 122.831 34.9131H122.918L122.657 33.2547L122.482 33.342ZM128.068 24.8755C126.846 24.8755 125.799 25.2246 124.926 26.0102C123.879 26.883 123.355 28.2796 123.355 30.1125C123.355 31.7709 123.791 33.0801 124.664 33.953C125.537 34.8258 126.672 35.2622 128.068 35.2622C128.941 35.2622 129.726 35.0876 130.512 34.6512C131.21 34.2148 131.821 33.6911 132.17 32.9056C132.52 32.2073 132.781 31.1599 132.781 29.8506C132.781 28.2796 132.345 27.0576 131.472 26.0975C130.599 25.3119 129.465 24.8755 128.068 24.8755ZM128.068 33.6911C127.283 33.6911 126.584 33.4293 126.061 32.8183C125.537 32.2073 125.275 31.3345 125.275 30.1125C125.275 28.8905 125.537 27.9304 126.061 27.4067C126.584 26.7957 127.283 26.5339 128.068 26.5339C128.854 26.5339 129.552 26.7957 130.076 27.4067C130.599 28.0177 130.861 28.8905 130.861 30.1125C130.861 31.3345 130.599 32.2946 130.076 32.9056C129.552 33.4293 128.854 33.6911 128.068 33.6911ZM138.193 24.8755C137.757 24.8755 137.407 24.9628 137.058 25.2246C136.796 25.3992 136.447 25.7483 136.185 26.272V25.0501H134.44V35.0876H136.36V29.8506C136.36 29.1524 136.447 28.5414 136.622 27.9304C136.709 27.5813 136.971 27.3194 137.233 27.0576C137.495 26.883 137.844 26.7957 138.106 26.7957C138.455 26.7957 138.891 26.883 139.24 27.1449L139.328 27.2322L139.939 25.4865L139.851 25.3992C139.415 25.0501 138.804 24.8755 138.193 24.8755ZM148.231 26.1848C147.358 25.3119 146.31 24.7882 144.914 24.7882C143.517 24.7882 142.383 25.2246 141.51 26.1848C140.637 27.1449 140.2 28.4541 140.2 30.1125C140.2 31.6836 140.637 32.9928 141.51 33.8657C142.383 34.7385 143.517 35.2622 145.001 35.2622C146.136 35.2622 147.096 35.0004 147.881 34.3894C148.667 33.8657 149.191 32.9928 149.453 32.0327V31.9454L147.532 31.6836V31.7709C147.27 32.4691 146.921 32.9056 146.572 33.2547C146.136 33.5165 145.699 33.6911 145.088 33.6911C144.303 33.6911 143.605 33.4293 143.081 32.9056C142.557 32.3819 142.295 31.5963 142.208 30.6362H149.54V30.1125C149.54 28.3668 149.103 27.1449 148.231 26.1848ZM142.295 28.9778C142.383 28.1923 142.644 27.5813 143.081 27.1449C143.605 26.6212 144.216 26.4466 144.914 26.4466C145.699 26.4466 146.398 26.7957 146.921 27.4067C147.27 27.7559 147.445 28.3668 147.532 29.0651H142.295V28.9778Z"></path>
    <path d="M170.491 57H8.57317C4.02687 57 0.354858 53.4794 0.354858 49.2044V7.79559C0.354858 3.52059 4.02687 0 8.57317 0H170.491C175.038 0 178.71 3.52059 178.71 7.79559V49.2044C178.71 53.4794 175.038 57 170.491 57ZM8.57317 1.67647C4.98859 1.67647 2.10344 4.44265 2.10344 7.79559V49.2044C2.10344 52.5574 4.98859 55.3235 8.57317 55.3235H170.491C174.076 55.3235 176.961 52.5574 176.961 49.2044V7.79559C176.961 4.35882 174.076 1.67647 170.491 1.67647H8.57317Z"></path>
  </symbol></defs><use xlink:href="#app_store" fill="#2D519B"></use></svg>