<svg xmlns:xlink="http://www.w3.org/1999/xlink" xmlns="http://www.w3.org/2000/svg" class="mainmenu-icon mainmenu-icon-k1299" width="32"  height="29" ><defs><symbol id="k1299" xmlns="http://www.w3.org/2000/svg" viewBox="0 0 32 29">
    <path d="M10.68,10.25c-1.89,0-3.43,1.54-3.43,3.43s1.54,3.43,3.43,3.43,3.43-1.54,3.43-3.43-1.54-3.43-3.43-3.43Zm0,5.05c-.89,0-1.61-.73-1.61-1.62s.72-1.62,1.61-1.62,1.61,.72,1.61,1.62-.72,1.62-1.61,1.62Z"></path>
    <path d="M15.18,7.14H2.48c-1.37,0-2.48,1.12-2.48,2.49v8.12c0,1.37,1.11,2.49,2.48,2.49H15.18c1.37,0,2.48-1.12,2.48-2.49V9.62c0-1.37-1.11-2.49-2.48-2.49ZM2.52,17.74V9.66l12.62-.04,.04,8.08-12.66,.04Z"></path>
    <path d="M29.1,0H10.71c-.83,0-1.58,.31-2.16,.9-.59,.59-.89,1.34-.89,2.17v2.13c.02,.56,.47,1,1.02,1h0c.56,0,1-.46,1-1.02V3.06c-.01-.3,.08-.52,.29-.73,.21-.21,.43-.3,.73-.3H29.1c.48,0,.88,.41,.88,.89V11.98c0,.48-.41,.89-.88,.89h-1.81v-.22c0-1.6-1.3-2.9-2.89-2.9h-1.85c-1.59,0-2.89,1.3-2.89,2.9v13.46c0,1.6,1.3,2.89,2.89,2.89h1.85c1.59,0,2.89-1.3,2.89-2.89V14.88h1.81c1.6,0,2.9-1.3,2.9-2.91V2.91c0-1.6-1.3-2.91-2.9-2.91Zm-6.56,12.27h1.85c.2,0,.37,.17,.37,.37v8.41h-2.59V12.64c0-.2,.17-.37,.37-.37Zm1.85,14.2h-1.85c-.2,0-.37-.17-.37-.37v-3.03h2.59v3.03c0,.2-.17,.37-.37,.37Z"></path>
    <path d="M10.66,21.46h-3.66c-.56,0-1.01,.45-1.01,1.01s.45,1.01,1.01,1.01h3.66c.56,0,1.01-.45,1.01-1.01s-.45-1.01-1.01-1.01Z"></path>
    <path d="M4.52,10.36c-.61,0-1.1,.5-1.1,1.1s.5,1.11,1.1,1.11,1.1-.5,1.1-1.11-.5-1.1-1.1-1.1Z"></path>
  </symbol></defs><use xlink:href="#k1299"></use></svg>