<svg xmlns:xlink="http://www.w3.org/1999/xlink" xmlns="http://www.w3.org/2000/svg" class="mainmenu-icon mainmenu-icon-k427" width="32"  height="32" ><defs><symbol id="k427" xmlns="http://www.w3.org/2000/svg" viewBox="0 0 32 32">
    <path d="M30.74,29.5h-5.88c1.32-1.09,1.64-2.4,1.64-3.39,0-2.29-1.71-4.85-4.26-7.06l3.78-13.23,2.16-.23c.49-.05,.9-.38,1.06-.84l1.07-3.1c.22-.65-.13-1.36-.79-1.59-.66-.22-1.37,.13-1.6,.78l-.81,2.35-5.95,.62c-.69,.07-1.19,.69-1.12,1.37,.07,.64,.61,1.12,1.25,1.12,.04,0,.09,0,.13,0l1.89-.2-3.23,11.31c-3.11-2.1-6.91-3.64-10.39-3.88l-1.36-3.64h2.25c.7,0,1.26-.56,1.26-1.25s-.56-1.25-1.26-1.25H4.26l-1.26-1.63c-.42-.55-1.21-.65-1.77-.23-.55,.42-.66,1.21-.23,1.75l1.63,2.12c.24,.31,.61,.49,1,.49h2.02l1.41,3.77C3.05,14.44,0,17.96,0,22.18v.37c0,2.79,1.28,5.28,3.28,6.95H1.4c-.7,0-1.26,.56-1.26,1.25s.56,1.25,1.26,1.25H30.74c.7,0,1.26-.56,1.26-1.25s-.56-1.25-1.26-1.25ZM2.52,22.55v-.37c0-3.41,2.8-6.19,6.24-6.19,6.72,0,15.23,6.28,15.23,10.12,0,.51-.15,1.26-1.4,1.92-.93,.49-2.8,1.07-6.41,1.07h-7.05c-3.64,0-6.61-2.94-6.61-6.56Z"></path>
    <path d="M8.58,25.72v.2h-.61c-.56,0-1.01,.45-1.01,1s.45,1,1.01,1h3.23c.56,0,1.01-.45,1.01-1s-.45-1-1.01-1h-.61v-.2c1.64-.44,2.86-1.92,2.86-3.69,0-2.12-1.73-3.84-3.87-3.84s-3.87,1.72-3.87,3.84c0,1.77,1.22,3.25,2.86,3.69Zm1.01-5.53c1.02,0,1.85,.82,1.85,1.84,0,.64-.34,1.21-.85,1.54v-1.84c0-.55-.45-1-1.01-1s-1.01,.45-1.01,1v1.84c-.51-.33-.85-.89-.85-1.54,0-1.01,.83-1.84,1.85-1.84Z"></path>
  </symbol></defs><use xlink:href="#k427"></use></svg>