<svg xmlns:xlink="http://www.w3.org/1999/xlink" xmlns="http://www.w3.org/2000/svg" class="mainmenu-icon mainmenu-icon-k544" width="32"  height="32" ><defs><symbol id="k544" xmlns="http://www.w3.org/2000/svg" viewBox="0 0 32 32">
    <path d="M31.63,5.28L26.71,.37c-.49-.49-1.28-.49-1.77,0l-1.99,1.99c-1.23,1.23-1.53,3.05-.91,4.57l-9.14,9.14-1.57-1.57c-1.24-1.24-3.4-1.24-4.63,0L1.05,20.15s-.04,.04-.06,.06c-.64,.65-.99,1.5-.99,2.4v5.97c0,1.89,1.53,3.42,3.42,3.42h5.97c.91,0,1.77-.36,2.4-.99,.02-.02,.04-.04,.06-.06l5.65-5.65c.62-.62,.96-1.44,.96-2.32s-.34-1.7-.96-2.32l-1.57-1.58,9.14-9.14c.51,.21,1.06,.32,1.61,.32,1.07,0,2.15-.41,2.97-1.23l1.99-1.99c.49-.49,.49-1.28,0-1.77ZM15.74,22.43c.15,.15,.23,.34,.23,.55s-.08,.4-.23,.55l-5.61,5.61s-.06,.05-.08,.07c-.18,.18-.41,.28-.66,.28H3.42c-.51,0-.92-.41-.92-.92v-5.97c0-.25,.1-.48,.3-.67,.02-.02,.04-.04,.06-.07l5.61-5.61c.29-.29,.8-.3,1.1,0l1.57,1.57-1.11,1.11c-.83,.83-.83,2.19,0,3.02,.42,.42,.96,.62,1.51,.62s1.09-.21,1.51-.62l1.11-1.11,1.58,1.58Zm-3.32-3.32l.47,.47-1.11,1.11c-.13,.13-.34,.13-.47,0-.13-.13-.13-.34,0-.47l1.11-1.11Zm1.77-1.77l8.91-8.91,.48,.48-8.91,8.91-.47-.47ZM27.88,7.28c-.66,.66-1.74,.66-2.4,0l-.76-.76c-.66-.66-.66-1.74,0-2.4l1.11-1.11,3.15,3.15-1.11,1.11Z"></path>
  </symbol></defs><use xlink:href="#k544"></use></svg>