<svg xmlns:xlink="http://www.w3.org/1999/xlink" xmlns="http://www.w3.org/2000/svg" class="mainmenu-icon mainmenu-icon-k995" width="32"  height="21" ><defs><symbol id="k995" xmlns="http://www.w3.org/2000/svg" viewBox="0 0 32 21">
    <path d="M29.68,0H2.32C1.04,0,0,1.05,0,2.34v14.06c0,2.54,2.05,4.6,4.57,4.6H27.43c2.52,0,4.57-2.06,4.57-4.6V2.34c0-1.29-1.04-2.34-2.32-2.34Zm-1.91,2.52l-5.49,8.98L4.92,2.52H27.76Zm-.33,15.97H4.57c-1.14,0-2.07-.94-2.07-2.09V4.09L22.16,14.27c.18,.09,.38,.14,.57,.14,.42,0,.83-.21,1.07-.6l5.7-9.34v11.92c0,1.15-.93,2.09-2.07,2.09Z"></path>
  </symbol></defs><use xlink:href="#k995"></use></svg>