<svg xmlns:xlink="http://www.w3.org/1999/xlink" xmlns="http://www.w3.org/2000/svg" class="mainmenu-icon mainmenu-icon-k469" width="32"  height="31" ><defs><symbol id="k469" xmlns="http://www.w3.org/2000/svg" viewBox="0 0 32 31">
    <path d="M31.76,13.87l-1.19-2.05c-.24-.41-.62-.71-1.08-.83-.46-.12-.94-.06-1.36,.18l-4.3,2.47c-.45-.51-.93-.99-1.46-1.42,.06-.32,.1-.65,.1-.99v-2.61C22.47,3.87,18.59,0,13.81,0h-.35C8.69,0,4.81,3.87,4.81,8.62v2.61c0,.34,.04,.67,.1,.99C1.91,14.71,0,18.45,0,22.63v4.46c0,2.15,1.76,3.91,3.93,3.91H23.36c2.16,0,3.93-1.75,3.93-3.91v-4.46c0-1.32-.2-2.6-.56-3.81l4.38-2.52c.85-.49,1.15-1.58,.65-2.43ZM6.82,8.62c0-3.65,2.98-6.61,6.64-6.61h.35c3.66,0,6.64,2.97,6.64,6.61v2.27c-.94-.54-1.96-.98-3.02-1.29,0-.07,.02-.14,.02-.22,0-2.09-1.71-3.8-3.81-3.8s-3.81,1.7-3.81,3.8c0,.07,.02,.14,.02,.22-1.07,.31-2.08,.75-3.02,1.29v-2.27Zm6.82,.4c-.59,0-1.18,.04-1.78,.12,.12-.87,.87-1.55,1.78-1.55s1.66,.67,1.78,1.55c-.6-.08-1.19-.12-1.78-.12Zm0,2.54c2.19,0,4.24,.64,5.96,1.74-.54,.55-1.3,.9-2.14,.9h-7.65c-.84,0-1.59-.35-2.14-.9,1.73-1.1,3.77-1.74,5.96-1.74Zm11.12,15.53c0,.77-.63,1.4-1.41,1.4H3.93c-.78,0-1.41-.63-1.41-1.4v-4.46c0-3.2,1.38-6.08,3.57-8.11,.92,1.02,2.24,1.68,3.72,1.68h7.65c1.48,0,2.8-.66,3.72-1.68,2.19,2.02,3.57,4.9,3.57,8.11v4.46Zm1.24-10.17c-.27-.58-.58-1.14-.93-1.68l3.87-2.22,.96,1.66-3.9,2.24Z"></path>
  </symbol></defs><use xlink:href="#k469" fill="#2C509A"></use></svg>