<svg xmlns:xlink="http://www.w3.org/1999/xlink" xmlns="http://www.w3.org/2000/svg" class="mainmenu-icon mainmenu-icon-k355" width="32"  height="29" ><defs><symbol id="k355" xmlns="http://www.w3.org/2000/svg" viewBox="0 0 32 29">
    <path d="M16,13.43c-3.49,0-6.32,2.83-6.32,6.32s2.84,6.32,6.32,6.32,6.32-2.83,6.32-6.32-2.84-6.32-6.32-6.32Zm0,10.64c-2.38,0-4.32-1.94-4.32-4.32s1.94-4.32,4.32-4.32,4.32,1.94,4.32,4.32-1.94,4.32-4.32,4.32Z"></path>
    <path d="M29.59,12.62h-7.26c-.12,0-.23,.04-.34,.07-1.31-1.12-2.94-1.87-4.73-2.11V2.5h3.68c.69,0,1.25-.56,1.25-1.25S21.62,0,20.93,0H11.07C10.38,0,9.82,.56,9.82,1.25s.56,1.25,1.25,1.25h3.68V10.58c-1.79,.24-3.41,.99-4.73,2.1-.1-.03-.2-.06-.32-.06H2.41c-1.33,0-2.41,1.08-2.41,2.41v9.42c0,1.33,1.08,2.41,2.41,2.41h7.29c.11,0,.21-.04,.32-.06,1.61,1.37,3.7,2.2,5.98,2.2s4.37-.83,5.98-2.2c.11,.03,.22,.07,.34,.07h7.26c1.33,0,2.41-1.08,2.41-2.41V15.03c0-1.33-1.08-2.41-2.41-2.41ZM2.5,15.12H7.99c-.79,1.36-1.25,2.94-1.25,4.62s.46,3.26,1.25,4.62H2.5V15.12Zm6.24,4.62c0-4,3.26-7.26,7.26-7.26s7.26,3.26,7.26,7.26-3.26,7.26-7.26,7.26-7.26-3.26-7.26-7.26Zm20.76,4.62h-5.49c.79-1.36,1.25-2.94,1.25-4.62s-.46-3.26-1.25-4.62h5.49v9.25Z"></path>
  </symbol></defs><use xlink:href="#k355" fill="#2C509A"></use></svg>