<svg xmlns:xlink="http://www.w3.org/1999/xlink" xmlns="http://www.w3.org/2000/svg" class="mainmenu-icon mainmenu-icon-k244" width="14"  height="32" ><defs><symbol id="k244" xmlns="http://www.w3.org/2000/svg" viewBox="0 0 14 32">
    <path d="M13.71,25.58c0-.06,.04-.12,.04-.18,0-.12-.04-.22-.07-.33L12.35,1.18C12.31,.49,11.76-.04,11.06,0c-.67,.04-1.19,.63-1.15,1.32l.17,3.01H3.93l.17-3.01C4.13,.63,3.62,.04,2.94,0c-.7-.04-1.25,.49-1.29,1.18L0,30.68c-.04,.69,.48,1.28,1.15,1.32,.02,0,.05,0,.07,0,.64,0,1.18-.51,1.22-1.18l.23-4.18H11.32l.23,4.18c.04,.67,.58,1.18,1.22,1.18,.02,0,.05,0,.07,0,.67-.04,1.19-.63,1.15-1.32l-.29-5.1ZM3.42,13.43h7.17l.23,4.18H3.18l.23-4.18Zm6.8-6.6l.23,4.1H3.56l.23-4.1h6.43ZM2.82,24.14l.23-4.03h7.91l.23,4.03H2.82Z"></path>
  </symbol></defs><use xlink:href="#k244" fill="#2C509A"></use></svg>