<svg xmlns:xlink="http://www.w3.org/1999/xlink" xmlns="http://www.w3.org/2000/svg" class="mainmenu-icon mainmenu-icon-k57" width="32"  height="30" ><defs><symbol id="k57" xmlns="http://www.w3.org/2000/svg" viewBox="0 0 32 30">
    <path d="M29.62,21.24c1.38-.47,2.38-1.77,2.38-3.31s-.96-2.79-2.29-3.28V5.75c0-3.17-2.57-5.75-5.78-5.75s-5.73,2.58-5.73,5.75v.47c-2.42,.48-4.24,2.29-4.25,4.46v1.26h11.05v-1.26c-.02-2.18-1.85-4-4.3-4.47v-.46c0-1.79,1.45-3.24,3.28-3.24s3.23,1.45,3.23,3.24V14.42H3.5c-1.93,0-3.5,1.58-3.5,3.51,0,1.57,1.05,2.89,2.47,3.34,.78,2.02,2.21,3.77,4.08,5.12l-1.48,1.48c-.49,.49-.49,1.28,0,1.77,.24,.24,.56,.37,.88,.37s.64-.12,.88-.37l1.94-1.94c2.14,1.02,4.62,1.6,7.25,1.6s5.24-.61,7.42-1.67l2.02,2.02c.24,.24,.56,.37,.88,.37s.64-.12,.88-.37c.49-.49,.49-1.28,0-1.77l-1.58-1.58c1.81-1.34,3.19-3.06,3.95-5.05Zm-12.55-11.81c.56-.5,1.43-.84,2.39-.84s1.83,.33,2.39,.84h-4.78ZM3.5,16.92H28.5c.55,0,1,.45,1,1.01s-.45,1.01-1,1.01H3.5c-.55,0-1-.45-1-1.01s.45-1.01,1-1.01Zm12.54,9.86c-4.66,0-8.88-2.17-10.73-5.34H26.76c-1.85,3.17-6.06,5.34-10.73,5.34Z"></path>
  </symbol></defs><use xlink:href="#k57"></use></svg>