<svg xmlns:xlink="http://www.w3.org/1999/xlink" xmlns="http://www.w3.org/2000/svg" class="mainmenu-icon mainmenu-icon-k316" width="32"  height="32" ><defs><symbol id="k316" xmlns="http://www.w3.org/2000/svg" viewBox="0 0 32 32">
    <path d="M30.92,5.37c-1.18-.74-2.62-.04-3.6,.43l-2.79,1.36,1.07-2.63c.41-1,.98-2.36,.23-3.49-.46-.69-1.26-1.04-2.37-1.04H7.7c-1.16,0-1.97,.36-2.42,1.08-.74,1.18-.04,2.62,.44,3.59l1.35,2.74-2.53-1.02c-1-.41-2.38-.97-3.5-.22-.68,.46-1.03,1.25-1.03,2.36v15.68c0,1.15,.36,1.96,1.08,2.41,.37,.23,.77,.32,1.17,.32,.87,0,1.76-.43,2.43-.75l2.79-1.36-1.07,2.63c-.41,1-.98,2.36-.23,3.49,.46,.69,1.26,1.04,2.37,1.04h15.76c1.16,0,1.97-.36,2.42-1.08,.74-1.18,.04-2.62-.44-3.59l-1.23-2.5c1.63,.7,3.09,1.19,4.28,1.19,.6,0,1.13-.12,1.58-.41,.41-.25,1.08-.87,1.08-2.15V7.78c0-1.15-.36-1.96-1.08-2.41ZM11.24,11.2h9.51v9.6H11.24V11.2ZM7.7,2.5h15.76c.08,0,.15,0,.21,0-.07,.31-.27,.8-.38,1.06l-2.09,5.13H10.48L7.95,3.56c-.13-.26-.35-.73-.45-1.05,.06,0,.12,0,.2,0ZM3.58,23.96c-.26,.13-.74,.36-1.07,.45,0-.05,0-.12,0-.19V8.53c0-.08,0-.15,0-.2,.32,.07,.81,.27,1.08,.38l5.16,2.08v10.65l-5.17,2.52Zm20.72,5.54H8.54c-.08,0-.15,0-.21,0,.07-.31,.27-.8,.38-1.06l2.09-5.13h10.72l2.53,5.14c.13,.26,.35,.73,.45,1.05-.06,0-.12,0-.2,0Zm5.2-6.03s0,.04,0,.06c-.67,.15-2.55-.51-5.59-1.97-.23-.11-.45-.21-.65-.31V10.56l5.17-2.52c.26-.13,.74-.36,1.07-.45,0,.05,0,.12,0,.19v15.68Z"></path>
    <path d="M15.88,12.57c-1.95,0-3.54,1.58-3.54,3.52s1.59,3.52,3.54,3.52,3.53-1.58,3.53-3.52-1.59-3.52-3.53-3.52Zm0,5.04c-.85,0-1.54-.68-1.54-1.52s.69-1.52,1.54-1.52,1.53,.68,1.53,1.52-.69,1.52-1.53,1.52Z"></path>
  </symbol></defs><use xlink:href="#k316" fill="#2C509A"></use></svg>