<svg xmlns:xlink="http://www.w3.org/1999/xlink" xmlns="http://www.w3.org/2000/svg" class="mainmenu-icon mainmenu-icon-k519" width="32"  height="31" ><defs><symbol id="k519" xmlns="http://www.w3.org/2000/svg" viewBox="0 0 32 31">
    <path d="M30.75,14.27h-3.19v-3.64c0-3.24-2.67-5.87-5.95-5.87H3.93c-2.17,0-3.93,1.74-3.93,3.89v13.72c0,2.14,1.76,3.89,3.93,3.89H21.61c3.28,0,5.95-2.64,5.95-5.87v-3.64h3.19c.69,0,1.25-.55,1.25-1.23s-.56-1.23-1.25-1.23Zm-12.63,4.83H7.73v-2.36h10.38v2.36Zm0-4.83H7.73v-2.36h10.38v2.36Zm-10.38,7.3h10.38v2.21H7.73v-2.21Zm10.38-12.14H7.73v-2.21h10.38v2.21ZM2.5,22.36V8.64c0-.78,.64-1.42,1.43-1.42h1.3V23.78h-1.3c-.79,0-1.43-.64-1.43-1.42Zm22.56-1.99c0,1.88-1.55,3.41-3.45,3.41h-1V7.22h1c1.9,0,3.45,1.53,3.45,3.41v9.74Z"></path>
    <path d="M24.96,28.53H1.25c-.69,0-1.25,.55-1.25,1.23s.56,1.23,1.25,1.23H24.96c.69,0,1.25-.55,1.25-1.23s-.56-1.23-1.25-1.23Z"></path>
    <path d="M9.22,2.47h7.41c.69,0,1.25-.55,1.25-1.23s-.56-1.23-1.25-1.23h-7.41c-.69,0-1.25,.55-1.25,1.23s.56,1.23,1.25,1.23Z"></path>
  </symbol></defs><use xlink:href="#k519" fill="#2C509A"></use></svg>