<svg xmlns:xlink="http://www.w3.org/1999/xlink" xmlns="http://www.w3.org/2000/svg" class="mainmenu-icon mainmenu-icon-k887" width="32"  height="28" ><defs><symbol id="k887" xmlns="http://www.w3.org/2000/svg" viewBox="0 0 32 28">
    <path d="M29.05,8.14v-3.11c0-2.82-2.23-5.03-5.08-5.03H7.94C5.19,0,2.95,2.26,2.95,5.03v3.11c-1.72,.53-2.95,2.1-2.95,4.03v9.92c0,1.78,1.43,3.23,3.2,3.24v1.65c0,.56,.45,1.01,1,1.01s1-.45,1-1.01v-1.65H26.8v1.65c0,.56,.45,1.01,1,1.01s1-.45,1-1.01v-1.65c1.77,0,3.2-1.46,3.2-3.24V12.17c0-1.93-1.23-3.5-2.95-4.03ZM7.94,2.52H23.96c1.45,0,2.58,1.1,2.58,2.51v3.11c-1.58,.48-2.73,1.85-2.91,3.57-.79-.5-1.72-.8-2.73-.8H11.08c-1,0-1.93,.3-2.73,.8-.18-1.72-1.32-3.09-2.91-3.57v-3.11c0-1.38,1.12-2.51,2.49-2.51Zm.46,13.62c0-1.49,1.2-2.71,2.68-2.71h9.83c1.48,0,2.68,1.21,2.68,2.71v.72H8.4v-.72Zm21.1,5.95c0,.39-.33,.72-.72,.72H3.22c-.39,0-.72-.33-.72-.72V12.17c0-.99,.71-1.72,1.7-1.72s1.7,.72,1.7,1.72v7.21H26.1v-7.21c0-.99,.71-1.72,1.7-1.72s1.7,.72,1.7,1.72v9.92Z"></path>
  </symbol></defs><use xlink:href="#k887"></use></svg>