<svg xmlns:xlink="http://www.w3.org/1999/xlink" xmlns="http://www.w3.org/2000/svg" class="mainmenu-icon mainmenu-icon-k1226" width="32"  height="18" ><defs><symbol id="k1226" xmlns="http://www.w3.org/2000/svg" viewBox="0 0 32 18">
    <path d="M28.74,18h-4.91c-2.98,0-5.5-1.8-6.42-4.58-.14-.42-.55-.72-1-.72h-.82c-.45,0-.86,.29-1,.72-.92,2.78-3.44,4.58-6.42,4.58H3.26c-1.8,0-3.26-1.44-3.26-3.2V3.2C0,1.44,1.46,0,3.26,0H28.74c1.8,0,3.26,1.44,3.26,3.2V14.8c0,1.76-1.46,3.2-3.26,3.2Zm-13.15-7.29h.82c1.34,0,2.52,.84,2.93,2.09,.64,1.94,2.41,3.2,4.49,3.2h4.91c.68,0,1.23-.54,1.23-1.21V3.2c0-.66-.55-1.21-1.23-1.21H3.26c-.68,0-1.23,.54-1.23,1.21V14.8c0,.66,.55,1.21,1.23,1.21h4.91c2.08,0,3.84-1.26,4.49-3.2,.42-1.25,1.59-2.09,2.93-2.09Zm10.68,.92h-4.46c-1.01,0-1.83-.8-1.83-1.79V5.45c0-.99,.82-1.79,1.83-1.79h4.46c1.01,0,1.83,.8,1.83,1.79v4.38c0,.99-.82,1.79-1.83,1.79Zm-4.26-1.99h4.05v-3.98h-4.05v3.98Zm-11.81,1.99H5.74c-1.01,0-1.82-.8-1.82-1.79V5.45c0-.99,.82-1.79,1.82-1.79h4.46c1.01,0,1.82,.8,1.82,1.79v4.38c0,.99-.82,1.79-1.82,1.79Zm-4.26-1.99h4.05v-3.98H5.94v3.98Z"></path>
    <path d="M16,5.88c.6,0,1.09-.48,1.09-1.07s-.49-1.07-1.09-1.07-1.09,.48-1.09,1.07,.49,1.07,1.09,1.07Z"></path>
    <path d="M16,8.64c.6,0,1.09-.48,1.09-1.07s-.49-1.07-1.09-1.07-1.09,.48-1.09,1.07,.49,1.07,1.09,1.07Z"></path>
  </symbol></defs><use xlink:href="#k1226" fill="#2C509A"></use></svg>