<svg xmlns:xlink="http://www.w3.org/1999/xlink" xmlns="http://www.w3.org/2000/svg" class="mainmenu-icon mainmenu-icon-k886" width="26"  height="32" ><defs><symbol id="k886" xmlns="http://www.w3.org/2000/svg" viewBox="0 0 26 32">
    <path d="M22.24,0H3.76C1.69,0,0,1.69,0,3.76V28.24c0,2.07,1.69,3.76,3.76,3.76H22.24c2.07,0,3.76-1.69,3.76-3.76V3.76c0-2.07-1.69-3.76-3.76-3.76ZM2.5,28.24V3.76c0-.7,.57-1.26,1.26-1.26h13.09V29.5H3.76c-.7,0-1.26-.57-1.26-1.26Zm21,0c0,.69-.57,1.26-1.26,1.26h-2.89V2.5h2.89c.7,0,1.26,.57,1.26,1.26V28.24Z"></path>
    <path d="M9.05,9.58h5.91c.5,0,.9-.4,.9-.9s-.4-.9-.9-.9h-5.91c-.5,0-.9,.4-.9,.9s.4,.9,.9,.9Z"></path>
    <path d="M14.96,11.31h-5.91c-.5,0-.9,.4-.9,.9s.4,.9,.9,.9h5.91c.5,0,.9-.4,.9-.9s-.4-.9-.9-.9Z"></path>
  </symbol></defs><use xlink:href="#k886"></use></svg>