<svg xmlns:xlink="http://www.w3.org/1999/xlink" xmlns="http://www.w3.org/2000/svg" class="mainmenu-icon mainmenu-icon-k91" width="25"  height="32" ><defs><symbol id="k91" xmlns="http://www.w3.org/2000/svg" viewBox="0 0 25 32">
    <path d="M21.96,0H3.04C1.35,.02,0,1.42,0,3.13V28.87c0,1.71,1.35,3.11,3.04,3.13H21.96c1.69-.02,3.05-1.42,3.04-3.13V3.13c0-1.71-1.35-3.11-3.04-3.13Zm.41,28.87c0,.25-.2,.45-.45,.45H3.04c-.23-.03-.4-.22-.41-.45V3.13c0-.24,.17-.44,.41-.47H21.96c.24,0,.44,.21,.45,.45l-.04,25.75Z"></path>
    <path d="M12.5,10c-4.62,.19-8.21,4.13-8.03,8.81,.17,4.42,3.67,7.96,8.03,8.14,4.62-.19,8.21-4.13,8.03-8.81-.17-4.42-3.67-7.96-8.03-8.14Zm6,8.49c0,3.37-2.67,6.12-6,6.16h0c-3.37,.07-6.15-2.65-6.21-6.07-.06-3.42,2.63-6.23,6-6.29,3.37-.06,6.15,2.66,6.21,6.08,0,.04,0,.08,0,.12Z"></path>
    <rect x="4.34" y="5.56" width="5.37" height="1.73"></rect>
    <path d="M18.63,4.25c-1.18-.02-2.16,.93-2.18,2.13v.04c0,1.19,.93,2.16,2.1,2.17,1.18,.02,2.16-.93,2.18-2.13,.02-1.2-.92-2.19-2.1-2.21Z"></path>
  </symbol></defs><use xlink:href="#k91" fill="#2C509A"></use></svg>