<svg xmlns:xlink="http://www.w3.org/1999/xlink" xmlns="http://www.w3.org/2000/svg" class="mainmenu-icon mainmenu-icon-k227" width="15"  height="32" ><defs><symbol id="k227" xmlns="http://www.w3.org/2000/svg" viewBox="0 0 15 32">
    <path d="M14.56,1.66l-.88-1.03c-.64-.76-1.77-.84-2.51-.17l-3.01,2.72c-.36,.32-.57,.77-.6,1.26-.02,.35,.05,.68,.21,.98-.04,.03-.08,.04-.12,.07l-2.31,2.09c-.62,.56-.94,1.3-.94,2.15v1.04c-.56,.13-.99,.62-.99,1.23,0,.04,.02,.08,.02,.12-1.95,.36-3.44,2.1-3.44,4.21v14.41c0,.7,.55,1.26,1.22,1.26H9.42c.67,0,1.22-.56,1.22-1.26v-14.41c0-2.11-1.49-3.86-3.44-4.21,0-.04,.02-.07,.02-.12,0-.57-.38-1.04-.88-1.21v-1.07c0-.26,.09-.46,.28-.64l2.31-2.1s.04-.06,.06-.08c.3,.29,.68,.47,1.09,.5,.04,0,.08,0,.12,0,.43,0,.84-.16,1.17-.45l3.01-2.72c.74-.67,.81-1.83,.17-2.59Zm-6.36,14.67v13.15H2.44v-13.15c0-.98,.77-1.77,1.72-1.77h2.33c.95,0,1.72,.79,1.72,1.77Zm2.03-11l-.64-.76,2.74-2.48,.65,.76-2.74,2.48Z"></path>
  </symbol></defs><use xlink:href="#k227"></use></svg>