<svg xmlns:xlink="http://www.w3.org/1999/xlink" xmlns="http://www.w3.org/2000/svg" class="mainmenu-icon mainmenu-icon-k85" width="29"  height="32" ><defs><symbol id="k85" xmlns="http://www.w3.org/2000/svg" viewBox="0 0 29 32">
    <path d="M25.23,9.84v-3.78c0-3.34-2.69-6.06-5.99-6.06s-5.99,2.72-5.99,6.06V25.94c0,1.98-1.59,3.6-3.56,3.6s-3.56-1.61-3.56-3.6v-4.01c2.19-.53,3.83-2.52,3.83-4.9v-7.76c0-1.3-1.04-2.35-2.33-2.35H2.33c-1.28,0-2.33,1.06-2.33,2.35v7.76c0,2.33,1.58,4.28,3.7,4.86v4.05c0,3.34,2.69,6.06,5.99,6.06s5.99-2.72,5.99-6.06V6.06c0-1.98,1.6-3.6,3.56-3.6s3.56,1.61,3.56,3.6v3.79c-2.16,.56-3.76,2.52-3.76,4.87v7.76c0,1.3,1.04,2.35,2.33,2.35h5.32c1.28,0,2.33-1.06,2.33-2.35v-7.76c0-2.36-1.61-4.33-3.77-4.88ZM2.43,17.03v-7.65H7.54v7.65c0,1.42-1.15,2.58-2.55,2.58s-2.55-1.16-2.55-2.58Zm24.13,5.34h-5.11v-7.65c0-1.42,1.15-2.58,2.55-2.58s2.55,1.16,2.55,2.58v7.65Z"></path>
    <path d="M22.76,30.36c0,.7,.57,1.27,1.26,1.27h0c.69,0,1.26-.57,1.26-1.27v-4.38h-2.51v4.38Z"></path>
    <path d="M6.24,1.39C6.24,.7,5.68,.12,4.99,.12h0c-.69,0-1.26,.57-1.26,1.27V5.78h2.51V1.39Z"></path>
  </symbol></defs><use xlink:href="#k85" fill="#2C509A"></use></svg>