<svg xmlns:xlink="http://www.w3.org/1999/xlink" xmlns="http://www.w3.org/2000/svg" class="mainmenu-icon mainmenu-icon-k411" width="25"  height="32" ><defs><symbol id="k411" xmlns="http://www.w3.org/2000/svg" viewBox="0 0 25 32">
    <path d="M23.1,15.93h-2.13v-4.67c0-.25-.07-.48-.18-.69-.04-.15-.1-.3-.19-.43L14.05,.78c-.72-1.04-2.39-1.03-3.1,0L4.4,10.14c-.09,.13-.15,.28-.19,.43-.11,.21-.18,.44-.18,.69v4.67H1.9c-1.05,0-1.9,.86-1.9,1.92v12.23c0,1.06,.85,1.92,1.9,1.92H6.84c1.05,0,1.9-.86,1.9-1.92v-1.46c0-2.1,1.69-3.8,3.76-3.8s3.76,1.71,3.76,3.8v1.46c0,1.06,.85,1.92,1.9,1.92h4.94c1.05,0,1.9-.86,1.9-1.92v-12.23c0-1.06-.85-1.92-1.9-1.92ZM12.5,2.89l4.84,6.92H7.66L12.5,2.89ZM6.51,12.32h11.99v3.61H6.51v-3.61Zm-.24,16.3v.88H2.47v-11.07H11.26v4.01c-2.85,.58-5,3.13-5,6.18Zm16.26,.88h-3.79v-.88c0-3.05-2.15-5.6-5-6.18v-4.01h8.79v11.07Z"></path>
  </symbol></defs><use xlink:href="#k411" fill="#2C509A"></use></svg>