<svg xmlns:xlink="http://www.w3.org/1999/xlink" xmlns="http://www.w3.org/2000/svg" class="mainmenu-icon mainmenu-icon-k161" width="32"  height="20" ><defs><symbol id="k161" xmlns="http://www.w3.org/2000/svg" viewBox="0 0 32 20">
    <path d="M25.49,6.92c-.72,0-1.41,.12-2.06,.34L20.16,.49c-.14-.3-.45-.49-.77-.49h-2.66c-.48,0-.86,.39-.86,.87s.39,.87,.86,.87h2.12l.98,2.03h-7.97l-.62-1.25c-.15-.29-.44-.48-.77-.48h-1.55c-.48,0-.86,.39-.86,.87,0,.48,.39,.86,.86,.86h1.02l.42,.86-1.51,2.74c-.73-.28-1.51-.44-2.33-.44C2.92,6.92,0,9.85,0,13.46s2.92,6.54,6.51,6.54c3.32,0,6.07-2.52,6.46-5.75h.51c.33,.98,1.25,1.69,2.33,1.69,1.36,0,2.47-1.12,2.47-2.49,0-.55-.18-1.05-.49-1.47l3.32-5.57,.77,1.59c-1.75,1.17-2.9,3.17-2.9,5.44,0,3.61,2.92,6.54,6.51,6.54s6.51-2.93,6.51-6.54-2.92-6.54-6.51-6.54Zm-14.21-.41l2.64,5.36c-.17,.2-.31,.41-.41,.66h-.57c-.26-1.77-1.22-3.31-2.59-4.33l.93-1.69Zm-1.98,3.59c.73,.62,1.27,1.46,1.48,2.43h-2.82l1.34-2.43Zm-2.8,7.77c-2.42,0-4.38-1.98-4.38-4.41s1.97-4.41,4.38-4.41c.45,0,.87,.09,1.28,.21l-2.04,3.7c-.15,.27-.14,.59,.01,.86s.44,.43,.74,.43h4.3c-.37,2.05-2.16,3.61-4.3,3.61Zm9.3-3.65c-.41,0-.75-.34-.75-.76s.34-.76,.75-.76,.75,.34,.75,.76-.34,.76-.75,.76Zm.55-3.18c-.18-.04-.36-.07-.55-.07-.13,0-.26,.02-.38,.04l-2.72-5.52h6.96l-3.31,5.55Zm9.13,6.82c-2.42,0-4.38-1.98-4.38-4.41,0-1.42,.68-2.67,1.72-3.48l1.9,3.93c.15,.31,.46,.49,.77,.49,.13,0,.25-.03,.38-.09,.43-.21,.61-.73,.4-1.16l-1.9-3.94c.36-.1,.73-.16,1.12-.16,2.42,0,4.38,1.98,4.38,4.41s-1.97,4.41-4.38,4.41Z"></path>
  </symbol></defs><use xlink:href="#k161" fill="#2C509A"></use></svg>