<svg xmlns:xlink="http://www.w3.org/1999/xlink" xmlns="http://www.w3.org/2000/svg" class="mainmenu-icon mainmenu-icon-k1411" width="20"  height="32" ><defs><symbol id="k1411" xmlns="http://www.w3.org/2000/svg" viewBox="0 0 20 32">
    <path d="M15.06,14.83l.9-3.73c.09-.37,0-.77-.23-1.07-.23-.3-.59-.48-.97-.48H5.62c-.38,0-.74,.18-.97,.48-.24,.3-.32,.7-.23,1.07l.86,3.54c-3.23,1.7-5.27,4.99-5.27,8.66,0,3.43,1.77,6.55,4.74,8.36,.35,.22,.77,.33,1.19,.33H14.07c.42,0,.83-.11,1.19-.33,2.97-1.81,4.74-4.93,4.74-8.36s-1.91-6.73-4.94-8.48Zm-.98,14.67l-8.05,.03c-2.22-1.35-3.54-3.67-3.54-6.22,0-3,1.84-5.66,4.69-6.79,.58-.23,.9-.85,.75-1.46l-.72-3h5.98l-.76,3.14c-.14,.59,.15,1.19,.7,1.44,2.67,1.19,4.4,3.81,4.4,6.67,0,2.54-1.32,4.87-3.45,6.19Z"></path>
    <path d="M7.63,8.64h4.74c.31,0,.61-.12,.84-.33,.98-.9,1.54-2.19,1.54-3.52,0-2.64-2.13-4.78-4.74-4.78S5.26,2.15,5.26,4.78c0,1.34,.56,2.62,1.54,3.52,.23,.21,.53,.33,.84,.33Zm2.37-6.14c1.25,0,2.26,1.02,2.26,2.28,0,.5-.15,.97-.44,1.35h-3.65c-.29-.39-.44-.86-.44-1.35,0-1.26,1.02-2.28,2.27-2.28Z"></path>
  </symbol></defs><use xlink:href="#k1411"></use></svg>