<svg xmlns:xlink="http://www.w3.org/1999/xlink" xmlns="http://www.w3.org/2000/svg" class="mainmenu-icon mainmenu-icon-k663" width="32"  height="32" ><defs><symbol id="k663" xmlns="http://www.w3.org/2000/svg" viewBox="0 0 32 32">
    <path d="M31.38,10.62L23.02,2.08c-.69-.71-1.9-.71-2.58,0l-.29,.3c-.41,.42-1.08,.42-1.5,0l-1.8-1.84c-.69-.71-1.9-.71-2.58,0l-2.27,2.32c-.4,.41-.62,.95-.62,1.52s.22,1.12,.62,1.52l4.04,4.13L.65,25.73c-.42,.43-.65,1-.65,1.61s.23,1.18,.65,1.61l2.33,2.39c.43,.44,1,.67,1.58,.67s1.14-.22,1.58-.67l15.37-15.7,2.49,2.54c.4,.41,.93,.63,1.49,.63s1.09-.22,1.49-.63l4.41-4.5c.4-.41,.62-.95,.62-1.52s-.22-1.12-.62-1.52ZM4.56,29.33l-1.95-1.99,15.18-15.51,1.95,1.99L4.56,29.33Zm20.92-13.25l-3.82-3.9-3.87-3.96h0l-3.77-3.85,1.52-1.55,1.33,1.36c1.33,1.36,3.45,1.41,4.85,.18l7.62,7.79-3.85,3.94Z"></path>
  </symbol></defs><use xlink:href="#k663"></use></svg>