<svg xmlns:xlink="http://www.w3.org/1999/xlink" xmlns="http://www.w3.org/2000/svg" class="mainmenu-icon mainmenu-icon-k431" width="32"  height="20" ><defs><symbol id="k431" xmlns="http://www.w3.org/2000/svg" viewBox="0 0 32 20">
    <path d="M30.75,17.46h-3.16l-.9-2.89c3.3-.35,4.81-1.09,5.18-2.44,.48-1.73-1.46-3.04-2.1-3.47-3.24-2.19-7.49-4.74-10.4-6.46-1.87-1.11-3.41-.74-5.31,1.29l-1.64,1.75c-.13,.13-.23,.15-.36,.14-1.18-.05-3.26-2.44-4.15-3.46-.19-.22-.37-.42-.52-.59C7.07,.98,6.08-.14,4.79,.01c-.49,.06-1.18,.33-1.7,1.27-.4,.73-1.06,2.72-1.32,3.54C.26,9.51,.05,11.57,.97,12.97c.75,1.16,2.07,1.42,3.13,1.51,.83,.08,1.75,.14,2.73,.19l-1.29,2.79H1.25c-.69,0-1.25,.57-1.25,1.27s.56,1.27,1.25,1.27H30.75c.69,0,1.25-.57,1.25-1.27s-.56-1.27-1.25-1.27ZM3.05,11.57c-.37-.57,0-2.57,1.09-5.97,.47-1.46,.84-2.46,1.04-2.91,.09,.08,.22,.2,.37,.36,.14,.16,.3,.34,.49,.55,1.86,2.13,3.84,4.22,5.91,4.32,.83,.05,1.58-.25,2.23-.88l1.69-1.8c1.3-1.39,1.63-1.2,2.23-.84,2.89,1.71,7.09,4.23,10.27,6.38,.44,.3,.71,.53,.87,.69-.53,.23-1.91,.63-5.41,.77-5.46,.23-14.25,.19-19.52-.29-.7-.06-1.14-.2-1.26-.38Zm6.48,3.22c2.26,.08,4.68,.12,7.02,.12,2.7,0,5.29-.05,7.39-.14,.06,0,.12,0,.18,0l.84,2.7H8.3l1.23-2.67Z"></path>
  </symbol></defs><use xlink:href="#k431"></use></svg>