<svg xmlns:xlink="http://www.w3.org/1999/xlink" xmlns="http://www.w3.org/2000/svg" class="mainmenu-icon mainmenu-icon-k765" width="27"  height="32" ><defs><symbol id="k765" xmlns="http://www.w3.org/2000/svg" viewBox="0 0 27 32">
    <path d="M19.58,9.41v-3.22c0-3.41-2.73-6.19-6.08-6.19S7.41,2.78,7.41,6.19v3.22H0V25.74c0,3.45,2.76,6.26,6.15,6.26h14.7c3.39,0,6.15-2.81,6.15-6.26V9.41h-7.42Zm-9.71-3.22c0-2.03,1.63-3.69,3.63-3.69s3.63,1.65,3.63,3.69v3.22h-7.25v-3.22Zm14.67,19.56c0,2.07-1.66,3.76-3.69,3.76H6.15c-2.04,0-3.69-1.69-3.69-3.76V11.91H7.41v3.75c0,.69,.55,1.25,1.23,1.25s1.23-.56,1.23-1.25v-3.75h7.25v3.75c0,.69,.55,1.25,1.23,1.25s1.23-.56,1.23-1.25v-3.75h4.96v13.83Z"></path>
  </symbol></defs><use xlink:href="#k765" fill="#2C509A"></use></svg>