<svg xmlns:xlink="http://www.w3.org/1999/xlink" xmlns="http://www.w3.org/2000/svg" class="mainmenu-icon mainmenu-icon-k407" width="20"  height="32" ><defs><symbol id="k407" xmlns="http://www.w3.org/2000/svg" viewBox="0 0 20 32">
    <path d="M15.39,6.88v-1.02c0-3.23-2.68-5.86-5.98-5.86h-3.43C2.68,0,0,2.63,0,5.86V28.91c0,1.71,1.42,3.09,3.16,3.09H12.23c1.74,0,3.16-1.39,3.16-3.09v-10.24c2.56-.07,4.61-2.12,4.61-4.64v-2.51c0-2.52-2.06-4.57-4.61-4.64Zm-2.55,4.31H2.55v-2.33H12.84v2.33ZM2.55,13.19H12.84v12.11H2.55V13.19ZM5.98,2.5h3.43c1.89,0,3.43,1.51,3.43,3.36v1.01H2.55v-1.01c0-1.85,1.54-3.36,3.43-3.36Zm6.25,27H3.16c-.33,0-.61-.27-.61-.59v-1.6H12.84v1.6c0,.33-.27,.59-.61,.59Zm5.73-15.47c0,1.42-1.14,2.57-2.57,2.64v-7.79c1.43,.07,2.57,1.22,2.57,2.64v2.51Z"></path>
  </symbol></defs><use xlink:href="#k407"></use></svg>