<svg xmlns:xlink="http://www.w3.org/1999/xlink" xmlns="http://www.w3.org/2000/svg" class="mainmenu-icon mainmenu-icon-k595" width="24"  height="32" ><defs><symbol id="k595" xmlns="http://www.w3.org/2000/svg" viewBox="0 0 24 32">
    <path d="M24,16c0-4-2.01-7.54-5.09-9.69V3.35c0-1.85-1.52-3.35-3.38-3.35h-7.06c-1.87,0-3.38,1.5-3.38,3.35v2.96C2.01,8.46,0,12,0,16s2.01,7.54,5.09,9.69v2.96c0,1.85,1.52,3.35,3.38,3.35h7.06c1.86,0,3.38-1.5,3.38-3.35v-2.96c3.07-2.15,5.09-5.69,5.09-9.69ZM7.61,3.35c0-.46,.39-.85,.86-.85h7.06c.46,0,.86,.39,.86,.85v1.61c-1.36-.53-2.84-.83-4.39-.83s-3.03,.3-4.39,.83v-1.61ZM2.53,16c0-5.17,4.25-9.38,9.47-9.38s9.47,4.21,9.47,9.38-4.25,9.38-9.47,9.38S2.53,21.17,2.53,16Zm13.86,12.65c0,.47-.38,.85-.86,.85h-7.06c-.47,0-.86-.38-.86-.85v-1.61c1.36,.53,2.84,.83,4.39,.83s3.03-.3,4.39-.83v1.61Z"></path>
    <path d="M12.03,17.72c.19,.16,.42,.25,.67,.25,.02,0,.05,0,.07,0,.27-.02,.52-.14,.7-.35l3.91-4.54c.36-.42,.31-1.05-.11-1.41-.43-.36-1.06-.31-1.42,.11l-3.24,3.76-4.97-4.35c-.42-.37-1.06-.33-1.43,.09-.37,.41-.33,1.05,.09,1.41l5.74,5.02Z"></path>
  </symbol></defs><use xlink:href="#k595" fill="#2C509A"></use></svg>