<svg xmlns:xlink="http://www.w3.org/1999/xlink" xmlns="http://www.w3.org/2000/svg" class="mainmenu-icon mainmenu-icon-k998" width="19"  height="32" ><defs><symbol id="k998" xmlns="http://www.w3.org/2000/svg" viewBox="0 0 19 32">
    <path d="M18.42,.1c-.14-.07-.3-.09-.45-.09-.02,0-.03,0-.05,0H1.16s-.03,0-.04,0c-.18-.02-.37,0-.54,.09-.35,.17-.58,.52-.58,.91v3.93c0,.21,.07,.42,.19,.59l4.29,5.94c.16,.22,.39,.36,.66,.4,.05,0,.1,.01,.15,.01,.21,0,.42-.07,.6-.2l.07-.05,.69,2.11-1.66,6.44h-.69c-.51,0-.93,.42-.93,.93h0c0,.51,.42,.93,.93,.93h.21l-.75,2.93c-.1,.39,0,.8,.24,1.11l4.41,5.44c.23,.29,.58,.46,.95,.46h.02c.36,0,.71-.16,.95-.44l4.65-5.44c.27-.31,.37-.74,.26-1.14l-2.89-11.25,.69-2.11,.07,.05c.17,.13,.38,.2,.6,.2,.05,0,.1,0,.15-.01,.26-.04,.5-.19,.66-.4l4.29-5.94c.12-.17,.19-.38,.19-.59V1.01c0-.39-.22-.75-.58-.91ZM9.56,6.76s-.09-.02-.14-.02l-1.88-1.57h3.92l-1.91,1.59Zm4.32-3.61H5.13l-1.36-1.13H15.23l-1.36,1.13ZM2,4.61v-1.45L7.59,7.83l-1.03,.84-1.05,.79L2,4.61Zm8.2,7.65h-1.4l-.56-1.72,1.17-.96,1.34,1-.55,1.68Zm-.8,16.52l-3.06-3.78,.76-2.95h3.07c.51,0,.93-.42,.93-.93h0c0-.51-.42-.93-.93-.93h-2.59l1.39-5.41h1.06l2.62,10.2-3.25,3.8ZM17,4.61l-3.51,4.85-2.12-1.6,5.63-4.71v1.45Z"></path>
  </symbol></defs><use xlink:href="#k998" fill="#2C509A"></use></svg>