<svg xmlns:xlink="http://www.w3.org/1999/xlink" xmlns="http://www.w3.org/2000/svg" class="mainmenu-icon mainmenu-icon-k218" width="22"  height="32" ><defs><symbol id="k218" xmlns="http://www.w3.org/2000/svg" viewBox="0 0 22 32">
    <path d="M21.13,30.28h-3.45c-1.18,0-2.14-.94-2.14-2.11v-1.79c.86-.06,1.54-.76,1.54-1.63v-.46h.68c1.46,0,2.64-1.17,2.64-2.61V2.61c0-1.44-1.19-2.61-2.64-2.61H4.24C2.78,0,1.6,1.17,1.6,2.61V21.68c0,1.44,1.19,2.61,2.64,2.61h.71v.46c0,.85,.66,1.55,1.51,1.62v1.79c0,1.16-.96,2.11-2.14,2.11H.87c-.48,0-.87,.38-.87,.86s.39,.86,.87,.86h3.45c2.14,0,3.88-1.72,3.88-3.83v-1.79c.86-.06,1.55-.76,1.55-1.63v-.46h2.52v.46c0,.86,.67,1.55,1.52,1.62v1.79c0,2.11,1.74,3.83,3.88,3.83h3.45c.48,0,.87-.39,.87-.86s-.39-.86-.87-.86ZM4.17,21.68V2.61s.04-.08,.08-.08h13.52s.08,.04,.08,.08V21.68s-.04,.08-.08,.08H4.24s-.08-.04-.08-.08Zm3.84,2.99h-1.31v-.38h1.31v.38Zm7.32-.38v.38h-1.31v-.38h1.31Z"></path>
    <path d="M11,13.86c-1.82,0-3.31,1.46-3.31,3.26s1.48,3.26,3.31,3.26,3.31-1.46,3.31-3.26-1.48-3.26-3.31-3.26Zm0,4.8c-.86,0-1.56-.69-1.56-1.54,0-.53,.27-1,.69-1.28v.17c0,.48,.39,.86,.87,.86s.87-.39,.87-.86v-.17c.42,.28,.69,.75,.69,1.28,0,.85-.7,1.54-1.56,1.54Z"></path>
  </symbol></defs><use xlink:href="#k218" fill="#2C509A"></use></svg>