<svg xmlns:xlink="http://www.w3.org/1999/xlink" xmlns="http://www.w3.org/2000/svg" class="mainmenu-icon mainmenu-icon-k332" width="32"  height="30" ><defs><symbol id="k332" xmlns="http://www.w3.org/2000/svg" viewBox="0 0 32 30">
    <path d="M28.82,20.17v-1c0-1.43-1.15-2.59-2.55-2.59h-.79v-1.62c0-1.43-1.15-2.59-2.55-2.59H13c-1.41,0-2.55,1.16-2.55,2.59v1.62h-1.17L6.76,1.06c-.1-.61-.62-1.06-1.23-1.06H1.25C.56,0,0,.57,0,1.27s.56,1.27,1.25,1.27h3.21l2.28,14.05H3.39c-.85,0-1.71,.44-2.19,1.12-.4,.56-.51,1.24-.3,1.87l1.54,4.62c.6,1.8,1.68,2.18,2.49,2.18h1.77c.63,2.09,2.53,3.63,4.8,3.63s4.17-1.54,4.8-3.63h5.88c.63,2.09,2.53,3.63,4.8,3.63,2.78,0,5.04-2.29,5.04-5.1,0-2.15-1.32-3.98-3.18-4.73Zm-15.82-5.26l9.99,.05v1.29H12.97l.03-1.34ZM4.81,23.38l-1.42-4.27h0l22.93,.05v.67c-.08,0-.15,.03-.22,.05-.1,.02-.21,.04-.31,.07-.21,.05-.41,.11-.6,.19-.09,.03-.18,.06-.26,.1-.27,.12-.52,.26-.76,.42h-.01c-.24,.18-.47,.37-.68,.58-.07,.06-.12,.13-.19,.2-.14,.15-.27,.31-.39,.48-.06,.08-.12,.17-.17,.25-.11,.18-.21,.37-.3,.56-.04,.08-.08,.16-.11,.24-.11,.27-.2,.56-.27,.85h-5.62c-.06-.31-.16-.6-.27-.88-.03-.09-.08-.16-.12-.24-.09-.2-.19-.39-.31-.58-.06-.1-.13-.19-.2-.28-.11-.15-.23-.3-.36-.45-.08-.09-.17-.17-.26-.26-.14-.13-.28-.24-.43-.36-.1-.07-.2-.14-.3-.21-.16-.1-.33-.19-.5-.27-.11-.05-.21-.11-.32-.15-.19-.08-.39-.13-.6-.19-.1-.03-.2-.06-.3-.08-.31-.06-.63-.1-.95-.1s-.64,.04-.95,.1c-.1,.02-.2,.06-.3,.08-.2,.05-.4,.11-.6,.19-.11,.04-.22,.1-.32,.15-.17,.08-.34,.17-.5,.27-.1,.07-.2,.14-.3,.21-.15,.11-.29,.23-.43,.36-.09,.08-.18,.17-.26,.26-.13,.14-.25,.29-.36,.45-.07,.09-.14,.18-.2,.28-.12,.18-.22,.38-.31,.58-.04,.08-.09,.16-.12,.24-.12,.28-.21,.58-.27,.88h-1.55c-.04-.06-.12-.19-.2-.46Zm6.68,4.09c-1.4,0-2.54-1.15-2.54-2.57s1.14-2.57,2.54-2.57,2.54,1.15,2.54,2.57-1.14,2.57-2.54,2.57Zm15.47,0c-1.4,0-2.54-1.15-2.54-2.57s1.14-2.57,2.54-2.57,2.54,1.15,2.54,2.57-1.14,2.57-2.54,2.57Z"></path>
  </symbol></defs><use xlink:href="#k332" fill="#2C509A"></use></svg>