<svg xmlns:xlink="http://www.w3.org/1999/xlink" xmlns="http://www.w3.org/2000/svg" class="mainmenu-icon mainmenu-icon-k429" width="19"  height="32" ><defs><symbol id="k429" xmlns="http://www.w3.org/2000/svg" viewBox="0 0 19 32">
    <path d="M4.33,0h-1.29C1.37,0,0,1.36,0,3.04V28.96c0,1.68,1.37,3.04,3.05,3.04h1.29c1.68,0,3.05-1.36,3.05-3.04V3.04c0-1.68-1.37-3.04-3.05-3.04Zm-1.29,2.5h1.29c.29,0,.54,.25,.54,.54V11.41H2.51V3.04c0-.29,.25-.54,.54-.54Zm1.73,11.41v5.4H2.6v-5.4h2.18Zm-.45,15.59h-1.29c-.29,0-.54-.25-.54-.54v-7.15h2.36v7.15c0,.29-.25,.54-.54,.54Z"></path>
    <path d="M15.95,0h-1.28c-1.68,0-3.05,1.36-3.05,3.04V28.96c0,1.68,1.37,3.04,3.05,3.04h1.28c1.68,0,3.05-1.36,3.05-3.04V3.04c0-1.68-1.37-3.04-3.05-3.04Zm-1.28,2.5h1.28c.29,0,.54,.25,.54,.54V11.41h-2.36V3.04c0-.29,.25-.54,.54-.54Zm1.73,11.41v5.4h-2.18v-5.4h2.18Zm-.45,15.59h-1.28c-.29,0-.54-.25-.54-.54v-7.15h2.36v7.15c0,.29-.25,.54-.54,.54Z"></path>
  </symbol></defs><use xlink:href="#k429"></use></svg>