<svg xmlns:xlink="http://www.w3.org/1999/xlink" xmlns="http://www.w3.org/2000/svg" class="mainmenu-icon mainmenu-icon-k996" width="32"  height="32" ><defs><symbol id="k996" xmlns="http://www.w3.org/2000/svg" viewBox="0 0 32 32">
    <path d="M31.42,5.84l.04-.04L26.33,.68l-.02,.02c-3.13-2.98-11.94,4.19-16.68,8.93-3.26,3.25-6,6.65-7.73,9.56C-.16,22.65-.55,25.06,.74,26.35c.05,.05,.11,.08,.16,.13l4.78,4.77-.02,.02s.1,.08,.15,.12l.02,.02h0c.49,.4,1.1,.59,1.8,.59,2.67,0,6.52-2.59,9.16-4.66,.24,.06,.48,.11,.72,.11,.71,0,1.41-.27,1.95-.81l7.3-7.3c.52-.52,.81-1.21,.81-1.95,0-.26-.05-.5-.11-.74,2.55-3.29,5.9-8.45,3.95-10.81Zm-5.52,8.74l-3.13-3.13c1.53-2,3.26-4.57,3.98-6.81l2.75,2.75h-.01c.25,.49-.37,2.92-3.59,7.19Zm-14.5-3.18C17.68,5.12,22.78,2.43,24.27,2.43c.13,0,.22,.02,.3,.06,.26,.5-.42,3.13-4.04,7.77-.01,0-.02,0-.03,0-.13,0-.25,0-.38,.02-.06,0-.11,0-.16,.02-.16,.03-.32,.07-.48,.13-.01,0-.03,0-.04,.01-.35,.13-.67,.34-.95,.62l-7.3,7.3h0c-.14,.14-.26,.29-.36,.45-.02,.03-.03,.05-.04,.08-.08,.14-.16,.28-.21,.42-.02,.04-.02,.09-.04,.13-.04,.13-.08,.27-.11,.4-.01,.06-.01,.12-.02,.18-.01,.12-.02,.24-.02,.36,0,.02,0,.04,0,.06-4.58,3.59-7.23,4.35-7.79,4.18l-.06-.06c-.44-1.09,2.17-6.44,8.88-13.16Zm-3.93,18.11l-2.79-2.79c2.27-.74,4.88-2.51,6.9-4.06l3.13,3.13c-4.24,3.22-6.69,3.9-7.24,3.72Zm17.53-11.93l-7.3,7.3c-.1,.1-.26,.1-.36,0l-4.39-4.39s-.06-.1-.06-.15c0-.01,0-.03,0-.04,0-.06,.02-.12,.07-.17l3.65-3.65,3.65-3.65c.07-.07,.17-.08,.25-.06,.04,.01,.07,.02,.11,.06l1.45,1.45-3.14,3.14c-.41,.41-.41,1.08,0,1.49h0c.41,.41,1.08,.41,1.49,0l3.14-3.14,1.45,1.45c.06,.06,.07,.13,.07,.18s-.01,.12-.07,.18Z"></path>
  </symbol></defs><use xlink:href="#k996" fill="#2C509A"></use></svg>