<svg xmlns:xlink="http://www.w3.org/1999/xlink" xmlns="http://www.w3.org/2000/svg" class="mainmenu-icon mainmenu-icon-k236" width="27"  height="32" ><defs><symbol id="k236" xmlns="http://www.w3.org/2000/svg" viewBox="0 0 27 32">
    <path d="M26.76,27.91l-8.79-11.97s-.03-.02-.04-.03c0-.08,.02-.15,.02-.23v-6.52c0-1.11-.89-2-1.97-2h-1.36V3.09l1.62-.68c.63-.26,.92-1,.67-1.63-.26-.64-.98-.94-1.61-.68l-4.77,2.01c-.63,.26-.92,1-.67,1.63,.2,.48,.65,.77,1.14,.77,.16,0,.32-.03,.47-.1l.68-.29v3.03h-1.36c-1.09,0-1.97,.9-1.97,2v6.52c0,.1,.02,.2,.03,.3L.24,28c-.4,.56-.28,1.34,.27,1.75,.22,.16,.47,.24,.72,.24,.38,0,.75-.18,1-.51l8.47-11.81s.07,.01,.11,.01h1.36v13.07c0,.69,.55,1.25,1.23,1.25s1.23-.56,1.23-1.25v-13.07h1.36c.06,0,.12-.01,.18-.02l8.62,11.74c.24,.33,.61,.5,.99,.5,.26,0,.51-.08,.73-.25,.54-.41,.66-1.2,.25-1.75ZM15.49,15.18h-4.2v-5.53h4.2v5.53Z"></path>
  </symbol></defs><use xlink:href="#k236" fill="#2C509A"></use></svg>