<svg xmlns:xlink="http://www.w3.org/1999/xlink" xmlns="http://www.w3.org/2000/svg" id="a" width="96" height="84" viewBox="0 0 96 84"><defs><style>.b{fill:#2c509b}</style></defs><path fill="#748dbf" d="M18.83 83.99c-1.44 0-2.84-.43-4.03-1.3-2.18-1.58-3.09-4.23-2.38-6.89.94-3.52 1.99-8.54 1.96-13.41C5.21 55.59 0 46.2 0 36.39 0 16.32 21.53 0 48 0s48 16.32 48 36.39-21.53 36.39-48 36.39c-2.07 0-4.17-.1-6.25-.31-8.82 5.43-17.68 9.78-19.08 10.45-1.2.72-2.53 1.08-3.84 1.08ZM48 7.35c-22.41 0-40.64 13.03-40.64 29.04 0 7.99 4.51 15.46 12.7 21.04.94.64 1.54 1.67 1.61 2.81.29 4.67-.29 10-1.72 15.83 2.38-1.17 10.97-5.47 18.99-10.5.71-.45 1.56-.63 2.39-.53 2.22.26 4.47.4 6.68.4 22.41 0 40.65-13.03 40.65-29.04S70.41 7.35 48 7.35Z"/><path d="M41.81 18.43c1.98-1.05 4.12-1.39 6.19-1.39 2.4 0 5.19.79 7.45 2.64 2.36 1.94 3.97 4.89 3.97 8.76 0 4.44-3.14 6.86-4.92 8.21-.14.11-.27.2-.38.3-1.94 1.52-2.68 2.34-2.68 4.02 0 1.89-1.54 3.42-3.42 3.42s-3.42-1.53-3.42-3.42c0-5.17 3.24-7.79 5.3-9.4 2.34-1.84 2.68-2.25 2.68-3.14 0-1.8-.68-2.84-1.46-3.47-.88-.72-2.09-1.08-3.11-1.08-1.35 0-2.27.22-2.96.59-.65.35-1.35.96-2.02 2.2-.9 1.66-2.98 2.28-4.64 1.37-1.67-.9-2.28-2.98-1.38-4.63 1.21-2.22 2.79-3.89 4.81-4.96v-.02ZM48 58.06c2.52 0 4.57-2.05 4.57-4.56s-2.05-4.56-4.57-4.56-4.57 2.05-4.57 4.56 2.05 4.56 4.57 4.56Z" class="b"/></svg>