<svg xmlns:xlink="http://www.w3.org/1999/xlink" xmlns="http://www.w3.org/2000/svg" class="mainmenu-icon mainmenu-icon-k84" width="32"  height="32" ><defs><symbol id="k84" xmlns="http://www.w3.org/2000/svg" viewBox="0 0 32 32">
    <path d="M29.11,2.95H2.89c-1.59,0-2.89,1.29-2.89,2.88V29.12c0,1.59,1.3,2.88,2.89,2.88H29.11c1.59,0,2.89-1.29,2.89-2.88V5.83c0-1.59-1.3-2.88-2.89-2.88ZM2.89,5.45H29.11c.2,0,.38,.17,.38,.38v4.84H2.51V5.83c0-.2,.17-.38,.38-.38ZM29.11,29.5H2.89c-.2,0-.38-.17-.38-.38V12.1H29.49V29.12c0,.2-.17,.38-.38,.38Z"></path>
    <path d="M23.9,14.69H8.1c-1.73,0-3.14,1.41-3.14,3.13v6.03c0,1.73,1.41,3.13,3.14,3.13h15.79c1.73,0,3.14-1.41,3.14-3.13v-6.03c0-1.73-1.41-3.13-3.14-3.13Zm1.14,9.16c0,.62-.51,1.13-1.14,1.13H8.1c-.63,0-1.14-.51-1.14-1.13v-6.03c0-.62,.51-1.13,1.14-1.13h15.79c.63,0,1.14,.51,1.14,1.13v6.03Z"></path>
    <path d="M6.97,9.48c.8,0,1.45-.65,1.45-1.44s-.65-1.44-1.45-1.44-1.45,.65-1.45,1.44,.65,1.44,1.45,1.44Z"></path>
    <path d="M12.99,9.48c.8,0,1.45-.65,1.45-1.44s-.65-1.44-1.45-1.44-1.45,.65-1.45,1.44,.65,1.44,1.45,1.44Z"></path>
    <path d="M19.01,9.48c.8,0,1.45-.65,1.45-1.44s-.65-1.44-1.45-1.44-1.45,.65-1.45,1.44,.65,1.44,1.45,1.44Z"></path>
    <path d="M25.03,9.48c.8,0,1.45-.65,1.45-1.44s-.65-1.44-1.45-1.44-1.45,.65-1.45,1.44,.65,1.44,1.45,1.44Z"></path>
    <rect x="6.33" width="5.42" height="2.09"></rect>
    <rect x="20.25" width="5.42" height="2.09"></rect>
  </symbol></defs><use xlink:href="#k84"></use></svg>