<svg xmlns:xlink="http://www.w3.org/1999/xlink" xmlns="http://www.w3.org/2000/svg" class="mainmenu-icon mainmenu-icon-k405" width="32"  height="17" ><defs><symbol id="k405" xmlns="http://www.w3.org/2000/svg" viewBox="0 0 32 17">
    <path d="M31.17,1.65c-.5-.18-1.06-.02-1.39,.4l-3.7,4.61C19.1-.56,10.09-2.1,3.82,2.99c-.74,.6-1.85,1.71-2.66,2.81C.48,6.73,.1,7.53,.02,8.24c-.25,2.03,2.51,4.57,3.7,5.57,2.47,2.06,5.36,3.1,8.39,3.17,.04,0,.07,.01,.11,.01,.02,0,.03,0,.05,0,.06,0,.12,0,.19,0,4.58,0,9.44-2.21,13.59-6.46l3.65,4.86c.32,.43,.88,.6,1.39,.44,.51-.17,.85-.64,.86-1.18l.06-11.81c0-.53-.33-1.01-.83-1.18ZM2.5,8.54c0-.07,.08-.45,.68-1.28,.67-.92,1.62-1.86,2.22-2.34,1.7-1.38,3.65-2.15,5.73-2.35,2,4.22,2.11,8.1,.34,11.84-2.22-.19-4.33-1.01-6.14-2.52-1.59-1.33-2.8-2.88-2.82-3.35Zm11.74,5.79c1.42-3.73,1.3-7.65-.35-11.7,3.59,.48,7.34,2.51,10.57,5.94-3.14,3.31-6.74,5.26-10.23,5.76Zm15.22-3.4l-1.75-2.32,1.77-2.2-.02,4.52Z"></path>
    <path d="M8.37,5.86c-.63,0-1.14,.51-1.14,1.14s.51,1.14,1.14,1.14,1.14-.51,1.14-1.14-.51-1.14-1.14-1.14Z"></path>
  </symbol></defs><use xlink:href="#k405"></use></svg>