<svg xmlns:xlink="http://www.w3.org/1999/xlink" xmlns="http://www.w3.org/2000/svg" class="mainmenu-icon mainmenu-icon-k339" width="29"  height="32" ><defs><symbol id="k339" xmlns="http://www.w3.org/2000/svg" viewBox="0 0 29 32">
    <path d="M10.26,7.49h8.19c1.41,0,2.43-1.07,2.44-2.55C20.91,2.93,18.91,.05,14.44,0c-3.89-.05-5.51,1.99-6.02,2.86-.69,1.17-.78,2.49-.23,3.45,.43,.75,1.19,1.18,2.08,1.18Zm.33-3.39c.3-.49,1.25-1.6,3.82-1.6,2.47,.03,3.43,1.15,3.72,1.64,.24,.39,.28,.71,.26,.86H10.33c-.02-.16,0-.49,.26-.89Z"></path>
    <path d="M27.64,23.62c-.33-.23-1.02-.6-1.98-.46,.33-4.22-1.2-8.01-3.09-12.09-.31-.66-.87-1.89-2.36-2.07-.69-.09-1.39-.16-2.08-.21-2.41-.19-4.85-.19-7.26,0-.69,.05-1.39,.12-2.08,.21-1.49,.19-2.05,1.41-2.36,2.07-1.89,4.08-3.42,7.87-3.08,12.09-.96-.14-1.66,.23-1.98,.46-1.24,.89-1.7,2.81-1.1,4.66,.75,2.33,2.79,3.72,5.46,3.72H23.28c2.67,0,4.72-1.39,5.46-3.72,.59-1.86,.14-3.77-1.1-4.66ZM8.7,12.12c.17-.38,.3-.59,.4-.64,.65-.08,1.31-.15,1.97-.2,2.25-.17,4.63-.17,6.87,0,.66,.05,1.31,.12,2,.2,.07,.04,.19,.26,.37,.63,2.08,4.5,3.59,8.3,2.56,12.73-.07,.08-.14,.16-.2,.23-.73-.18-1.42-.33-2.09-.46,.33-3.36-.37-6.14-1.46-9.81-.18-.59-.5-1.7-1.64-1.92-.36-.07-.73-.13-1.09-.17-1.26-.15-2.53-.15-3.79,0-.36,.04-.73,.1-1.09,.17-1.14,.22-1.46,1.33-1.64,1.92-1.09,3.67-1.79,6.45-1.46,9.81-.67,.13-1.36,.28-2.09,.46-.06-.07-.14-.16-.21-.24-1.04-4.39,.48-8.21,2.57-12.73Zm2.19,12.1c-.25-2.86,.37-5.28,1.39-8.7,.01-.05,.04-.15,.07-.24,.19-.03,.37-.06,.56-.08,1.04-.13,2.15-.13,3.19,0,.19,.02,.37,.05,.56,.08,.03,.09,.06,.19,.07,.24,1.01,3.4,1.63,5.82,1.38,8.71-1.25-.16-2.45-.24-3.66-.25-1.16,0-2.34,.09-3.57,.25Zm15.48,3.3c-.24,.74-.95,1.98-3.08,1.98H5.72c-2.13,0-2.84-1.24-3.08-1.98-.3-.94-.05-1.7,.18-1.87,.03-.02,.07-.03,.12-.03,.17,0,.48,.12,.86,.4,.22,.16,.43,.42,.62,.65,.4,.48,1,1.21,1.97,.97,3.15-.8,5.64-1.16,8.16-1.17,2.44,.01,4.94,.37,8.09,1.17,.96,.25,1.57-.48,1.97-.97,.19-.23,.41-.49,.62-.65,.48-.36,.86-.46,.97-.37,.23,.16,.48,.92,.18,1.87Z"></path>
  </symbol></defs><use xlink:href="#k339" fill="#2C509A"></use></svg>