<svg xmlns:xlink="http://www.w3.org/1999/xlink" xmlns="http://www.w3.org/2000/svg" class="mainmenu-icon mainmenu-icon-k86" width="32"  height="23" ><defs><symbol id="k86" xmlns="http://www.w3.org/2000/svg" viewBox="0 0 32 23">
    <path d="M29.6,0H2.4C1.08,0,0,1.07,0,2.38V20.62c0,1.31,1.08,2.38,2.4,2.38H29.6c1.32,0,2.4-1.07,2.4-2.38V2.38c0-1.31-1.08-2.38-2.4-2.38Zm-.1,20.52H2.5V2.48H29.5V20.52Z"></path>
    <path d="M11.92,19.49h14.02c1.38,0,2.5-1.11,2.5-2.48V5.99c0-1.37-1.12-2.48-2.5-2.48H11.92c-1.38,0-2.5,1.11-2.5,2.48v11.03c0,1.37,1.12,2.48,2.5,2.48Zm-.5-13.51c0-.27,.23-.5,.5-.5h14.02c.27,0,.5,.23,.5,.5v11.03c0,.27-.23,.5-.5,.5H11.92c-.27,0-.5-.23-.5-.5V5.99Z"></path>
    <path d="M5.79,7.9c1.07,0,1.93-.86,1.93-1.92s-.87-1.92-1.93-1.92-1.93,.86-1.93,1.92,.87,1.92,1.93,1.92Z"></path>
  </symbol></defs><use xlink:href="#k86" fill="#2C509A"></use></svg>