<svg xmlns:xlink="http://www.w3.org/1999/xlink" xmlns="http://www.w3.org/2000/svg" class="mainmenu-icon mainmenu-icon-k72" width="27"  height="32" ><defs><symbol id="k72" xmlns="http://www.w3.org/2000/svg" viewBox="0 0 27 32">
    <path d="M16.45,27.37h-5.9c-.47,0-.86,.38-.86,.86s.38,.86,.86,.86h5.9c.47,0,.86-.38,.86-.86s-.38-.86-.86-.86Z"></path>
    <path d="M17.41,19.11c1.03-.56,1.79-1.48,2.12-2.61,.34-1.12,.21-2.31-.35-3.34-.26-.48-.61-.91-1.03-1.26,.42-.32,.79-.72,1.07-1.19,.62-1,.8-2.18,.53-3.32-.27-1.14-.97-2.11-1.97-2.72-1-.62-2.18-.8-3.32-.53-1.14,.27-2.11,.97-2.72,1.97-.28,.46-.47,.97-.57,1.5-.5-.21-1.04-.34-1.59-.35-2.43-.07-4.45,1.85-4.52,4.27s1.85,4.45,4.27,4.51c.04,0,.09,0,.13,0,.52,0,1.02-.11,1.49-.29,.06,.55,.23,1.08,.5,1.59,.79,1.47,2.31,2.3,3.87,2.3,.7,0,1.42-.17,2.08-.53Zm-3.98-5.94c-.24,0-.48-.06-.69-.18l-.04-.02-.04-.02c-.38-.26-.61-.69-.61-1.14,0-.49,.27-.95,.7-1.2l.03-.02h.02c.19-.11,.41-.16,.63-.16,.76,0,1.38,.62,1.38,1.37v.07c-.03,.74-.64,1.31-1.38,1.31Zm.04-6c.33-.54,.86-.92,1.47-1.07,.62-.15,1.26-.04,1.8,.29h0c.54,.33,.92,.86,1.07,1.47s.04,1.26-.29,1.8c-.23,.38-.56,.67-.94,.87-.5-1.25-1.73-2.13-3.15-2.13-.11,0-.21,0-.32,.02,0-.43,.12-.86,.35-1.24Zm-2.83,6.55c-.37,.21-.81,.31-1.24,.3-1.31-.04-2.35-1.13-2.31-2.44,.04-1.31,1.13-2.35,2.44-2.31,.46,.01,.89,.15,1.25,.4-.48,.59-.75,1.34-.75,2.13,0,.7,.21,1.37,.6,1.93Zm4.01,3.81c-.61-.18-1.11-.59-1.41-1.15-.21-.38-.3-.81-.29-1.23,1.51,.22,2.98-.64,3.58-1.96,.37,.22,.68,.53,.89,.92,.3,.56,.37,1.2,.19,1.81-.18,.61-.59,1.11-1.15,1.41-.56,.3-1.2,.37-1.81,.19Z"></path>
    <path d="M22.71,24.45h-4.27v-1.98c4.03-1.87,6.84-5.95,6.84-10.68C25.28,5.28,20,0,13.5,0S1.72,5.28,1.72,11.78c0,4.73,2.81,8.81,6.84,10.68v1.98H4.29c-2.36,0-4.29,1.92-4.29,4.29v1.17c0,1.16,.94,2.1,2.1,2.1H24.9c1.16,0,2.1-.94,2.1-2.1v-1.17c0-2.36-1.92-4.29-4.29-4.29ZM4.24,11.78C4.24,6.67,8.39,2.52,13.5,2.52s9.26,4.16,9.26,9.26-4.16,9.26-9.26,9.26S4.24,16.89,4.24,11.78Zm6.34,11.4c.94,.24,1.91,.38,2.92,.38s1.99-.14,2.92-.38v1.26h-5.85v-1.27Zm14.41,6.72s-.04,.08-.08,.08H2.1s-.08-.04-.08-.08v-1.17c0-1.25,1.02-2.27,2.27-2.27H22.71c1.25,0,2.27,1.02,2.27,2.27v1.17Z"></path>
  </symbol></defs><use xlink:href="#k72"></use></svg>