<svg xmlns:xlink="http://www.w3.org/1999/xlink" class="arr-back-icon" xmlns="http://www.w3.org/2000/svg" viewBox="0 0 19 17" width="19"  height="17" >
                            <path d="M7.97001.680059h-.01c-.25 0-.5.099999-.68.279999L.610014 7.72006c-.09.09-.159999.19-.199999.31-.09.23-.09.49 0 .72.05.12.119999.22.199999.31L7.31001 15.7801c.18.18.41.27.66.28.24 0 .48-.1.66-.27.37-.37.37-.97 0-1.33l-5.1-5.13004H17.45c.52 0 .94-.42.94-.94s-.42-.94-.94-.94H3.54001l5.1-5.13c.36-.37.36-.96 0-1.330001-.17-.18-.42-.280001-.66-.280001l-.01-.029999Z" fill-opacity="0.25" fill="#000000"></path>
                        </svg>