<svg xmlns:xlink="http://www.w3.org/1999/xlink" xmlns="http://www.w3.org/2000/svg" class="mainmenu-icon mainmenu-icon-k1104" width="25"  height="32" ><defs><symbol id="k1104" xmlns="http://www.w3.org/2000/svg" viewBox="0 0 25 32">
    <path d="M22.33,6.36v-1.27c0-2.81-2.17-5.09-4.83-5.09H7.51C4.84,0,2.67,2.29,2.67,5.09v1.27c-1.6,1.03-2.67,2.83-2.67,4.88v14.97c0,3.19,2.57,5.78,5.73,5.78h13.54c3.16,0,5.73-2.59,5.73-5.78V11.25c0-2.06-1.07-3.86-2.67-4.88Zm.2,17.42h-6.54c-1.24,0-2.25-1.02-2.25-2.27v-5.57c0-1.25,1.01-2.27,2.25-2.27h6.54v10.1ZM5.15,5.09c0-1.43,1.06-2.59,2.36-2.59h9.98c1.3,0,2.36,1.16,2.36,2.59v.4c-.19-.02-.38-.03-.58-.03H5.73c-.2,0-.39,.01-.58,.03v-.4Zm14.12,24.41H5.73c-1.79,0-3.25-1.47-3.25-3.28V11.25c0-1.81,1.46-3.28,3.25-3.28h13.54c1.77,0,3.21,1.44,3.25,3.21h-6.53c-2.6,0-4.72,2.14-4.72,4.77v5.57c0,2.63,2.12,4.77,4.72,4.77h6.53c-.04,1.78-1.48,3.22-3.25,3.22Z"></path>
  </symbol></defs><use xlink:href="#k1104"></use></svg>