<svg xmlns:xlink="http://www.w3.org/1999/xlink" xmlns="http://www.w3.org/2000/svg" class="mainmenu-icon mainmenu-icon-k166" width="32"  height="26" ><defs><symbol id="k166" xmlns="http://www.w3.org/2000/svg" viewBox="0 0 32 26">
    <path d="M29.95,13.1h-5.55c-1.13,0-2.05,.91-2.05,2.03v8.84c0,1.12,.92,2.03,2.05,2.03h5.55c1.13,0,2.05-.91,2.05-2.03V15.13c0-1.12-.92-2.03-2.05-2.03Zm-.45,10.43h-4.66v-7.95h4.66v7.95Z"></path>
    <path d="M18.45,13.1h-5.55c-1.13,0-2.05,.91-2.05,2.03v8.84c0,1.12,.92,2.03,2.05,2.03h5.55c1.13,0,2.05-.91,2.05-2.03V15.13c0-1.12-.92-2.03-2.05-2.03Zm-.45,10.43h-4.66v-7.95h4.66v7.95Z"></path>
    <path d="M3.95,2.42H27.88V11.24h2.44V2.11c0-.58-.24-1.11-.62-1.49s-.92-.62-1.5-.62H3.64c-.58,0-1.11,.24-1.5,.62h0c-.38,.39-.62,.91-.62,1.49v15.78c0,.58,.24,1.1,.62,1.48h0c.14,.14,.3,.26,.47,.36H0v.18c0,1.29,1.07,2.35,2.37,2.35h6.35v-4.69H3.95V2.42Z"></path>
  </symbol></defs><use xlink:href="#k166" fill="#2C509A"></use></svg>