<svg xmlns:xlink="http://www.w3.org/1999/xlink" xmlns="http://www.w3.org/2000/svg" class="mainmenu-icon mainmenu-icon-k1238" width="32"  height="32" ><defs><symbol id="k1238" xmlns="http://www.w3.org/2000/svg" viewBox="0 0 32 32">
    <path d="M19.84,32h-7.68c-1.7,0-3.09-1.38-3.09-3.09v-5.53c0-.25-.21-.46-.46-.46H3.09c-1.7,0-3.09-1.38-3.09-3.09v-7.68c0-1.7,1.38-3.09,3.09-3.09h5.52c.26,0,.47-.21,.47-.47V3.09c0-1.7,1.38-3.09,3.09-3.09h7.68c1.7,0,3.09,1.38,3.09,3.09v5.73c0,.14,.11,.25,.25,.25h5.73c1.7,0,3.09,1.38,3.09,3.09v7.68c0,1.7-1.38,3.09-3.09,3.09h-5.81c-.1,0-.18,.08-.18,.18v5.81c0,1.7-1.38,3.09-3.09,3.09ZM3.09,11.57c-.32,0-.59,.26-.59,.59v7.68c0,.32,.26,.59,.59,.59h5.53c1.63,0,2.96,1.33,2.96,2.96v5.53c0,.32,.26,.59,.59,.59h7.68c.32,0,.59-.26,.59-.59v-5.81c0-1.48,1.2-2.68,2.68-2.68h5.81c.32,0,.59-.26,.59-.59v-7.68c0-.32-.26-.59-.59-.59h-5.73c-1.52,0-2.75-1.23-2.75-2.75V3.09c0-.32-.26-.59-.59-.59h-7.68c-.32,0-.59,.26-.59,.59v5.52c0,1.64-1.33,2.97-2.97,2.97H3.09Z"></path>
  </symbol></defs><use xlink:href="#k1238"></use></svg>