<svg xmlns:xlink="http://www.w3.org/1999/xlink" xmlns="http://www.w3.org/2000/svg" class="mainmenu-icon mainmenu-icon-k253" width="32"  height="25" ><defs><symbol id="k253" xmlns="http://www.w3.org/2000/svg" viewBox="0 0 32 25">
    <path d="M19.47,0C13.53,0,8.36,4.23,7.18,10.05c-.02,.09,0,.17,0,.26l-5.16,1.92c-.77,.29-1.39,.86-1.74,1.62-.35,.75-.38,1.6-.09,2.37l1.7,4.59c.29,.78,.86,1.39,1.61,1.74,.41,.19,.85,.29,1.29,.29,.36,0,.73-.06,1.08-.19l15.46-5.74c.77-.29,1.39-.86,1.74-1.62,.35-.75,.38-1.6,.09-2.37l-1.7-4.59c-.29-.78-.86-1.39-1.61-1.74-.75-.35-1.6-.38-2.37-.09l-7.49,2.78c1.38-3.99,5.17-6.77,9.47-6.77,5.53,0,10.03,4.51,10.03,10.05,0,5.02-3.75,9.31-8.73,9.96-.68,.09-1.17,.72-1.08,1.4,.08,.63,.62,1.09,1.24,1.09,.05,0,.11,0,.16-.01,6.21-.82,10.9-6.17,10.9-12.44,0-6.92-5.62-12.55-12.53-12.55Zm-1.12,8.84c.07-.03,.14-.04,.2-.04,.11,0,.2,.03,.25,.06,.08,.04,.24,.13,.31,.33l1.7,4.59c.07,.2,.02,.37-.02,.46s-.13,.24-.33,.31l-15.46,5.74c-.2,.07-.37,.02-.46-.02-.08-.04-.24-.13-.31-.33l-1.7-4.59c-.07-.2-.02-.37,.02-.46s.13-.24,.33-.31l15.46-5.74Z"></path>
    <path d="M17.03,14.88c1.12-.41,1.69-1.66,1.27-2.77-.41-1.12-1.65-1.69-2.77-1.27-1.12,.41-1.69,1.66-1.27,2.77,.41,1.12,1.65,1.69,2.77,1.27Z"></path>
  </symbol></defs><use xlink:href="#k253" fill="#2C509A"></use></svg>