<svg xmlns:xlink="http://www.w3.org/1999/xlink" xmlns="http://www.w3.org/2000/svg" class="mainmenu-icon mainmenu-icon-k53" width="32"  height="25" ><defs><symbol id="k53" xmlns="http://www.w3.org/2000/svg" viewBox="0 0 32 25">
    <path d="M29.52,0H2.48C1.11,0,0,1.13,0,2.51V22.49c0,1.38,1.11,2.51,2.48,2.51H29.52c1.37,0,2.48-1.13,2.48-2.51V2.51c0-1.38-1.11-2.51-2.48-2.51ZM2.5,22.49V2.53l27-.02,.02,19.96-27.02,.02Z"></path>
    <path d="M25.6,3.78H14.79c-1.44,0-2.61,1.19-2.61,2.64v12.16c0,1.46,1.17,2.64,2.61,2.64h10.8c1.44,0,2.61-1.19,2.61-2.64V6.42c0-1.46-1.17-2.64-2.61-2.64Zm.61,14.8c0,.33-.28,.62-.61,.62H14.79c-.33,0-.61-.28-.61-.62V6.42c0-.34,.28-.62,.61-.62h10.8c.33,0,.61,.28,.61,.62v12.16Z"></path>
    <rect x="4.67" y="5.43" width="5.68" height="1.65" rx=".82" ry=".82"></rect>
    <rect x="4.67" y="11.68" width="5.68" height="1.65" rx=".82" ry=".82"></rect>
    <path d="M9.54,17.92H5.48c-.45,0-.81,.37-.81,.82h0c0,.45,.37,.82,.81,.82h4.05c.45,0,.81-.37,.81-.82h0c0-.45-.37-.82-.81-.82Z"></path>
    <path d="M20.2,9.58c-1.59,0-2.89,1.31-2.89,2.92s1.29,2.92,2.89,2.92,2.89-1.31,2.89-2.92-1.29-2.92-2.89-2.92Zm0,4.13c-.66,0-1.19-.54-1.19-1.2s.53-1.2,1.19-1.2,1.19,.54,1.19,1.2-.53,1.2-1.19,1.2Z"></path>
  </symbol></defs><use xlink:href="#k53" fill="#2C509A"></use></svg>