<svg xmlns:xlink="http://www.w3.org/1999/xlink" xmlns="http://www.w3.org/2000/svg" class="mainmenu-icon mainmenu-icon-k723" width="22"  height="32" ><defs><symbol id="k723" xmlns="http://www.w3.org/2000/svg" viewBox="0 0 22 32">
    <path d="M11.14,5.25h8.2c.48,0,.87-.39,.87-.86V2.04c0-1.12-.93-2.04-2.07-2.04h-5.81c-1.14,0-2.07,.91-2.07,2.04v2.36c0,.48,.39,.86,.87,.86Zm3.59-1.72V1.72h1.01v1.81h-1.01Zm3.73-1.5v1.5h-.97V1.72h.65c.17,0,.32,.14,.32,.31Zm-6.45,0c0-.17,.15-.31,.32-.31h.65v1.81h-.97v-1.5Z"></path>
    <path d="M19.04,6.45h-5.65c-2.53,0-4.69,1.03-6.26,2.98L1,17.05c-.66,.83-1,1.78-1,2.83v9.2c0,1.61,1.33,2.91,2.96,2.91H19.04c1.63,0,2.96-1.31,2.96-2.91V9.37c0-1.61-1.33-2.91-2.96-2.91Zm.39,22.63c0,.21-.18,.38-.39,.38H2.96c-.21,0-.39-.18-.39-.38v-9.2c0-.49,.14-.88,.45-1.26l6.13-7.62c1.06-1.32,2.53-2.02,4.24-2.02h5.65c.21,0,.39,.18,.39,.38V29.09Z"></path>
    <path d="M16.05,11.93h-1.62c-1.03,0-1.87,.83-1.87,1.84v7.41c0,1.02,.84,1.84,1.87,1.84h1.62c1.03,0,1.88-.83,1.88-1.84v-7.41c0-1.02-.84-1.84-1.88-1.84Zm.33,9.25c0,.18-.15,.33-.33,.33h-1.62c-.18,0-.33-.15-.33-.33v-7.41c0-.18,.15-.33,.33-.33h1.62c.18,0,.33,.15,.33,.33v7.41Z"></path>
  </symbol></defs><use xlink:href="#k723" fill="#2C509A"></use></svg>