<svg xmlns:xlink="http://www.w3.org/1999/xlink" xmlns="http://www.w3.org/2000/svg" class="mainmenu-icon mainmenu-icon-k365" width="30"  height="32" ><defs><symbol id="k365" xmlns="http://www.w3.org/2000/svg" viewBox="0 0 30 32">
    <path d="M11.21,13.81c.17,.08,.35,.12,.53,.12,.48,0,.93-.27,1.15-.72,.29-.63,.02-1.37-.61-1.66-.89-.41-1.38-1.03-1.5-1.89-.17-1.16,.37-2.6,1.38-3.83l1.62,2.23c.29,.4,.8,.59,1.28,.49,.49-.1,.87-.48,.98-.96l.79-3.6c1.78,2.24,2.59,4.04,2.41,5.36-.12,.87-.68,1.62-1.74,2.28-.59,.37-.76,1.14-.39,1.73,.37,.58,1.16,.75,1.74,.38,1.7-1.07,2.67-2.44,2.89-4.06,.33-2.51-1.15-5.45-4.67-9.26-.32-.34-.81-.48-1.26-.36-.46,.12-.8,.49-.9,.94l-.73,3.32-.84-1.16c-.21-.29-.53-.47-.88-.51-.35-.04-.71,.07-.97,.3-2.28,1.95-3.53,4.73-3.2,7.06,.24,1.7,1.28,3.05,2.93,3.81Z"></path>
    <path d="M24.92,18.23h-3.14v-.77c0-1.16-.95-2.1-2.12-2.1H10.34c-1.17,0-2.12,.94-2.12,2.1v.77h-3.14c-2.8,0-5.08,2.26-5.08,5.04v7.49c0,.69,.56,1.25,1.26,1.25H28.74c.7,0,1.26-.56,1.26-1.25v-7.49c0-2.78-2.28-5.04-5.08-5.04Zm-14.17-.37h8.51v1.96H10.75v-1.96Zm16.73,11.65H2.52v-6.24c0-1.4,1.15-2.54,2.56-2.54h3.21c.02,.08,.05,.15,.08,.22,.01,.03,.02,.06,.03,.09,.05,.12,.11,.23,.18,.33,.02,.03,.04,.05,.06,.07,.06,.08,.12,.15,.18,.22,.03,.03,.06,.06,.1,.09,.06,.06,.12,.11,.19,.16,.04,.03,.08,.05,.12,.08,.07,.04,.14,.08,.21,.12,.04,.02,.09,.04,.13,.06,.08,.03,.17,.06,.25,.08,.04,.01,.08,.02,.12,.03,.13,.02,.26,.04,.4,.04h9.32c.14,0,.27-.02,.4-.04,.04,0,.08-.02,.12-.03,.09-.02,.17-.05,.25-.08,.04-.02,.09-.04,.13-.06,.07-.03,.15-.07,.21-.12,.04-.03,.08-.05,.12-.08,.07-.05,.13-.1,.19-.16,.03-.03,.07-.06,.1-.09,.07-.07,.13-.14,.18-.22,.02-.03,.04-.05,.06-.07,.07-.1,.13-.21,.18-.33,.01-.03,.02-.06,.03-.09,.03-.07,.06-.14,.08-.22h3.21c1.41,0,2.56,1.14,2.56,2.54v6.24Z"></path>
  </symbol></defs><use xlink:href="#k365"></use></svg>