<svg xmlns:xlink="http://www.w3.org/1999/xlink" xmlns="http://www.w3.org/2000/svg" class="mainmenu-icon mainmenu-icon-k50" width="32"  height="32" ><defs><symbol id="k50" xmlns="http://www.w3.org/2000/svg" viewBox="0 0 32 32">
    <path d="M29.13,0H2.87C1.29,0,0,1.29,0,2.87V29.13c0,1.58,1.29,2.87,2.87,2.87H29.13c1.58,0,2.87-1.29,2.87-2.87V2.87c0-1.58-1.29-2.87-2.87-2.87Zm.37,29.13c0,.2-.17,.37-.37,.37H2.87c-.2,0-.37-.17-.37-.37V2.87c0-.2,.17-.37,.37-.37H29.13c.2,0,.37,.17,.37,.37V29.13Z"></path>
    <path d="M22.24,5.01c-2.83,0-5.13,2.3-5.13,5.14s2.3,5.13,5.13,5.13,5.14-2.3,5.14-5.13-2.3-5.14-5.14-5.14Zm0,8.27c-1.73,0-3.13-1.41-3.13-3.13s1.41-3.14,3.13-3.14,3.14,1.41,3.14,3.14-1.41,3.13-3.14,3.13Z"></path>
    <path d="M9.76,5.01c-2.83,0-5.13,2.3-5.13,5.14s2.3,5.13,5.13,5.13,5.14-2.3,5.14-5.13-2.3-5.14-5.14-5.14Zm0,8.27c-1.73,0-3.13-1.41-3.13-3.13s1.41-3.14,3.13-3.14,3.14,1.41,3.14,3.14-1.41,3.13-3.14,3.13Z"></path>
    <path d="M22.24,16.72c-2.83,0-5.13,2.3-5.13,5.13s2.3,5.14,5.13,5.14,5.14-2.3,5.14-5.14-2.3-5.13-5.14-5.13Zm0,8.27c-1.73,0-3.13-1.41-3.13-3.14s1.41-3.13,3.13-3.13,3.14,1.41,3.14,3.13-1.41,3.14-3.14,3.14Z"></path>
    <path d="M9.76,16.72c-2.83,0-5.13,2.3-5.13,5.13s2.3,5.14,5.13,5.14,5.14-2.3,5.14-5.14-2.3-5.13-5.14-5.13Zm0,8.27c-1.73,0-3.13-1.41-3.13-3.14s1.41-3.13,3.13-3.13,3.14,1.41,3.14,3.13-1.41,3.14-3.14,3.14Z"></path>
  </symbol></defs><use xlink:href="#k50" fill="#2C509A"></use></svg>