<svg xmlns:xlink="http://www.w3.org/1999/xlink" xmlns="http://www.w3.org/2000/svg" class="mainmenu-icon mainmenu-icon-k78" width="32"  height="28" ><defs><symbol id="k78" xmlns="http://www.w3.org/2000/svg" viewBox="0 0 32 28">
    <path d="M29.09,0H2.91C1.29,.01,0,1.34,0,2.97V22.49c0,1.63,1.29,2.95,2.91,2.97h2.97v1.46c-.06,.53,.31,1.01,.84,1.07,.53,.06,1-.32,1.07-.85,0-.08,0-.15,0-.23v-1.5H24.21v1.46c-.06,.53,.31,1.01,.84,1.07,.53,.06,1-.32,1.07-.85,0-.08,0-.15,0-.23v-1.46h2.97c1.6-.01,2.89-1.32,2.91-2.93V2.97c0-1.63-1.29-2.95-2.91-2.97Zm.23,22.49c-.02,.11-.11,.2-.23,.2H2.91c-.12,0-.22-.08-.24-.2V2.97c-.02-.13,.07-.26,.2-.28,.01,0,.03,0,.04,0H29.09c.13,0,.23,.11,.23,.24V22.49Z"></path>
    <path d="M9.89,4.7h0c-.35,0-.64,.29-.64,.64v14.73c0,.36,.27,.65,.63,.66h.01c.36,0,.64-.3,.64-.66V5.37c0-.36-.28-.66-.64-.67Z"></path>
    <path d="M25.8,5.37c.01-.36-.26-.66-.61-.67h-.03c-.36,0-.64,.3-.64,.66v14.7c0,.36,.28,.65,.64,.66,.35,0,.64-.29,.64-.64h0V5.37Z"></path>
    <path d="M22.75,5.37c.01-.36-.26-.66-.61-.67h-.03c-.36,0-.65,.31-.64,.67h0v14.7c0,.36,.28,.65,.64,.66,.35,0,.64-.29,.64-.64h0V5.37Z"></path>
    <path d="M19.11,4.7s-.04,0-.05,0c-.36,0-.64,.3-.64,.66v14.7c0,.37,.3,.67,.67,.67s.67-.3,.67-.67V5.37c0-.36-.28-.66-.64-.67Z"></path>
    <path d="M16.05,4.7s-.04,0-.05,0c-.36,0-.64,.3-.64,.66v14.7c0,.37,.3,.67,.67,.67s.67-.3,.67-.67V5.37c0-.36-.28-.66-.64-.67Z"></path>
    <path d="M12.95,4.7h0c-.35,0-.64,.29-.64,.64v14.73c0,.36,.27,.65,.63,.66h.01c.36,0,.64-.3,.64-.66V5.37c0-.36-.28-.66-.64-.67Z"></path>
    <path d="M6.84,4.7h0c-.35,0-.64,.29-.64,.64,0,0,0,.02,0,.03v14.7c0,.36,.27,.65,.63,.66h.01c.36,0,.64-.3,.64-.66V5.37c0-.36-.28-.66-.64-.67Z"></path>
  </symbol></defs><use xlink:href="#k78"></use></svg>