<svg xmlns:xlink="http://www.w3.org/1999/xlink" xmlns="http://www.w3.org/2000/svg" class="mainmenu-icon mainmenu-icon-k869" width="28"  height="32" ><defs><symbol id="k869" xmlns="http://www.w3.org/2000/svg" viewBox="0 0 28 32">
    <path d="M27.81,17.39c.04-.07,.08-.13,.11-.21,.03-.08,.04-.17,.05-.25,0-.05,.03-.1,.03-.16,0-7.85-5.62-14.3-12.76-14.98v-.53c0-.69-.56-1.25-1.24-1.25s-1.24,.56-1.24,1.25v.53C5.62,2.46,0,8.92,0,16.77c0,.06,.02,.1,.03,.16,.01,.09,.02,.17,.05,.25,.03,.08,.07,.14,.11,.21,.04,.07,.08,.13,.13,.19,.06,.07,.13,.12,.2,.17,.04,.03,.07,.08,.12,.1,.02,.01,.04,.01,.06,.02,.07,.04,.15,.06,.24,.08,.08,.02,.16,.04,.24,.05,.02,0,.04,.01,.07,.01,.06,0,.1-.02,.16-.03,.09-.01,.17-.02,.25-.05,.08-.03,.14-.07,.21-.11,.07-.04,.13-.08,.19-.13,.07-.06,.12-.13,.17-.2,.03-.04,.08-.07,.1-.12,.82-1.46,1.83-2.28,2.97-2.22,1.01-.03,2.03,.79,2.84,2.23,0,0,.01,.01,.02,.02,.01,.02,.03,.04,.05,.06,.07,.11,.16,.2,.26,.28,.02,.01,.02,.03,.04,.04,.01,0,.03,0,.04,.02,.12,.08,.25,.14,.39,.18,.02,0,.05,0,.07,0,.07,.01,.14,.03,.21,.03,.05,0,.1-.01,.15-.02,.03,0,.06,0,.09-.01,.13-.03,.25-.06,.37-.13,0,0,.01-.01,.02-.01,.07-.04,.12-.1,.18-.16,.06-.06,.14-.11,.19-.18,0,0,.01,0,.02-.01,.77-1.09,1.64-1.81,2.53-2.14v12.99c0,.64-.52,1.16-1.15,1.16s-1.15-.52-1.15-1.16v-.8c0-.69-.56-1.25-1.24-1.25s-1.24,.56-1.24,1.25v.8c0,2.02,1.63,3.66,3.63,3.66s3.63-1.64,3.63-3.66V15.35c.9,.33,1.76,1.05,2.53,2.14,.24,.34,.62,.53,1.01,.53,.06,0,.12-.02,.17-.03,.4-.03,.77-.23,.98-.61,.81-1.44,1.86-2.26,2.91-2.23,1-.02,2.02,.78,2.82,2.22,.13,.24,.33,.4,.55,.51,.03,.02,.07,.03,.1,.04,.14,.05,.28,.09,.43,.09h0c.14,0,.29-.03,.43-.09,.03-.01,.07-.02,.1-.04,.03-.01,.06-.02,.08-.03,.05-.03,.08-.07,.12-.1,.07-.05,.14-.1,.19-.17,.05-.06,.09-.13,.13-.2Zm-4.96-4.73c-1.52-.04-2.95,.72-4.12,2.12-1.4-1.43-3.04-2.18-4.73-2.12-1.66-.05-3.29,.68-4.69,2.07-1.15-1.37-2.55-2.11-3.99-2.07-.81-.04-1.61,.17-2.37,.58,1.4-5.21,5.82-9.02,11.05-9.02s9.63,3.8,11.04,8.99c-.7-.38-1.44-.58-2.19-.55Z"></path>
  </symbol></defs><use xlink:href="#k869"></use></svg>