<svg xmlns:xlink="http://www.w3.org/1999/xlink" xmlns="http://www.w3.org/2000/svg" class="footer-links-social-icon facebook" width="32"  height="32" ><defs><symbol xmlns="http://www.w3.org/2000/svg" viewBox="0 0 32 32" id="facebook">
    <g clip-path="url(#a)">
      <path fill-rule="evenodd" d="M28.0914 0c.5133 0 1.0216.101098 1.4958.297522.4742.196424.9051.484328 1.268.847268.363.36295.6509.79383.8473 1.26804.1964.47421.2975.98246.2975 1.49574V28.0914c0 .5133-.1011 1.0216-.2975 1.4958-.1964.4742-.4843.9051-.8473 1.268-.3629.363-.7938.6509-1.268.8473-.4742.1964-.9825.2975-1.4958.2975H21.44V19.9429h4.16l.7886-5.1658H21.44v-3.3485c-.0361-.3852.0151-.7736.15-1.1363.1348-.36264.3498-.69018.6288-.95822.279-.26803.6149-.46965.9827-.58982.3678-.12018.7579-.15582 1.1414-.10426h2.2857v-4.4c-1.3195-.21029-2.6525-.32487-3.9886-.34286-4.08 0-6.7543 2.46857-6.7543 6.94856v3.9314h-4.5714v5.1658h4.5714V32H3.90857c-.51328 0-1.02153-.1011-1.49574-.2975s-.90509-.4843-1.26804-.8473c-.36294-.3629-.650844-.7938-.847268-1.268C.101098 29.113 0 28.6047 0 28.0914V3.90857c0-1.03662.411795-2.03078 1.14479-2.76378C1.87779.411795 2.87195 0 3.90857 0H28.0914Z" clip-rule="evenodd"></path>
    </g>
    <defs>
      <clipPath id="a">
        <path fill="#fff" d="M0 0h32v32H0z"></path>
      </clipPath>
    </defs>
  </symbol></defs><use xlink:href="#facebook" fill="#4F6AA2"></use></svg>