<svg xmlns:xlink="http://www.w3.org/1999/xlink" xmlns="http://www.w3.org/2000/svg" class="mainmenu-icon mainmenu-icon-k1014" width="32"  height="32" ><defs><symbol id="k1014" xmlns="http://www.w3.org/2000/svg" viewBox="0 0 32 32">
    <path d="M8.6,32c-1.28,0-2.54-.47-3.34-1.27-.92-.92-1.28-1.81-1.37-2.63-.82-.09-1.7-.45-2.63-1.37-1.52-1.52-1.85-4.72,0-6.57,1.44-1.44,3.56-1.76,5.3-.9L19.18,6.66c-.83-1.74-.51-3.89,.9-5.3,.88-.88,2.04-1.36,3.28-1.36s2.41,.48,3.28,1.36c.73,.73,1.19,1.68,1.32,2.68,1,.13,1.94,.59,2.68,1.32,.88,.88,1.36,2.04,1.36,3.28s-.48,2.41-1.36,3.28c-1.41,1.41-3.56,1.73-5.3,.9l-12.61,12.61c.85,1.74,.54,3.86-.9,5.3-.88,.88-2.06,1.27-3.23,1.27Zm-3.38-6.47c.33,0,.65,.13,.88,.37,.3,.3,.42,.72,.34,1.13-.16,.79-.12,1.24,.58,1.94,.63,.63,2.28,.75,3.03,0,.81-.81,.86-2.03,.12-2.9-.42-.5-.39-1.23,.07-1.69l14.03-14.03c.46-.46,1.2-.49,1.69-.07,.84,.72,2.11,.66,2.9-.12,.4-.4,.63-.94,.63-1.52s-.22-1.11-.63-1.52c-.51-.51-1.23-.73-1.94-.58-.41,.08-.83-.05-1.13-.34s-.42-.72-.34-1.13c.14-.71-.08-1.43-.58-1.94-.81-.81-2.22-.81-3.03,0-.78,.78-.84,2.06-.12,2.9,.42,.5,.39,1.23-.07,1.69L7.62,21.75c-.46,.46-1.2,.49-1.69,.07-.87-.74-2.09-.69-2.9,.12-.75,.75-.63,2.4,0,3.03,.7,.7,1.15,.75,1.94,.58,.08-.02,.16-.02,.25-.02Z"></path>
  </symbol></defs><use xlink:href="#k1014"></use></svg>