<svg xmlns:xlink="http://www.w3.org/1999/xlink" xmlns="http://www.w3.org/2000/svg" class="mainmenu-icon mainmenu-icon-k77" width="32"  height="24" ><defs><symbol id="k77" xmlns="http://www.w3.org/2000/svg" viewBox="0 0 32 24">
    <path d="M29.17,0H2.83C1.27,0,0,1.27,0,2.84V21.16c0,1.57,1.27,2.84,2.83,2.84H29.17c1.56,0,2.83-1.27,2.83-2.84V2.84c0-1.57-1.27-2.84-2.83-2.84Zm.33,21.16c0,.17-.15,.33-.33,.33H2.83c-.18,0-.33-.15-.33-.33V2.84c0-.18,.15-.33,.33-.33H29.17c.18,0,.33,.15,.33,.33V21.16Z"></path>
    <path d="M12.02,3.46C7.33,3.46,3.52,7.29,3.52,12s3.81,8.54,8.5,8.54,8.5-3.83,8.5-8.54S16.71,3.46,12.02,3.46Zm-4.34,3.7c.39-.36,.83-.67,1.3-.92v11.54c-.47-.25-.91-.56-1.3-.92V7.15Zm2.5-1.41c.42-.12,.85-.21,1.3-.24v13.01c-.45-.04-.88-.12-1.3-.24V5.74Zm2.5-.24c.45,.05,.88,.14,1.3,.27v12.46c-.42,.13-.85,.22-1.3,.27V5.5Zm2.5,.79c.47,.27,.91,.59,1.3,.96v9.48c-.39,.37-.83,.7-1.3,.96V6.29ZM5.52,12c0-1.24,.35-2.4,.96-3.39v6.79c-.6-.99-.96-2.15-.96-3.39Zm12.16,3.21v-6.41c.53,.95,.84,2.04,.84,3.21s-.31,2.26-.84,3.21Z"></path>
    <path d="M27.19,3.82h-5.85c-.44,0-.8,.36-.8,.8s.36,.8,.8,.8h5.85c.44,0,.8-.36,.8-.8s-.36-.8-.8-.8Z"></path>
  </symbol></defs><use xlink:href="#k77"></use></svg>