<svg xmlns:xlink="http://www.w3.org/1999/xlink" xmlns="http://www.w3.org/2000/svg" width="28" height="20" fill="none" viewBox="0 0 28 20"><g fill="#2c509a" clip-path="url(#a)"><path fill-rule="evenodd" d="M9.33689 19.5556c.1315.1397.28885.2509.46274.3267.17388.0759.36077.115.54957.115.1888 0 .3757-.0391.5496-.115.1738-.0758.3312-.187.4627-.3267L27.58 2.56667c.2703-.28277.4218-.66396.4218-1.06111 0-.39716-.1515-.778348-.4218-1.061113-.1315-.139776-.2889-.250897-.4628-.326779-.1739-.0758829-.3607-.11498245-.5495-.11498245-.1888 0-.3757.03909955-.5496.11498245-.1739.075882-.3313.187003-.4628.326779L9.33689 17.4333c-.27031.2828-.42185.664-.42185 1.0611 0 .3972.15154.7784.42185 1.0612Z" clip-rule="evenodd"/><path fill-rule="evenodd" d="M2.92921 10.8557c.13243-.1401.2907-.2514.46548-.3274.17478-.076.36254-.1152.55222-.1152.18967 0 .37743.0392.55221.1152s.33305.1873.46548.3274l6.0738 6.3778c.2703.2828.4219.664.4219 1.0611 0 .3972-.1516.7784-.4219 1.0611-.1315.1398-.2888.2509-.4627.3268-.1739.0759-.3608.115-.5496.115-.18876 0-.37564-.0391-.54953-.115s-.33124-.187-.46274-.3268L2.92921 12.978c-.26525-.2855-.41334-.6657-.41334-1.0612 0-.3954.14809-.7756.41334-1.0611Z" clip-rule="evenodd"/><path d="M3.84462 5.55547H1.87385l-.34462 1.11111H0L2.15385.422133h1.37846L5.74 6.66658H4.18923l-.34461-1.11111ZM2.21846 4.44435H3.5l-.63538-2.22222-.64616 2.22222Zm3.95231 2.22223V.422133h2.15385c.6118-.038234 1.22037.1168 1.74458.444444.1938.145483.3495.338483.4529.561563.1034.22309.1513.46923.1394.71621.0076.2934-.0672.58279-.2153.83334-.1466.23554-.3671.41204-.62466.5.28526.07172.53686.24481.71076.48889.1746.24774.262.54958.2477.85555.0175.25779-.023.51625-.1183.75524-.0952.23898-.2427.45204-.4309.62254-.47215.3389-1.04137.50334-1.61541.46667H6.17077Zm1.43231-3.63334h.75384c.23665.01458.47135-.05181.6677-.18889.06957-.06588.12404-.14694.15944-.23728.03539-.09033.05082-.18767.04517-.28494.00776-.10509-.00757-.21063-.04487-.30875-.03729-.09812-.09558-.18628-.17051-.25791-.21176-.12697-.45573-.18506-.7-.16667h-.71077v1.44444Zm0 .97778v1.54445h.94769c.21307.01296.42348-.05415.59231-.18889.0702-.06539.12509-.14637.16053-.23683.03545-.09046.05052-.18805.04408-.2854.02318-.10757.021-.2193-.00634-.32583-.02734-.10652-.07905-.20472-.15079-.28636-.07174-.08163-.16142-.14432-.2615-.1828-.10008-.03848-.20765-.05163-.31367-.03834H7.60308Zm8.78772.54445c-.0195.39334-.1343.77536-.3339 1.11111-.2125.33325-.5108.59875-.8615.76666-.3965.19449-.8319.28966-1.2708.27778-.3453.01619-.6897-.04722-1.0082-.1856-.3186-.13838-.6033-.34827-.8333-.6144-.4779-.63242-.7188-1.42139-.6785-2.22222v-.35556c-.0082-.54914.0945-1.09404.3016-1.6.1768-.45509.4851-.843016.883-1.111107.4064-.223041.8656-.323178 1.3246-.288889.6336-.030613 1.2556.183283 1.7447.6.224.209016.4051.462216.5328.744656.1276.28243.1991.58838.2102.89979h-1.4323c.0095-.14686-.0095-.29419-.0557-.43343-.0462-.13924-.1188-.26762-.2135-.37768-.1084-.09377-.2336-.1646-.3684-.20845-.1349-.04385-.2769-.05986-.4178-.04711-.1558-.00971-.3112.02445-.4497.09881-.1385.07437-.2547.18616-.3364.32341-.1872.43973-.2578.92288-.2046 1.4v.44445c-.0348.48692.0465.97523.2369 1.42222.0828.14464.2036.26212.3485.33881.1448.07669.3078.10947.47.09452.2751.01641.5467-.07041.7646-.24444.1871-.21223.2875-.49094.28-.77778l1.3677-.05555Z"/></g><defs><clipPath id="a"><path fill="#fff" d="M0 0h28v20H0z"/></clipPath></defs></svg>