<svg xmlns:xlink="http://www.w3.org/1999/xlink" xmlns="http://www.w3.org/2000/svg" class="mainmenu-icon mainmenu-icon-k659" width="32"  height="26" ><defs><symbol id="k659" xmlns="http://www.w3.org/2000/svg" viewBox="0 0 32 26">
    <path d="M31.54,5.28c-.64-2.11-1.93-3.5-3.65-3.91C24.1,.47,20.12,0,16,0h-.08C11.88,0,7.9,.47,4.11,1.37c-1.72,.41-3.02,1.79-3.65,3.89-1.1,3.65-.12,8.81,2.14,11.27,1,1.08,1.81,2.06,2.52,2.92,1.77,2.13,3.17,3.81,5.97,5.59,1.18,.75,2.44,.9,3.68,.96h2.55c1.21-.06,2.44-.22,3.59-.96,2.79-1.77,4.18-3.44,5.94-5.56,.73-.88,1.56-1.88,2.59-3,2.23-2.42,3.19-7.55,2.09-11.2Zm-2.39,.73c.6,2.01,.37,4.81-.43,6.86-1.92-.46-3.87-.82-5.82-1.06l1.31-8.6c1.05,.18,2.09,.38,3.11,.62,.84,.2,1.45,.94,1.83,2.19Zm-26.31-.02c.37-1.24,.99-1.97,1.83-2.17,1.02-.24,2.06-.44,3.11-.62l1.32,8.67c-1.91,.25-3.85,.59-5.8,1.04-.82-2.08-1.07-4.91-.46-6.91Zm4.18,11.84c-.66-.79-1.4-1.68-2.29-2.67,1.59-.34,3.18-.6,4.74-.8l1.1,7.22c-1.36-1.12-2.34-2.29-3.55-3.75Zm9.41,5.67h-.87c-.81-.02-1.55-.06-2.2-.22L10.26,2.85c1.86-.21,3.76-.33,5.67-.33h.14c1.91,0,3.81,.12,5.67,.33l-3.11,20.43c-.65,.16-1.38,.2-2.2,.22Zm8.51-5.64c-1.2,1.45-2.17,2.61-3.52,3.72l1.11-7.28c1.6,.2,3.2,.47,4.78,.82-.92,1.02-1.69,1.93-2.36,2.74Z"></path>
  </symbol></defs><use xlink:href="#k659" fill="#2C509A"></use></svg>