<svg xmlns:xlink="http://www.w3.org/1999/xlink" xmlns="http://www.w3.org/2000/svg" class="mainmenu-icon mainmenu-icon-k704" width="32"  height="28" ><defs><symbol id="k704" xmlns="http://www.w3.org/2000/svg" viewBox="0 0 32 28">
    <path d="M29.39,10.56l-3.37-.03-5.71-5.81c-.89-.91-2.03-1.38-3.29-1.38h-7.04c-1.44,0-2.61,1.19-2.61,2.65v4.46c0,.06-.05,.11-.11,.11h-1.13V1.27c0-.7-.56-1.27-1.25-1.27s-1.25,.57-1.25,1.27V10.56h-1.02c-1.44,0-2.61,1.19-2.61,2.65v4.55c0,1.4,1.08,2.54,2.44,2.63-.12,.48-.19,.98-.19,1.49,0,3.37,2.7,6.12,6.02,6.12s6.02-2.74,6.02-6.12c0-.51-.07-1-.18-1.47h3.98c-.12,.47-.18,.96-.18,1.47,0,3.37,2.7,6.12,6.02,6.12s6.02-2.74,6.02-6.12c0-.52-.07-1.02-.19-1.51,1.27-.18,2.26-1.28,2.26-2.62v-4.55c0-1.46-1.17-2.65-2.61-2.65Zm-10.85-4.04l3.98,4.04h-7.15V5.88h1.66c.61,0,1.09,.2,1.52,.64ZM8.27,25.46c-1.94,0-3.52-1.6-3.52-3.57,0-.79,.26-1.51,.69-2.1,.13-.18,.27-.35,.43-.5,.07-.06,.14-.12,.21-.17,.13-.11,.28-.21,.42-.3,.08-.05,.16-.09,.24-.13,.16-.08,.34-.14,.51-.2,.07-.02,.15-.05,.22-.07,.26-.06,.52-.1,.79-.1s.53,.04,.79,.1c.08,.02,.15,.05,.22,.07,.18,.05,.35,.12,.51,.2,.08,.04,.16,.09,.24,.13,.15,.09,.29,.19,.42,.3,.07,.06,.14,.11,.21,.17,.16,.15,.3,.32,.43,.5,.43,.59,.69,1.32,.69,2.1,0,1.97-1.58,3.57-3.52,3.57Zm15.65,0c-1.94,0-3.52-1.6-3.52-3.57,0-.79,.26-1.51,.69-2.1,.13-.18,.27-.35,.43-.5,.07-.06,.14-.12,.21-.17,.13-.11,.28-.21,.42-.3,.08-.05,.16-.09,.24-.13,.16-.08,.34-.14,.51-.2,.07-.02,.15-.05,.22-.07,.26-.06,.52-.1,.79-.1s.53,.04,.79,.1c.08,.02,.15,.05,.22,.07,.18,.05,.35,.12,.51,.2,.08,.04,.16,.09,.24,.13,.15,.09,.29,.19,.42,.3,.07,.06,.14,.11,.21,.17,.16,.15,.3,.32,.43,.5,.43,.59,.69,1.32,.69,2.1,0,1.97-1.58,3.57-3.52,3.57Zm4.19-7.95c-.09-.08-.17-.17-.26-.24-.07-.06-.13-.11-.2-.17-.09-.07-.18-.14-.27-.2-.08-.06-.16-.11-.24-.16-.09-.06-.17-.11-.26-.16-.1-.06-.2-.11-.3-.16-.08-.04-.16-.08-.24-.12-.12-.05-.24-.1-.36-.14-.07-.03-.14-.05-.21-.08-.14-.05-.28-.08-.42-.12-.06-.02-.12-.03-.18-.05-.16-.03-.31-.06-.47-.08-.05,0-.1-.02-.15-.02-.21-.02-.42-.04-.64-.04s-.43,.01-.64,.04c-.05,0-.1,.02-.15,.02-.16,.02-.32,.04-.47,.08-.06,.01-.12,.03-.18,.05-.14,.04-.28,.07-.42,.12-.07,.02-.14,.05-.21,.08-.12,.05-.24,.09-.36,.14-.08,.04-.16,.08-.24,.12-.1,.05-.2,.1-.3,.16-.09,.05-.17,.1-.26,.16-.08,.05-.16,.11-.24,.16-.09,.07-.18,.13-.27,.2-.07,.05-.13,.11-.2,.17-.09,.08-.18,.16-.26,.24-.06,.06-.11,.12-.17,.17-.06,.06-.12,.12-.18,.19h-6.57c-.06-.07-.12-.13-.18-.19-.06-.06-.11-.12-.17-.17-.09-.08-.17-.17-.26-.24-.07-.06-.13-.11-.2-.17-.09-.07-.18-.14-.27-.2-.08-.06-.16-.11-.24-.16-.09-.06-.17-.11-.26-.16-.1-.06-.2-.11-.3-.16-.08-.04-.16-.08-.24-.12-.12-.05-.24-.1-.36-.14-.07-.03-.14-.05-.21-.08-.14-.05-.28-.08-.42-.12-.06-.02-.12-.03-.18-.05-.16-.03-.31-.06-.47-.08-.05,0-.1-.02-.15-.02-.21-.02-.42-.04-.64-.04s-.43,.01-.64,.04c-.05,0-.1,.02-.15,.02-.16,.02-.32,.04-.47,.08-.06,.01-.12,.03-.18,.05-.14,.04-.28,.07-.42,.12-.07,.02-.14,.05-.21,.08-.12,.05-.24,.09-.36,.14-.08,.04-.16,.08-.24,.12-.1,.05-.2,.1-.3,.16-.09,.05-.17,.1-.26,.16-.08,.05-.16,.11-.24,.16-.09,.07-.18,.13-.27,.2-.07,.05-.13,.11-.2,.17-.09,.08-.18,.16-.26,.24-.06,.06-.11,.12-.17,.17-.06,.06-.12,.12-.18,.19h-1.12c-.06,0-.11-.05-.11-.11v-4.55c0-.06,.05-.11,.11-.11H7.27c1.44,0,2.61-1.19,2.61-2.65V5.99c0-.06,.05-.11,.11-.11h2.88v4.81c0,1.33,1.07,2.41,2.37,2.41h14.16c.06,0,.11,.05,.11,.11v.84l-1.79-.05c-.45-.02-.76,.32-.77,.74-.01,.42,.31,.77,.73,.78l1.83,.06v2.19c0,.06-.05,.11-.11,.11h-.94c-.06-.07-.12-.13-.18-.19-.06-.06-.11-.12-.17-.17Z"></path>
    <path d="M8.27,19.37c-1.36,0-2.47,1.13-2.47,2.51s1.11,2.51,2.47,2.51,2.47-1.13,2.47-2.51-1.11-2.51-2.47-2.51Zm0,3.5c-.54,0-.97-.44-.97-.99s.44-.99,.97-.99,.97,.44,.97,.99-.44,.99-.97,.99Z"></path>
    <path d="M23.92,19.37c-1.36,0-2.47,1.13-2.47,2.51s1.11,2.51,2.47,2.51,2.47-1.13,2.47-2.51-1.11-2.51-2.47-2.51Zm0,3.5c-.54,0-.97-.44-.97-.99s.44-.99,.97-.99,.97,.44,.97,.99-.44,.99-.97,.99Z"></path>
  </symbol></defs><use xlink:href="#k704"></use></svg>