<svg xmlns:xlink="http://www.w3.org/1999/xlink" xmlns="http://www.w3.org/2000/svg" class="mainmenu-icon mainmenu-icon-k202" width="21"  height="32" ><defs><symbol id="k202" xmlns="http://www.w3.org/2000/svg" viewBox="0 0 21 32">
    <path d="M17.28,0H3.72C1.67,0,0,1.69,0,3.76V28.24c0,2.07,1.67,3.76,3.72,3.76h13.56c2.05,0,3.72-1.69,3.72-3.76V3.76c0-2.07-1.67-3.76-3.72-3.76ZM3.72,2.5h5.71L2.47,11.45V3.76c0-.69,.56-1.26,1.25-1.26Zm7.48,1.77l2.39,3.76c-2.09,.05-4.24,.56-6.52,1.56l4.13-5.32Zm7.33,23.97c0,.7-.56,1.26-1.25,1.26H3.72c-.69,0-1.25-.57-1.25-1.26V15.04c.15-.04,.29-.09,.42-.18,4.95-3.47,9.03-4.8,12.86-4.19,.48,.07,.96-.14,1.23-.55,.27-.41,.27-.95,0-1.36l-3.98-6.27h4.28c.69,0,1.25,.57,1.25,1.26V28.24Z"></path>
  </symbol></defs><use xlink:href="#k202" fill="#2C509A"></use></svg>