<svg xmlns:xlink="http://www.w3.org/1999/xlink" xmlns="http://www.w3.org/2000/svg" class="mainmenu-icon mainmenu-icon-k74" width="32"  height="30" ><defs><symbol id="k74" xmlns="http://www.w3.org/2000/svg" viewBox="0 0 32 30">
    <path d="M29.56,9.8h-1.64c.08-1.74-.15-3.87-.45-6.52l-.14-1.33h0c-.12-1.11-1.06-1.95-2.18-1.95H6.81c-1.13,0-2.07,.84-2.18,1.95l-.17,1.53c-.28,2.56-.5,4.62-.44,6.31h-1.59c-1.35,0-2.44,1.09-2.44,2.43v13.19c0,1.34,1.1,2.43,2.44,2.43h3.11c.48,1.26,1.69,2.16,3.12,2.16h14.58c1.43,0,2.64-.9,3.12-2.16h3.18c1.35,0,2.44-1.09,2.44-2.43V12.23c0-1.34-1.1-2.43-2.44-2.43ZM6.95,3.75l.14-1.27H24.87l.12,1.06c.49,4.5,.82,7.47-.4,8.82-1.05,1.16-3.58,1.66-8.48,1.66s-7.75-.49-8.78-1.63c-1.17-1.3-.85-4.22-.37-8.64ZM2.44,12.29h1.99c.2,.59,.5,1.11,.89,1.58v11.51l-2.83,.04-.06-13.13Zm20.82,15.23H8.68c-.47,0-.85-.38-.85-.84V15.58c1.56,.58,3.75,.85,6.9,.91v4.58c0,.69,.56,1.24,1.25,1.24s1.25-.56,1.25-1.24v-4.58c3.12-.05,5.31-.34,6.89-.94v11.12c0,.47-.38,.84-.85,.84Zm3.35-2.16V13.81c.38-.47,.67-.97,.87-1.54l2.02-.04,.06,13.13h-2.95Z"></path>
  </symbol></defs><use xlink:href="#k74"></use></svg>