<svg xmlns:xlink="http://www.w3.org/1999/xlink" xmlns="http://www.w3.org/2000/svg" class="mainmenu-icon mainmenu-icon-k436" width="30"  height="32" ><defs><symbol id="k436" xmlns="http://www.w3.org/2000/svg" viewBox="0 0 30 32">
    <path d="M25.85,24.07c-2.19,0-3.96,1.78-3.96,3.97s1.78,3.97,3.96,3.97,3.96-1.78,3.96-3.97-1.78-3.97-3.96-3.97Zm0,5.43c-.81,0-1.47-.66-1.47-1.47s.66-1.47,1.47-1.47,1.47,.66,1.47,1.47-.66,1.47-1.47,1.47Z"></path>
    <path d="M14.91,24.07c-2.19,0-3.96,1.78-3.96,3.97s1.78,3.97,3.96,3.97,3.96-1.78,3.96-3.97-1.78-3.97-3.96-3.97Zm0,5.43c-.81,0-1.47-.66-1.47-1.47s.66-1.47,1.47-1.47,1.47,.66,1.47,1.47-.66,1.47-1.47,1.47Z"></path>
    <path d="M3.96,24.07c-2.19,0-3.96,1.78-3.96,3.97s1.78,3.97,3.96,3.97,3.96-1.78,3.96-3.97-1.78-3.97-3.96-3.97Zm0,5.43c-.81,0-1.47-.66-1.47-1.47s.66-1.47,1.47-1.47,1.47,.66,1.47,1.47-.66,1.47-1.47,1.47Z"></path>
    <path d="M22.95,13.78c-.5-.29-.98-.57-1.44-.84-1.14-.68-2-1.11-2.63-1.42-.46-.23-.98-.49-1.06-.6-.11-.18-.1-1.15-.09-2.17,0-.42,0-.91,0-1.46V2.57c0-1.42-1.15-2.57-2.57-2.57H5.22c-1.42,0-2.57,1.15-2.57,2.57v3.1c0,1.04,0,1.83,.02,2.45q.02,2.02-.47,3.42c-.19,.53-.44,1.23-.76,2.23-1.25,3.83-1.74,6.2-.76,7.69,.73,1.11,2,1.35,3.02,1.44,3.17,.28,7.64,.4,11.83,.4,2.57,0,5.03-.05,7.02-.13,4.83-.2,6.96-.97,7.38-2.66,.58-2.35-2.93-4.39-6.99-6.75Zm-.5,6.91c-5.18,.22-13.53,.18-18.53-.27-.9-.08-1.11-.26-1.15-.33-.34-.51,.01-2.38,1.05-5.54h0c.32-.98,.56-1.66,.74-2.17,.62-1.75,.64-1.91,.62-4.29,0-.61-.02-1.39-.02-2.42l.07-3.17,10.01,.07V7.29c0,.55,0,1.02,0,1.44-.03,3.16,.04,3.79,2.54,5.03,.63,.31,1.41,.7,2.47,1.33,.47,.28,.96,.56,1.46,.86,1.82,1.06,5.12,2.97,5.73,3.96-.37,.21-1.53,.64-4.97,.78Z"></path>
  </symbol></defs><use xlink:href="#k436"></use></svg>