<svg xmlns:xlink="http://www.w3.org/1999/xlink" xmlns="http://www.w3.org/2000/svg" class="mainmenu-icon mainmenu-icon-k191" width="32"  height="16" ><defs><symbol id="k191" xmlns="http://www.w3.org/2000/svg" viewBox="0 0 32 16">
    <path d="M31.8,14.12l-5.41-8.23c-.15-.23-.38-.41-.65-.5L9.75,.07c-.56-.19-1.18,.04-1.48,.54L.17,14.16c-.23,.38-.23,.85,0,1.22,.22,.38,.64,.61,1.08,.61H30.75c.46,0,.88-.24,1.1-.64s.2-.87-.05-1.25ZM10,4.63l5.52,8.92h-5.52V4.63Zm-1.3,8.92h-1.47l1.47-6.63v6.63Zm-1.34-6.57l-1.46,6.57H3.43l3.92-6.57Zm11.08,6.57L12.19,3.46l12.33,4.11,3.94,5.99h-10.02Z"></path>
  </symbol></defs><use xlink:href="#k191"></use></svg>