<svg xmlns:xlink="http://www.w3.org/1999/xlink" xmlns="http://www.w3.org/2000/svg" class="mainmenu-icon mainmenu-icon-k17" width="28"  height="32" ><defs><symbol id="k17" xmlns="http://www.w3.org/2000/svg" viewBox="0 0 28 32">
    <path d="M8.85,7.71c.16,.14,.37,.21,.58,.21s.42-.07,.58-.21c.32-.28,.32-.72,0-1-1-.86-.84-1.28-.52-1.69,1.84-1.99,1.37-3.64,.65-4.68-.23-.33-.74-.44-1.13-.24-.39,.2-.52,.63-.28,.97,.43,.62,.84,1.61-.54,3.1-.01,.02-.03,.03-.04,.05-.9,1.16-.67,2.31,.71,3.49Z"></path>
    <path d="M13.7,7.71c.16,.14,.37,.21,.58,.21s.42-.07,.58-.21c.32-.28,.32-.72,0-1-1-.86-.84-1.28-.52-1.69,1.84-1.99,1.37-3.64,.65-4.68-.23-.33-.74-.44-1.13-.24-.39,.2-.52,.63-.28,.97,.43,.62,.84,1.61-.54,3.1-.01,.02-.03,.03-.04,.05-.9,1.16-.67,2.31,.71,3.49Z"></path>
    <path d="M18.55,7.71c.16,.14,.37,.21,.58,.21s.42-.07,.58-.21c.32-.28,.32-.72,0-1-1-.86-.84-1.28-.52-1.69,1.84-1.99,1.37-3.64,.65-4.68-.23-.33-.74-.44-1.13-.24-.39,.2-.51,.63-.28,.97,.43,.62,.84,1.61-.54,3.1-.01,.02-.03,.03-.04,.05-.9,1.16-.67,2.31,.71,3.49Z"></path>
    <path d="M4.45,10.5H22.82c.46,0,.84-.38,.84-.84s-.38-.84-.84-.84H4.45c-.46,0-.84,.38-.84,.84s.38,.84,.84,.84Z"></path>
    <path d="M23.56,23.1c-.28,0-.54,.03-.81,.08l-1.55-2.63c2.58-1.47,4.72-3.7,6.11-6.5,.19-.38,.17-.84-.06-1.2-.23-.36-.62-.59-1.05-.59H1.24c-.43,0-.83,.22-1.05,.59-.23,.36-.25,.82-.06,1.2,1.42,2.89,3.65,5.16,6.33,6.63L1.17,29.66c-.35,.59-.15,1.35,.44,1.7,.2,.12,.41,.17,.63,.17,.42,0,.84-.22,1.07-.61l1.21-2.05h14.83c.57,1.81,2.23,3.13,4.22,3.13,2.45,0,4.44-2,4.44-4.45s-1.99-4.45-4.44-4.45ZM3.42,14.74H24.02c-2.36,3.32-6.15,5.31-10.3,5.31s-7.94-1.99-10.3-5.31Zm5.32,6.95c1.57,.54,3.25,.84,4.98,.84,1.82,0,3.59-.32,5.23-.92l1.59,2.7c-.6,.56-1.03,1.27-1.25,2.08H5.97l2.77-4.7Zm14.82,7.83c-1.08,0-1.96-.88-1.96-1.97s.88-1.97,1.96-1.97,1.96,.88,1.96,1.97-.88,1.97-1.96,1.97Z"></path>
  </symbol></defs><use xlink:href="#k17" fill="#2C509A"></use></svg>