<svg xmlns:xlink="http://www.w3.org/1999/xlink" xmlns="http://www.w3.org/2000/svg" class="mainmenu-icon mainmenu-icon-k127" width="32"  height="30" ><defs><symbol id="k127" xmlns="http://www.w3.org/2000/svg" viewBox="0 0 32 30">
    <path d="M30.75,0c-.69,0-1.25,.56-1.25,1.24v2.79H2.5V1.24c0-.69-.56-1.24-1.25-1.24S0,.56,0,1.24V28.76c0,.69,.56,1.24,1.25,1.24s1.25-.56,1.25-1.24v-4.1H29.5v4.1c0,.69,.56,1.24,1.25,1.24s1.25-.56,1.25-1.24V1.24c0-.69-.56-1.24-1.25-1.24Zm-1.25,12.04c0,2.17-1.33,4.04-3.23,4.84V6.52h3.23v5.53ZM7.79,17.3c-.09,0-.17-.02-.25-.03V6.52h2.68v10.78h-2.43ZM12.22,6.52h2.68v10.78h-2.68V6.52Zm4.68,0h2.68v10.78h-2.68V6.52Zm4.68,0h2.68v10.78s-.04,0-.06,0h-2.63V6.52Zm-16.05,0v10.26c-1.79-.84-3.03-2.64-3.03-4.74V6.52h3.03ZM2.5,22.67v-4.96c1.39,1.28,3.25,2.07,5.29,2.07H24.21c2.04,0,3.9-.79,5.29-2.07v4.96H2.5Z"></path>
  </symbol></defs><use xlink:href="#k127"></use></svg>