<svg xmlns:xlink="http://www.w3.org/1999/xlink" xmlns="http://www.w3.org/2000/svg" class="mainmenu-icon mainmenu-icon-k338" width="32"  height="32" ><defs><symbol id="k338" xmlns="http://www.w3.org/2000/svg" viewBox="0 0 32 32">
    <path d="M16,4.12c-6.55,0-11.88,5.33-11.88,11.88s5.33,11.88,11.88,11.88,11.88-5.33,11.88-11.88-5.33-11.88-11.88-11.88Zm9.83,10.88h-6.52c-.07-.22-.15-.43-.26-.63l4.6-4.6c1.19,1.46,1.98,3.26,2.18,5.24Zm-8.35,1c0,.81-.66,1.47-1.47,1.47h0c-.81,0-1.47-.66-1.47-1.47s.66-1.47,1.47-1.47,1.47,.66,1.47,1.47h0Zm.16-3.05c-.2-.11-.41-.2-.63-.26V6.17c1.98,.2,3.78,.98,5.24,2.18l-4.61,4.61Zm-2.63-.26c-.22,.07-.43,.15-.63,.26l-4.61-4.61c1.46-1.19,3.26-1.98,5.24-2.18v6.52Zm-.63,6.36c.2,.11,.41,.2,.63,.26v6.52c-1.98-.2-3.78-.98-5.24-2.18l4.6-4.6Zm2.63,.26c.22-.07,.43-.15,.63-.26l4.6,4.6c-1.46,1.19-3.26,1.98-5.24,2.18v-6.52ZM8.35,9.76l4.61,4.61c-.11,.2-.2,.41-.26,.63H6.17c.2-1.98,.98-3.78,2.18-5.24Zm-2.18,7.24h6.52c.07,.22,.15,.43,.26,.63l-4.61,4.61c-1.19-1.46-1.98-3.26-2.18-5.24Zm17.48,5.24l-4.6-4.6c.11-.2,.2-.41,.26-.63h6.52c-.2,1.98-.98,3.78-2.18,5.24Z"></path>
    <path d="M16,0C7.18,0,0,7.18,0,16s7.18,16,16,16,16-7.18,16-16S24.82,0,16,0Zm0,29.5c-7.44,0-13.5-6.06-13.5-13.5S8.56,2.5,16,2.5s13.5,6.06,13.5,13.5-6.06,13.5-13.5,13.5Z"></path>
  </symbol></defs><use xlink:href="#k338"></use></svg>