<svg xmlns:xlink="http://www.w3.org/1999/xlink" xmlns="http://www.w3.org/2000/svg" class="mainmenu-icon mainmenu-icon-k40" width="31"  height="32" ><defs><symbol id="k40" xmlns="http://www.w3.org/2000/svg" viewBox="0 0 31 32">
    <path d="M22.73,15.53h-.23l-2.02-4.61c-.62-1.41-1.96-2.28-3.5-2.28H8.81c-1.58,0-2.93,.9-3.53,2.36l-1.87,4.54c-1.88,0-3.41,1.54-3.41,3.42v4.03c0,1.68,1.22,3.07,2.81,3.36v3.96c0,.94,.82,1.7,1.83,1.7h2.25c1.01,0,1.83-.76,1.83-1.7v-3.89h8.74v3.89c0,.94,.82,1.7,1.83,1.7h2.24c1.01,0,1.83-.76,1.83-1.7v-3.96c1.6-.29,2.81-1.68,2.81-3.36v-4.03c0-1.89-1.54-3.42-3.43-3.42Zm-15.09-3.57c.21-.5,.63-.79,1.18-.79h8.17c.53,0,.95,.28,1.16,.76l1.58,3.6H6.17l1.47-3.57Zm-.96,18h-1.82v-3.33h1.82v3.33Zm14.64,0h-1.82v-3.33h1.82v3.33Zm2.3-6.98c0,.49-.4,.88-.88,.88H3.43c-.49,0-.88-.39-.88-.88v-4.03c0-.49,.4-.88,.88-.88H22.73c.49,0,.88,.39,.88,.88v4.03Z"></path>
    <path d="M7.06,18.54h-1.26c-1.34,0-2.44,1.09-2.44,2.43s1.09,2.43,2.44,2.43h1.26c1.34,0,2.44-1.09,2.44-2.43s-1.09-2.43-2.44-2.43Zm0,3.14h-1.26c-.39,0-.71-.32-.71-.7s.32-.7,.71-.7h1.26c.39,0,.71,.32,.71,.7s-.32,.7-.71,.7Z"></path>
    <path d="M20.35,18.54h-1.26c-1.34,0-2.44,1.09-2.44,2.43s1.09,2.43,2.44,2.43h1.26c1.34,0,2.44-1.09,2.44-2.43s-1.09-2.43-2.44-2.43Zm0,3.14h-1.26c-.39,0-.71-.32-.71-.7s.32-.7,.71-.7h1.26c.39,0,.71,.32,.71,.7s-.32,.7-.71,.7Z"></path>
    <path d="M23.34,4.35c-.49-.27-1.11-.08-1.38,.41-.27,.49-.08,1.11,.41,1.38,.88,.47,1.51,1.26,1.8,2.21,.25,.84,.19,1.74-.16,2.55-.22,.51,.01,1.11,.53,1.34,.13,.06,.27,.09,.41,.09,.39,0,.77-.23,.93-.61,.54-1.24,.63-2.64,.24-3.94-.44-1.47-1.43-2.69-2.78-3.42Z"></path>
    <path d="M30.56,6.24c-.76-2.54-2.42-4.71-4.69-6.09-.48-.29-1.11-.14-1.4,.34-.29,.48-.14,1.1,.34,1.4,1.84,1.12,3.19,2.87,3.8,4.94,.58,1.94,.45,4.04-.35,5.9-.22,.52,.02,1.11,.53,1.33,.13,.06,.27,.08,.4,.08,.39,0,.77-.23,.94-.62,.99-2.3,1.14-4.88,.43-7.28Z"></path>
  </symbol></defs><use xlink:href="#k40"></use></svg>