<svg xmlns:xlink="http://www.w3.org/1999/xlink" xmlns="http://www.w3.org/2000/svg" class="mainmenu-icon mainmenu-icon-k314" width="31"  height="32" ><defs><symbol id="k314" xmlns="http://www.w3.org/2000/svg" viewBox="0 0 31 32">
    <path d="M29.31,22.16V3.15c0-1.73-1.43-3.15-3.18-3.15H4.87C3.12,0,1.69,1.41,1.69,3.15V22.16c-.98,.35-1.69,1.27-1.69,2.36v4.96c0,1.39,1.14,2.51,2.54,2.51H28.46c1.4,0,2.54-1.13,2.54-2.51v-4.96c0-1.09-.71-2.01-1.69-2.36ZM4.87,2.5H26.13c.36,0,.65,.29,.65,.65V22.01h-2.17V6.11c0-.9-.74-1.63-1.65-1.63H8.04c-.91,0-1.65,.73-1.65,1.63v15.9h-2.17V3.15c0-.36,.29-.65,.65-.65ZM22.59,22.01H8.41V6.48h14.18v15.53Zm5.87,7.49H2.53v-4.98s0-.01,.01-.01H28.47v4.99Z"></path>
    <path d="M12.45,21.08c.14,.06,.28,.09,.43,.09,.38,0,.75-.21,.92-.58,.24-.5,.02-1.1-.49-1.33-.63-.29-.98-.73-1.07-1.35-.12-.82,.25-1.83,.95-2.71l1.15,1.57c.23,.32,.63,.48,1.03,.39,.39-.08,.7-.38,.78-.77l.55-2.51c1.24,1.59,1.8,2.86,1.67,3.79-.08,.62-.49,1.16-1.26,1.64-.47,.3-.61,.91-.31,1.38,.3,.47,.92,.6,1.39,.31,1.28-.8,2.01-1.83,2.18-3.06,.25-1.88-.86-4.08-3.49-6.92-.26-.28-.64-.39-1.01-.29-.37,.1-.64,.39-.72,.75l-.5,2.3-.53-.73c-.17-.23-.42-.38-.7-.41-.28-.03-.57,.05-.78,.24-1.71,1.46-2.65,3.54-2.4,5.3,.18,1.28,.97,2.31,2.22,2.88Z"></path>
  </symbol></defs><use xlink:href="#k314"></use></svg>