<svg xmlns:xlink="http://www.w3.org/1999/xlink" xmlns="http://www.w3.org/2000/svg" class="mainmenu-icon mainmenu-icon-k18" width="32"  height="26" ><defs><symbol id="k18" xmlns="http://www.w3.org/2000/svg" viewBox="0 0 32 26">
    <path d="M5.19,0H2.87C1.29,0,0,1.28,0,2.85V23.15c0,1.57,1.29,2.85,2.87,2.85h2.32c1.58,0,2.87-1.28,2.87-2.85V2.85c0-1.57-1.29-2.85-2.87-2.85Zm.65,23.15c0,.35-.3,.65-.65,.65H2.87c-.35,0-.65-.3-.65-.65V2.85c0-.35,.3-.65,.65-.65h2.32c.35,0,.65,.3,.65,.65V23.15Z"></path>
    <path d="M4.03,5.86c-.69,0-1.25,.56-1.25,1.24s.56,1.24,1.25,1.24,1.25-.56,1.25-1.24-.56-1.24-1.25-1.24Z"></path>
    <ellipse cx="4.03" cy="10.71" rx="1.25" ry="1.24"></ellipse>
    <path d="M20.07,11.36H11.93c-1.26,0-2.28,1.01-2.28,2.26v10.02c0,1.25,1.02,2.26,2.28,2.26h8.13c1.26,0,2.28-1.01,2.28-2.26V13.63c0-1.25-1.02-2.26-2.28-2.26Zm0,12.34l-8.2-.07V13.63s.03-.07,.06-.07l8.2,.07-.06,10.08Z"></path>
    <path d="M16,22.09c1.92,0,3.48-1.55,3.48-3.45s-1.56-3.45-3.48-3.45-3.48,1.55-3.48,3.45,1.56,3.45,3.48,3.45Zm0-5.41c1.09,0,1.97,.88,1.97,1.96s-.88,1.96-1.97,1.96-1.97-.88-1.97-1.96,.88-1.96,1.97-1.96Z"></path>
    <path d="M29.13,0h-2.32c-1.58,0-2.87,1.28-2.87,2.85V23.15c0,1.57,1.29,2.85,2.87,2.85h2.32c1.58,0,2.87-1.28,2.87-2.85V2.85c0-1.57-1.29-2.85-2.87-2.85Zm.65,23.15c0,.35-.3,.65-.65,.65h-2.32c-.35,0-.65-.3-.65-.65V2.85c0-.35,.3-.65,.65-.65h2.32c.35,0,.65,.3,.65,.65V23.15Z"></path>
    <path d="M27.97,5.86c-.69,0-1.25,.56-1.25,1.24s.56,1.24,1.25,1.24,1.25-.56,1.25-1.24-.56-1.24-1.25-1.24Z"></path>
    <ellipse cx="27.97" cy="10.71" rx="1.25" ry="1.24"></ellipse>
  </symbol></defs><use xlink:href="#k18"></use></svg>