<svg xmlns:xlink="http://www.w3.org/1999/xlink" xmlns="http://www.w3.org/2000/svg" class="footer-links-social-icon instagram" width="32"  height="32" ><defs><symbol xmlns="http://www.w3.org/2000/svg" viewBox="0 0 32 32" id="instagram">
    <path d="M16 0c-4.3429 0-4.8914 0-6.59429.0914286C8.07697.119732 6.76283.37483 5.52.845714 4.45087 1.24205 3.48288 1.87045 2.68571 2.68571 1.87094 3.48553 1.23929 4.45251.834286 5.52.373399 6.76522.122369 8.0783.0914286 9.40571 0 11.1086 0 11.6571 0 16s0 4.8914.0914286 6.5943C.122369 23.9217.373399 25.2348.834286 26.48c.405004 1.0675 1.036654 2.0345 1.851424 2.8343.79982.8148 1.7668 1.4464 2.83429 1.8514 1.24522.4609 2.5583.7119 3.88571.7429C11.1086 32 11.6571 32 16 32s4.8914 0 6.5943-.0914c1.3274-.031 2.6405-.282 3.8857-.7429 1.0628-.4142 2.0281-1.0445 2.8346-1.8511.8066-.8065 1.4369-1.7718 1.8511-2.8346.4609-1.2452.7119-2.5583.7429-3.8857C32 20.8914 32 20.3429 32 16s0-4.8914-.0914-6.59429c-.031-1.32741-.282-2.64049-.7429-3.88571-.405-1.06749-1.0366-2.03447-1.8514-2.83429-.7972-.81526-1.7652-1.44366-2.8343-1.839996C25.2372.37483 23.923.119732 22.5943.0914286 20.8914 0 20.3429 0 16 0Zm0 2.88c4.2743 0 4.7771 0 6.4686.09143 1.0152.01497 2.0203.20439 2.9714.56.6907.23936 1.3193.6298 1.84 1.14286.5131.5207.9035 1.1493 1.1429 1.84.3556.95105.545 1.95617.56 2.97142.0685 1.69139.0914 2.19429.0914 6.46859s0 4.7771-.0914 6.4686c-.015 1.0152-.2044 2.0203-.56 2.9714-.2615.6905-.6667 1.3177-1.1888 1.8398-.5221.5221-1.1493.9273-1.8398 1.1888-.9511.3556-1.9562.545-2.9714.56-1.6915.0685-2.1943.0914-6.4686.0914s-4.7772 0-6.46859-.0914c-1.01525-.015-2.02037-.2044-2.97142-.56-.6907-.2394-1.3193-.6298-1.84-1.1429-.51306-.5207-.9035-1.1493-1.14286-1.84-.35561-.9511-.54503-1.9562-.56-2.9714C2.90286 20.7771 2.88 20.2743 2.88 16s0-4.7771.09143-6.46857c.01497-1.01525.20439-2.02037.56-2.97143.23936-.6907.6298-1.3193 1.14286-1.84.5207-.51306 1.1493-.9035 1.84-1.14286.95105-.3556 1.95617-.54503 2.97142-.56C11.2229 2.90286 11.7257 2.88 16 2.88Z"></path>
    <path d="M16 21.3373c-1.0556 0-2.0875-.3131-2.9652-.8995-.8777-.5865-1.5617-1.42-1.9657-2.3953-.4039-.9752-.5096-2.0483-.3037-3.0836.2059-1.0353.7142-1.9863 1.4607-2.7327.7464-.7464 1.6974-1.2547 2.7327-1.4607 1.0353-.2059 2.1084-.1002 3.0836.3037.9753.404 1.8088 1.0881 2.3953 1.9658.5864.8776.8994 1.9095.8994 2.9651 0 .7009-.138 1.3949-.4062 2.0424-.2683.6476-.6614 1.2359-1.157 1.7315-.4956.4956-1.0839.8888-1.7315 1.157-.6475.2682-1.3415.4063-2.0424.4063Zm0-13.55433c-1.6252 0-3.2139.48193-4.5652 1.38484-1.3513.90289-2.40453 2.18629-3.02647 3.68769-.62193 1.5015-.78466 3.1537-.4676 4.7477.31706 1.594 1.09967 3.0581 2.24887 4.2073 1.1492 1.1492 2.6133 1.9318 4.2073 2.2489 1.594.317 3.2462.1543 4.7476-.4676 1.5015-.622 2.7849-1.6752 3.6878-3.0265.9029-1.3513 1.3848-2.94 1.3848-4.5652 0-2.1793-.8657-4.2694-2.4067-5.8104-1.541-1.541-3.6311-2.40673-5.8104-2.40673Zm10.4571-.32c0 .37974-.1126.75095-.3236 1.06669-.2109.31575-.5108.56184-.8616.70716-.3509.14532-.7369.18334-1.1093.10926-.3725-.07409-.7146-.25695-.9831-.52547-.2685-.26851-.4514-.61062-.5255-.98307-.0741-.37244-.036-.75849.1093-1.10932.1453-.35084.3914-.6507.7071-.86167.3158-.21098.687-.32358 1.0667-.32358.5092 0 .9976.20228 1.3577.56235.36.36007.5623.84843.5623 1.35765Z"></path>
  </symbol></defs><use xlink:href="#instagram" fill="#D75C71"></use></svg>