<svg xmlns:xlink="http://www.w3.org/1999/xlink" xmlns="http://www.w3.org/2000/svg" class="mainmenu-icon mainmenu-icon-k30" width="24"  height="32" ><defs><symbol id="k30" xmlns="http://www.w3.org/2000/svg" viewBox="0 0 24 32">
    <path d="M20.52,0H3.48C1.56,0,0,1.6,0,3.57V28.43c0,1.97,1.56,3.57,3.48,3.57H20.52c1.92,0,3.48-1.6,3.48-3.57V3.57c0-1.97-1.56-3.57-3.48-3.57Zm1.22,28.43c0,.69-.55,1.25-1.22,1.25H3.48c-.67,0-1.22-.56-1.22-1.25V3.57c0-.69,.55-1.25,1.22-1.25H20.52c.67,0,1.22,.56,1.22,1.25V28.43Z"></path>
    <path d="M15.47,4.38h-6.93c-.5,0-.91,.42-.91,.93s.41,.93,.91,.93h6.93c.5,0,.91-.42,.91-.93s-.41-.93-.91-.93Z"></path>
    <ellipse cx="12" cy="26.22" rx="1.36" ry="1.39"></ellipse>
  </symbol></defs><use xlink:href="#k30" fill="#2C509A"></use></svg>