<svg xmlns:xlink="http://www.w3.org/1999/xlink" xmlns="http://www.w3.org/2000/svg" class="mainmenu-icon mainmenu-icon-k315" width="32"  height="26" ><defs><symbol id="k315" xmlns="http://www.w3.org/2000/svg" viewBox="0 0 32 26">
    <path d="M7.96,0H2.82C1.27,0,0,1.24,0,2.77V23.23c0,1.53,1.27,2.77,2.82,2.77H7.96c1.56,0,2.82-1.24,2.82-2.77V2.77c0-1.53-1.27-2.77-2.82-2.77Zm.32,23.23c0,.17-.15,.31-.32,.31H2.82c-.17,0-.32-.14-.32-.31V2.77c0-.17,.15-.31,.32-.31H7.96c.17,0,.32,.14,.32,.31V23.23Z"></path>
    <path d="M7.37,5.93c0-1.09-.89-1.98-1.98-1.98s-1.98,.89-1.98,1.98,.89,1.98,1.98,1.98,1.98-.89,1.98-1.98Z"></path>
    <rect x="3.39" y="11" width="1.65" height="1.65" rx=".36" ry=".36"></rect>
    <rect x="3.39" y="19.39" width="1.65" height="1.65" rx=".36" ry=".36"></rect>
    <rect x="3.39" y="13.8" width="1.65" height="1.65" rx=".36" ry=".36"></rect>
    <rect x="3.39" y="16.6" width="1.65" height="1.65" rx=".36" ry=".36"></rect>
    <rect x="5.74" y="11" width="1.65" height="1.65" rx=".36" ry=".36"></rect>
    <rect x="5.74" y="19.39" width="1.65" height="1.65" rx=".36" ry=".36"></rect>
    <rect x="5.74" y="13.8" width="1.65" height="1.65" rx=".36" ry=".36"></rect>
    <rect x="5.74" y="16.6" width="1.65" height="1.65" rx=".36" ry=".36"></rect>
    <path d="M30.75,4.91c-.69,0-1.25,.56-1.25,1.25V15.24h-.87v-3.89c0-1.21-.99-2.2-2.2-2.2H14.28c-1.21,0-2.2,.99-2.2,2.2v12.15c0,1.21,.99,2.2,2.2,2.2h12.15c1.21,0,2.2-.99,2.2-2.2v-7.3h.91c.08,.61,.58,1.1,1.22,1.1,.69,0,1.25-.56,1.25-1.25V6.16c0-.69-.56-1.25-1.25-1.25Zm-4.62,18.29H14.58V11.65h11.55v11.55Z"></path>
  </symbol></defs><use xlink:href="#k315"></use></svg>