<svg xmlns:xlink="http://www.w3.org/1999/xlink" xmlns="http://www.w3.org/2000/svg" class="mainmenu-icon mainmenu-icon-k160" width="32"  height="27" ><defs><symbol id="k160" xmlns="http://www.w3.org/2000/svg" viewBox="0 0 32 27">
    <path d="M29.88,0H2.12C.95,0,0,.97,0,2.16V19c0,1.19,.94,2.16,2.12,2.17H14.67v1.74c-3.39,.08-6.75,.53-10.04,1.35-.72,.18-1.15,.91-.98,1.63h0c.13,.75,.83,1.23,1.55,1.1,.04,0,.09-.02,.13-.03,7.04-1.78,14.41-1.78,21.45,0,.11,.01,.21,.01,.32,0,.74,.09,1.4-.44,1.49-1.19,.09-.74-.44-1.42-1.17-1.51-3.31-.82-6.69-1.28-10.09-1.35v-1.74h12.55c1.18,0,2.13-.98,2.12-2.17h0V2.16c0-1.19-.95-2.15-2.12-2.16Zm-.55,18.45H2.67V2.69H29.33v15.75Z"></path>
  </symbol></defs><use xlink:href="#k160" fill="#2C509A"></use></svg>