<svg xmlns:xlink="http://www.w3.org/1999/xlink" xmlns="http://www.w3.org/2000/svg" class="mainmenu-icon mainmenu-icon-k745" width="24"  height="32" ><defs><symbol id="k745" xmlns="http://www.w3.org/2000/svg" viewBox="0 0 24 32">
    <path d="M22.72,9.7h-.4v-2.58c0-1.21-.99-2.19-2.21-2.19h-1.03V2.16c0-1.19-.98-2.16-2.18-2.16H5.42c-1.2,0-2.18,.97-2.18,2.16v2.76h-1.03c-1.22,0-2.21,.98-2.21,2.19V24.88c0,1.21,.99,2.19,2.21,2.19h1.03v2.76c0,1.19,.98,2.16,2.18,2.16h11.48c1.2,0,2.18-.97,2.18-2.16v-2.76h1.03c1.22,0,2.21-.98,2.21-2.19V15.19h.4c.7,0,1.28-.57,1.28-1.27v-2.96c0-.7-.58-1.27-1.28-1.27ZM5.58,2.32h11.16v2.6H5.58V2.32Zm11.16,27.36H5.58v-2.6h11.16v2.6Zm3.24-4.92H2.34V7.24H19.99V24.76Z"></path>
    <path d="M5.91,12.79h10.51c.52,0,.94-.42,.94-.93s-.42-.93-.94-.93H5.91c-.52,0-.94,.42-.94,.93s.42,.93,.94,.93Z"></path>
    <path d="M5.91,16.93h10.51c.52,0,.94-.42,.94-.93s-.42-.93-.94-.93H5.91c-.52,0-.94,.42-.94,.93s.42,.93,.94,.93Z"></path>
    <path d="M5.91,21.06h5.25c.52,0,.94-.42,.94-.93s-.42-.93-.94-.93H5.91c-.52,0-.94,.42-.94,.93s.42,.93,.94,.93Z"></path>
  </symbol></defs><use xlink:href="#k745" fill="#2C509A"></use></svg>